ExpletusSans-Bold.ufo
<glyph name="exclam" format="1">
  <advance width="351"/>
  <unicode hex="0021"/>
  <outline>
    <contour>
      <point x="187" y="727" type="line"/>
      <point x="166" y="230" type="line"/>
      <point x="66" y="230" type="line"/>
      <point x="47" y="727" type="line"/>
    </contour>
    <contour>
      <point x="32" y="68" type="curve" smooth="yes" name="hr01"/>
      <point x="32" y="114"/>
      <point x="68" y="152"/>
      <point x="115" y="152" type="curve" smooth="yes"/>
      <point x="161" y="152"/>
      <point x="197" y="114"/>
      <point x="197" y="68" type="curve" smooth="yes"/>
      <point x="197" y="22"/>
      <point x="161" y="-14"/>
      <point x="115" y="-14" type="curve" smooth="yes"/>
      <point x="68" y="-14"/>
      <point x="32" y="22"/>
    </contour>
  </outline>
</glyph>
<glyph name="quotedbl" format="1">
  <advance width="416"/>
  <unicode hex="0022"/>
  <outline>
    <contour>
      <point x="33" y="727" type="line" name="hr00"/>
      <point x="155" y="727" type="line"/>
      <point x="155" y="649" type="line" smooth="yes"/>
      <point x="155" y="557"/>
      <point x="120" y="482"/>
      <point x="33" y="501" type="curve"/>
    </contour>
    <contour>
      <point x="237" y="727" type="line"/>
      <point x="359" y="727" type="line"/>
      <point x="359" y="649" type="line" smooth="yes"/>
      <point x="359" y="557"/>
      <point x="324" y="482"/>
      <point x="237" y="501" type="curve"/>
    </contour>
  </outline>
</glyph>
<glyph name="numbersign" format="1">
  <advance width="894"/>
  <unicode hex="0023"/>
  <outline>
    <contour>
      <point x="480" y="141" type="line"/>
      <point x="487" y="156" type="line"/>
      <point x="472" y="154" type="line"/>
      <point x="318" y="154" type="line"/>
      <point x="331" y="192"/>
      <point x="358" y="241"/>
      <point x="430" y="241" type="curve" smooth="yes"/>
      <point x="496" y="241" type="line"/>
      <point x="536" y="448" type="line"/>
      <point x="544" y="464" type="line"/>
      <point x="526" y="462" type="line"/>
      <point x="345" y="462" type="line"/>
      <point x="257" y="0" type="line" name="hr01"/>
      <point x="145" y="0" type="line"/>
      <point x="174" y="145" type="line"/>
      <point x="181" y="156" type="line"/>
      <point x="167" y="154" type="line" name="hr02"/>
      <point x="65" y="154" type="line"/>
      <point x="65" y="240" type="line"/>
      <point x="190" y="240" type="line"/>
      <point x="231" y="453" type="line"/>
      <point x="238" y="464" type="line"/>
      <point x="222" y="462" type="line"/>
      <point x="124" y="462" type="line"/>
      <point x="124" y="550" type="line"/>
      <point x="250" y="550" type="line"/>
      <point x="278" y="702" type="line" name="hr03"/>
      <point x="390" y="702" type="line"/>
      <point x="361" y="550" type="line" name="hr04"/>
      <point x="556" y="550" type="line"/>
      <point x="585" y="702" type="line" name="hr05"/>
      <point x="697" y="702" type="line"/>
      <point x="667" y="550" type="line" name="hr06"/>
      <point x="781" y="550" type="line"/>
      <point x="781" y="463" type="line"/>
      <point x="651" y="463" type="line"/>
      <point x="608" y="241" type="line"/>
      <point x="721" y="241" type="line"/>
      <point x="721" y="154" type="line"/>
      <point x="594" y="154" type="line"/>
      <point x="564" y="0" type="line" name="hr07"/>
      <point x="452" y="0" type="line"/>
    </contour>
  </outline>
</glyph>
<glyph name="dollar" format="1">
  <advance width="514"/>
  <unicode hex="0024"/>
  <outline>
    <contour>
      <point x="264" y="612" type="curve" smooth="yes" name="hr00"/>
      <point x="204" y="612"/>
      <point x="165" y="580"/>
      <point x="165" y="537" type="curve" smooth="yes"/>
      <point x="165" y="406"/>
      <point x="506" y="404"/>
      <point x="506" y="181" type="curve" smooth="yes"/>
      <point x="506" y="74"/>
      <point x="431" y="9"/>
      <point x="316" y="-8" type="curve"/>
      <point x="316" y="-107" type="line"/>
      <point x="210" y="-107" type="line"/>
      <point x="210" y="-11" type="line"/>
      <point x="159" y="-6"/>
      <point x="97" y="9"/>
      <point x="26" y="40" type="curve"/>
      <point x="64" y="134" type="line"/>
      <point x="136" y="102"/>
      <point x="200" y="91"/>
      <point x="251" y="91" type="curve" smooth="yes"/>
      <point x="322" y="91"/>
      <point x="374" y="133"/>
      <point x="374" y="183" type="curve" smooth="yes"/>
      <point x="374" y="322"/>
      <point x="35" y="319"/>
      <point x="35" y="529" type="curve" smooth="yes"/>
      <point x="35" y="638"/>
      <point x="111" y="696"/>
      <point x="210" y="709" type="curve"/>
      <point x="210" y="810" type="line"/>
      <point x="316" y="810" type="line"/>
      <point x="316" y="709" type="line"/>
      <point x="355" y="705"/>
      <point x="395" y="697"/>
      <point x="451" y="680" type="curve"/>
      <point x="414" y="589" type="line"/>
      <point x="355" y="605"/>
      <point x="308" y="612"/>
    </contour>
  </outline>
</glyph>
<glyph name="percent" format="1">
  <advance width="814"/>
  <unicode hex="0025"/>
  <outline>
    <contour>
      <point x="576" y="702" type="line"/>
      <point x="687" y="702" type="line"/>
      <point x="249" y="0" type="line"/>
      <point x="138" y="0" type="line"/>
    </contour>
    <contour>
      <point x="821" y="191" type="curve" smooth="yes"/>
      <point x="821" y="62"/>
      <point x="753" y="-13"/>
      <point x="647" y="-13" type="curve" smooth="yes" name="hr01"/>
      <point x="541" y="-13"/>
      <point x="475" y="61"/>
      <point x="475" y="191" type="curve" smooth="yes"/>
      <point x="475" y="319"/>
      <point x="541" y="394"/>
      <point x="647" y="394" type="curve" smooth="yes"/>
      <point x="753" y="394"/>
      <point x="821" y="319"/>
    </contour>
    <contour>
      <point x="710" y="191" type="curve" smooth="yes"/>
      <point x="710" y="272"/>
      <point x="685" y="315"/>
      <point x="647" y="315" type="curve" smooth="yes"/>
      <point x="611" y="315"/>
      <point x="585" y="272"/>
      <point x="585" y="191" type="curve" smooth="yes"/>
      <point x="585" y="108"/>
      <point x="611" y="66"/>
      <point x="647" y="66" type="curve" smooth="yes"/>
      <point x="685" y="66"/>
      <point x="710" y="108"/>
    </contour>
    <contour>
      <point x="352" y="514" type="curve" smooth="yes"/>
      <point x="352" y="385"/>
      <point x="284" y="310"/>
      <point x="178" y="310" type="curve" smooth="yes"/>
      <point x="72" y="310"/>
      <point x="6" y="384"/>
      <point x="6" y="514" type="curve" smooth="yes"/>
      <point x="6" y="642"/>
      <point x="72" y="717"/>
      <point x="178" y="717" type="curve" smooth="yes"/>
      <point x="284" y="717"/>
      <point x="352" y="642"/>
    </contour>
    <contour>
      <point x="241" y="514" type="curve" smooth="yes"/>
      <point x="241" y="595"/>
      <point x="216" y="638"/>
      <point x="178" y="638" type="curve" smooth="yes"/>
      <point x="142" y="638"/>
      <point x="116" y="595"/>
      <point x="116" y="514" type="curve" smooth="yes"/>
      <point x="116" y="431"/>
      <point x="142" y="389"/>
      <point x="178" y="389" type="curve" smooth="yes"/>
      <point x="216" y="389"/>
      <point x="241" y="431"/>
    </contour>
  </outline>
</glyph>
<glyph name="ampersand" format="1">
  <advance width="761"/>
  <unicode hex="0026"/>
  <outline>
    <contour>
      <point x="297" y="324" type="line"/>
      <point x="288" y="341" type="line"/>
      <point x="279" y="323" type="line"/>
      <point x="257" y="295"/>
      <point x="243" y="264"/>
      <point x="243" y="222" type="curve" smooth="yes"/>
      <point x="243" y="149"/>
      <point x="279" y="93"/>
      <point x="350" y="93" type="curve" smooth="yes"/>
      <point x="364" y="93"/>
      <point x="371" y="95"/>
      <point x="383" y="96" type="curve" smooth="yes"/>
      <point x="433" y="100"/>
      <point x="463" y="70"/>
      <point x="491" y="39" type="curve"/>
      <point x="444" y="5"/>
      <point x="395" y="-11"/>
      <point x="335" y="-11" type="curve" smooth="yes"/>
      <point x="200" y="-11"/>
      <point x="108" y="75"/>
      <point x="108" y="209" type="curve" smooth="yes"/>
      <point x="108" y="299"/>
      <point x="160" y="366"/>
      <point x="225" y="415" type="curve"/>
      <point x="178" y="480"/>
      <point x="170" y="513"/>
      <point x="170" y="550" type="curve" smooth="yes" name="hr01"/>
      <point x="170" y="672"/>
      <point x="267" y="737"/>
      <point x="396" y="737" type="curve" smooth="yes"/>
      <point x="440" y="737"/>
      <point x="501" y="725"/>
      <point x="550" y="703" type="curve"/>
      <point x="520" y="611" type="line"/>
      <point x="477" y="625"/>
      <point x="430" y="633"/>
      <point x="394" y="633" type="curve" smooth="yes"/>
      <point x="337" y="633"/>
      <point x="298" y="603"/>
      <point x="298" y="559" type="curve" smooth="yes"/>
      <point x="298" y="508"/>
      <point x="333" y="470"/>
      <point x="388" y="404" type="curve"/>
      <point x="522" y="246" type="line"/>
      <point x="532" y="228" type="line"/>
      <point x="539" y="249" type="line"/>
      <point x="558" y="291"/>
      <point x="569" y="331"/>
      <point x="576" y="379" type="curve"/>
      <point x="691" y="379" type="line"/>
      <point x="673" y="291"/>
      <point x="649" y="214"/>
      <point x="608" y="147" type="curve"/>
      <point x="735" y="0" type="line"/>
      <point x="576" y="0" type="line"/>
    </contour>
  </outline>
</glyph>
<glyph name="parenleft" format="1">
  <advance width="403"/>
  <unicode hex="0028"/>
  <outline>
    <contour>
      <point x="281" y="296" type="curve" smooth="yes" name="hr00"/>
      <point x="281" y="74"/>
      <point x="291" y="-9"/>
      <point x="405" y="-110" type="curve"/>
      <point x="339" y="-176" type="line"/>
      <point x="185" y="-72"/>
      <point x="158" y="46"/>
      <point x="158" y="296" type="curve"/>
      <point x="158" y="545"/>
      <point x="185" y="663"/>
      <point x="339" y="767" type="curve"/>
      <point x="405" y="702" type="line"/>
      <point x="290" y="599"/>
      <point x="281" y="517"/>
    </contour>
  </outline>
</glyph>
<glyph name="parenright" format="1">
  <advance width="401"/>
  <unicode hex="0029"/>
  <outline>
    <contour>
      <point x="122" y="296" type="curve" smooth="yes" name="hr00"/>
      <point x="122" y="517"/>
      <point x="113" y="599"/>
      <point x="-2" y="702" type="curve"/>
      <point x="64" y="767" type="line"/>
      <point x="218" y="663"/>
      <point x="245" y="545"/>
      <point x="245" y="296" type="curve"/>
      <point x="245" y="46"/>
      <point x="218" y="-72"/>
      <point x="64" y="-176" type="curve"/>
      <point x="-2" y="-110" type="line"/>
      <point x="112" y="-9"/>
      <point x="122" y="74"/>
    </contour>
  </outline>
</glyph>
<glyph name="asterisk" format="1">
  <advance width="530"/>
  <unicode hex="002A"/>
  <outline>
    <contour>
      <point x="249" y="590" type="line" name="hr00"/>
      <point x="303" y="746" type="line"/>
      <point x="397" y="691" type="line"/>
      <point x="289" y="568" type="line"/>
      <point x="450" y="599" type="line"/>
      <point x="450" y="491" type="line"/>
      <point x="287" y="523" type="line"/>
      <point x="396" y="400" type="line"/>
      <point x="302" y="346" type="line"/>
      <point x="250" y="502" type="line"/>
      <point x="197" y="346" type="line"/>
      <point x="103" y="400" type="line"/>
      <point x="212" y="524" type="line"/>
      <point x="51" y="492" type="line"/>
      <point x="51" y="600" type="line"/>
      <point x="210" y="569" type="line"/>
      <point x="102" y="691" type="line"/>
      <point x="196" y="746" type="line"/>
    </contour>
  </outline>
</glyph>
<glyph name="plus" format="1">
  <advance width="568"/>
  <unicode hex="002B"/>
  <outline>
    <contour>
      <point x="47" y="353" type="line" name="hr00"/>
      <point x="227" y="353" type="line"/>
      <point x="227" y="546" type="line"/>
      <point x="333" y="546" type="line"/>
      <point x="333" y="353" type="line"/>
      <point x="515" y="353" type="line"/>
      <point x="515" y="257" type="line"/>
      <point x="333" y="257" type="line"/>
      <point x="333" y="62" type="line"/>
      <point x="227" y="62" type="line"/>
      <point x="227" y="257" type="line"/>
      <point x="47" y="257" type="line"/>
    </contour>
  </outline>
</glyph>
<glyph name="comma" format="1">
  <advance width="254"/>
  <unicode hex="002C"/>
  <outline>
    <contour>
      <point x="56" y="98" type="line" name="hr00"/>
      <point x="178" y="98" type="line"/>
      <point x="178" y="20" type="line" smooth="yes"/>
      <point x="178" y="-72"/>
      <point x="143" y="-147"/>
      <point x="56" y="-128" type="curve"/>
    </contour>
  </outline>
</glyph>
<glyph name="period" format="1">
  <advance width="273"/>
  <unicode hex="002E"/>
  <outline>
    <contour>
      <point x="42" y="67" type="curve" smooth="yes" name="hr00"/>
      <point x="42" y="113"/>
      <point x="78" y="151"/>
      <point x="125" y="151" type="curve" smooth="yes"/>
      <point x="171" y="151"/>
      <point x="207" y="113"/>
      <point x="207" y="67" type="curve" smooth="yes"/>
      <point x="207" y="21"/>
      <point x="171" y="-15"/>
      <point x="125" y="-15" type="curve" smooth="yes"/>
      <point x="78" y="-15"/>
      <point x="42" y="21"/>
    </contour>
  </outline>
</glyph>
<glyph name="zero" format="1">
  <advance width="710"/>
  <unicode hex="0030"/>
  <outline>
    <contour>
      <point x="625" y="349" type="curve" name="hr00"/>
      <point x="625" y="157"/>
      <point x="529" y="-19"/>
      <point x="329" y="-19" type="curve" smooth="yes"/>
      <point x="153" y="-19"/>
      <point x="33" y="120"/>
      <point x="33" y="349" type="curve" smooth="yes"/>
      <point x="33" y="570"/>
      <point x="147" y="719"/>
      <point x="329" y="719" type="curve" smooth="yes"/>
      <point x="538" y="719"/>
      <point x="625" y="527"/>
    </contour>
    <contour>
      <point x="473" y="349" type="curve"/>
      <point x="473" y="512"/>
      <point x="426" y="617"/>
      <point x="329" y="617" type="curve"/>
      <point x="231" y="617"/>
      <point x="185" y="512"/>
      <point x="185" y="349" type="curve"/>
      <point x="185" y="187"/>
      <point x="232" y="83"/>
      <point x="329" y="83" type="curve" smooth="yes"/>
      <point x="426" y="83"/>
      <point x="473" y="187"/>
    </contour>
  </outline>
</glyph>
<glyph name="one" format="1">
  <advance width="319"/>
  <unicode hex="0031"/>
  <outline>
    <contour>
      <point x="129" y="0" type="line" name="hr00"/>
      <point x="129" y="556" type="line"/>
      <point x="23" y="501" type="line"/>
      <point x="-20" y="581" type="line"/>
      <point x="203" y="701" type="line"/>
      <point x="257" y="701" type="line"/>
      <point x="257" y="0" type="line"/>
    </contour>
  </outline>
</glyph>
<glyph name="two" format="1">
  <advance width="567"/>
  <unicode hex="0032"/>
  <outline>
    <contour>
      <point x="494" y="522" type="curve" smooth="yes" name="hr00"/>
      <point x="494" y="392"/>
      <point x="328" y="233"/>
      <point x="238" y="124" type="curve"/>
      <point x="222" y="106" type="line"/>
      <point x="245" y="109" type="line"/>
      <point x="505" y="109" type="line"/>
      <point x="505" y="0" type="line"/>
      <point x="44" y="0" type="line"/>
      <point x="44" y="59" type="line"/>
      <point x="100" y="190"/>
      <point x="346" y="385"/>
      <point x="346" y="512" type="curve"/>
      <point x="346" y="575"/>
      <point x="297" y="611"/>
      <point x="232" y="611" type="curve"/>
      <point x="201" y="611"/>
      <point x="157" y="602"/>
      <point x="107" y="580" type="curve"/>
      <point x="71" y="672" type="line"/>
      <point x="137" y="703"/>
      <point x="196" y="713"/>
      <point x="242" y="713" type="curve" smooth="yes"/>
      <point x="397" y="713"/>
      <point x="494" y="641"/>
    </contour>
  </outline>
</glyph>
<glyph name="three" format="1">
  <advance width="528"/>
  <unicode hex="0033"/>
  <outline>
    <contour>
      <point x="450" y="546" type="curve" smooth="yes"/>
      <point x="450" y="487"/>
      <point x="415" y="434"/>
      <point x="347" y="392" type="curve"/>
      <point x="322" y="382" type="line"/>
      <point x="345" y="377" type="line"/>
      <point x="419" y="348"/>
      <point x="474" y="281"/>
      <point x="474" y="194" type="curve" smooth="yes" name="hr01"/>
      <point x="474" y="69"/>
      <point x="353" y="-11"/>
      <point x="208" y="-11" type="curve" smooth="yes"/>
      <point x="135" y="-11"/>
      <point x="69" y="7"/>
      <point x="5" y="35" type="curve"/>
      <point x="38" y="126" type="line"/>
      <point x="99" y="99"/>
      <point x="146" y="91"/>
      <point x="186" y="91" type="curve" smooth="yes"/>
      <point x="256" y="91"/>
      <point x="327" y="128"/>
      <point x="327" y="196" type="curve" smooth="yes"/>
      <point x="327" y="286"/>
      <point x="244" y="311"/>
      <point x="132" y="311" type="curve"/>
      <point x="123" y="396" type="line"/>
      <point x="235" y="443"/>
      <point x="303" y="475"/>
      <point x="303" y="539" type="curve" name="hr02"/>
      <point x="303" y="585"/>
      <point x="259" y="610"/>
      <point x="206" y="610" type="curve" smooth="yes"/>
      <point x="168" y="610"/>
      <point x="128" y="603"/>
      <point x="67" y="578" type="curve"/>
      <point x="33" y="671" type="line"/>
      <point x="110" y="703"/>
      <point x="172" y="712"/>
      <point x="227" y="712" type="curve" smooth="yes"/>
      <point x="352" y="712"/>
      <point x="450" y="651"/>
    </contour>
  </outline>
</glyph>
<glyph name="four" format="1">
  <advance width="595"/>
  <unicode hex="0034"/>
  <outline>
    <contour>
      <point x="214" y="242" type="line"/>
      <point x="272" y="242"/>
      <point x="301" y="186"/>
      <point x="314" y="141" type="curve"/>
      <point x="23" y="141" type="line"/>
      <point x="23" y="238" type="line"/>
      <point x="315" y="701" type="line"/>
      <point x="483" y="701" type="line"/>
      <point x="483" y="242" type="line"/>
      <point x="564" y="242" type="line" name="hr01"/>
      <point x="564" y="141" type="line"/>
      <point x="483" y="141" type="line" name="hr02"/>
      <point x="483" y="0" type="line"/>
      <point x="350" y="0" type="line"/>
      <point x="350" y="518" type="line"/>
      <point x="352" y="551" type="line"/>
      <point x="337" y="523" type="line"/>
      <point x="173" y="261" type="line"/>
      <point x="157" y="241" type="line"/>
      <point x="178" y="242" type="line"/>
    </contour>
  </outline>
</glyph>
<glyph name="five" format="1">
  <advance width="537"/>
  <unicode hex="0035"/>
  <outline>
    <contour>
      <point x="180" y="442" type="line" name="hr00"/>
      <point x="177" y="428" type="line"/>
      <point x="195" y="432" type="line"/>
      <point x="208" y="433"/>
      <point x="219" y="433"/>
      <point x="227" y="433" type="curve"/>
      <point x="391" y="433"/>
      <point x="490" y="336"/>
      <point x="490" y="213" type="curve" smooth="yes"/>
      <point x="490" y="78"/>
      <point x="368" y="-12"/>
      <point x="207" y="-12" type="curve" smooth="yes"/>
      <point x="156" y="-12"/>
      <point x="97" y="-3"/>
      <point x="20" y="36" type="curve"/>
      <point x="53" y="127" type="line"/>
      <point x="122" y="100"/>
      <point x="169" y="90"/>
      <point x="206" y="90" type="curve" smooth="yes"/>
      <point x="291" y="90"/>
      <point x="343" y="152"/>
      <point x="343" y="215" type="curve" smooth="yes"/>
      <point x="343" y="290"/>
      <point x="281" y="332"/>
      <point x="193" y="332" type="curve"/>
      <point x="159" y="332"/>
      <point x="116" y="329"/>
      <point x="54" y="318" type="curve"/>
      <point x="79" y="701" type="line"/>
      <point x="460" y="701" type="line"/>
      <point x="460" y="592" type="line"/>
      <point x="191" y="592" type="line"/>
    </contour>
  </outline>
</glyph>
<glyph name="six" format="1">
  <advance width="625"/>
  <unicode hex="0036"/>
  <outline>
    <contour>
      <point x="414" y="608" type="curve" name="hr00"/>
      <point x="272" y="608"/>
      <point x="200" y="482"/>
      <point x="200" y="329" type="curve" smooth="yes"/>
      <point x="200" y="219"/>
      <point x="230" y="85"/>
      <point x="337" y="85" type="curve" smooth="yes"/>
      <point x="396" y="85"/>
      <point x="444" y="147"/>
      <point x="444" y="224" type="curve" smooth="yes"/>
      <point x="444" y="304"/>
      <point x="407" y="340"/>
      <point x="367" y="340" type="curve" smooth="yes"/>
      <point x="360" y="340"/>
      <point x="348" y="339"/>
      <point x="336" y="337" type="curve"/>
      <point x="290" y="330"/>
      <point x="261" y="371"/>
      <point x="244" y="403" type="curve"/>
      <point x="302" y="433"/>
      <point x="349" y="442"/>
      <point x="382" y="442" type="curve" smooth="yes"/>
      <point x="495" y="442"/>
      <point x="592" y="366"/>
      <point x="592" y="224" type="curve" smooth="yes"/>
      <point x="592" y="108"/>
      <point x="497" y="-16"/>
      <point x="340" y="-16" type="curve" smooth="yes"/>
      <point x="138" y="-16"/>
      <point x="53" y="142"/>
      <point x="53" y="327" type="curve" smooth="yes"/>
      <point x="53" y="531"/>
      <point x="197" y="710"/>
      <point x="414" y="710" type="curve"/>
      <point x="447" y="710"/>
      <point x="495" y="702"/>
      <point x="544" y="686" type="curve"/>
      <point x="512" y="593" type="line"/>
      <point x="471" y="605"/>
      <point x="440" y="608"/>
    </contour>
  </outline>
</glyph>
<glyph name="seven" format="1">
  <advance width="503"/>
  <unicode hex="0037"/>
  <outline>
    <contour>
      <point x="105" y="0" type="line" name="hr00"/>
      <point x="136" y="228"/>
      <point x="193" y="395"/>
      <point x="311" y="574" type="curve"/>
      <point x="326" y="589" type="line"/>
      <point x="301" y="587" type="line"/>
      <point x="38" y="587" type="line"/>
      <point x="38" y="701" type="line"/>
      <point x="476" y="701" type="line"/>
      <point x="476" y="604" type="line"/>
      <point x="367" y="464"/>
      <point x="280" y="311"/>
      <point x="250" y="0" type="curve"/>
    </contour>
  </outline>
</glyph>
<glyph name="eight" format="1">
  <advance width="662"/>
  <unicode hex="0038"/>
  <outline>
    <contour>
      <point x="574" y="531" type="curve" smooth="yes"/>
      <point x="574" y="484"/>
      <point x="545" y="433"/>
      <point x="499" y="378" type="curve"/>
      <point x="479" y="363" type="line"/>
      <point x="496" y="355" type="line"/>
      <point x="553" y="317"/>
      <point x="597" y="264"/>
      <point x="597" y="178" type="curve" smooth="yes" name="hr01"/>
      <point x="597" y="56"/>
      <point x="484" y="-13"/>
      <point x="338" y="-13" type="curve" smooth="yes"/>
      <point x="188" y="-13"/>
      <point x="81" y="56"/>
      <point x="81" y="178" type="curve" smooth="yes"/>
      <point x="81" y="224"/>
      <point x="102" y="275"/>
      <point x="166" y="341" type="curve"/>
      <point x="201" y="309"/>
      <point x="236" y="266"/>
      <point x="225" y="222" type="curve" smooth="yes"/>
      <point x="219" y="203"/>
      <point x="216" y="193"/>
      <point x="216" y="178" type="curve" smooth="yes"/>
      <point x="216" y="122"/>
      <point x="266" y="88"/>
      <point x="338" y="88" type="curve" smooth="yes"/>
      <point x="413" y="88"/>
      <point x="457" y="129"/>
      <point x="457" y="178" type="curve" smooth="yes"/>
      <point x="457" y="332"/>
      <point x="105" y="296"/>
      <point x="105" y="531" type="curve" smooth="yes" name="hr02"/>
      <point x="105" y="646"/>
      <point x="212" y="714"/>
      <point x="341" y="714" type="curve" smooth="yes"/>
      <point x="474" y="714"/>
      <point x="574" y="646"/>
    </contour>
    <contour>
      <point x="245" y="531" type="curve" smooth="yes"/>
      <point x="245" y="472"/>
      <point x="312" y="444"/>
      <point x="388" y="410" type="curve"/>
      <point x="421" y="449"/>
      <point x="437" y="487"/>
      <point x="438" y="520" type="curve" name="hr03"/>
      <point x="438" y="586"/>
      <point x="392" y="612"/>
      <point x="341" y="612" type="curve" smooth="yes"/>
      <point x="287" y="612"/>
      <point x="245" y="585"/>
    </contour>
  </outline>
</glyph>
<glyph name="nine" format="1">
  <advance width="624"/>
  <unicode hex="0039"/>
  <outline>
    <contour>
      <point x="231" y="92" type="curve" name="hr00"/>
      <point x="373" y="92"/>
      <point x="445" y="218"/>
      <point x="445" y="371" type="curve" smooth="yes"/>
      <point x="445" y="480"/>
      <point x="415" y="614"/>
      <point x="308" y="614" type="curve" smooth="yes"/>
      <point x="249" y="614"/>
      <point x="201" y="552"/>
      <point x="201" y="476" type="curve" smooth="yes"/>
      <point x="201" y="396"/>
      <point x="238" y="360"/>
      <point x="278" y="360" type="curve" smooth="yes"/>
      <point x="284" y="360"/>
      <point x="297" y="361"/>
      <point x="309" y="363" type="curve"/>
      <point x="354" y="370"/>
      <point x="384" y="329"/>
      <point x="401" y="297" type="curve"/>
      <point x="343" y="267"/>
      <point x="296" y="258"/>
      <point x="263" y="258" type="curve" smooth="yes"/>
      <point x="149" y="258"/>
      <point x="53" y="334"/>
      <point x="53" y="476" type="curve" smooth="yes"/>
      <point x="53" y="592"/>
      <point x="147" y="716"/>
      <point x="305" y="716" type="curve" smooth="yes"/>
      <point x="507" y="716"/>
      <point x="592" y="558"/>
      <point x="592" y="373" type="curve" smooth="yes"/>
      <point x="592" y="168"/>
      <point x="448" y="-10"/>
      <point x="231" y="-10" type="curve"/>
      <point x="198" y="-10"/>
      <point x="149" y="-3"/>
      <point x="101" y="14" type="curve"/>
      <point x="133" y="106" type="line"/>
      <point x="174" y="95"/>
      <point x="205" y="92"/>
    </contour>
  </outline>
</glyph>
<glyph name="colon" format="1">
  <advance width="299"/>
  <unicode hex="003A"/>
  <outline>
    <contour>
      <point x="69" y="67" type="curve" smooth="yes" name="hr00"/>
      <point x="69" y="113"/>
      <point x="105" y="151"/>
      <point x="152" y="151" type="curve" smooth="yes"/>
      <point x="198" y="151"/>
      <point x="234" y="113"/>
      <point x="234" y="67" type="curve" smooth="yes"/>
      <point x="234" y="21"/>
      <point x="198" y="-15"/>
      <point x="152" y="-15" type="curve" smooth="yes"/>
      <point x="105" y="-15"/>
      <point x="69" y="21"/>
    </contour>
    <contour>
      <point x="69" y="426" type="curve" smooth="yes"/>
      <point x="69" y="472"/>
      <point x="105" y="510"/>
      <point x="152" y="510" type="curve" smooth="yes"/>
      <point x="198" y="510"/>
      <point x="234" y="472"/>
      <point x="234" y="426" type="curve" smooth="yes"/>
      <point x="234" y="380"/>
      <point x="198" y="344"/>
      <point x="152" y="344" type="curve" smooth="yes"/>
      <point x="105" y="344"/>
      <point x="69" y="380"/>
    </contour>
  </outline>
</glyph>
<glyph name="semicolon" format="1">
  <advance width="299"/>
  <unicode hex="003B"/>
  <outline>
    <contour>
      <point x="69" y="426" type="curve" smooth="yes"/>
      <point x="69" y="472"/>
      <point x="105" y="510"/>
      <point x="152" y="510" type="curve" smooth="yes"/>
      <point x="198" y="510"/>
      <point x="234" y="472"/>
      <point x="234" y="426" type="curve" smooth="yes"/>
      <point x="234" y="380"/>
      <point x="198" y="344"/>
      <point x="152" y="344" type="curve" smooth="yes"/>
      <point x="105" y="344"/>
      <point x="69" y="380"/>
    </contour>
    <contour>
      <point x="90" y="98" type="line" name="hr01"/>
      <point x="212" y="98" type="line"/>
      <point x="212" y="20" type="line" smooth="yes"/>
      <point x="212" y="-72"/>
      <point x="177" y="-147"/>
      <point x="90" y="-128" type="curve"/>
    </contour>
  </outline>
</glyph>
<glyph name="less" format="1">
  <advance width="613"/>
  <unicode hex="003C"/>
  <outline>
    <contour>
      <point x="554" y="131" type="line" name="hr00"/>
      <point x="554" y="0" type="line"/>
      <point x="37" y="231" type="line"/>
      <point x="37" y="321" type="line"/>
      <point x="554" y="552" type="line"/>
      <point x="554" y="422" type="line"/>
      <point x="207" y="283" type="line"/>
      <point x="181" y="276" type="line"/>
      <point x="207" y="270" type="line"/>
    </contour>
  </outline>
</glyph>
<glyph name="greater" format="1">
  <advance width="613"/>
  <unicode hex="003E"/>
  <outline>
    <contour>
      <point x="402" y="270" type="line" name="hr00"/>
      <point x="428" y="276" type="line"/>
      <point x="402" y="283" type="line"/>
      <point x="55" y="422" type="line"/>
      <point x="55" y="552" type="line"/>
      <point x="572" y="321" type="line"/>
      <point x="572" y="231" type="line"/>
      <point x="55" y="0" type="line"/>
      <point x="55" y="131" type="line"/>
    </contour>
  </outline>
</glyph>
<glyph name="question" format="1">
  <advance width="583"/>
  <unicode hex="003F"/>
  <outline>
    <contour>
      <point x="265" y="737" type="curve" smooth="yes"/>
      <point x="398" y="737"/>
      <point x="493" y="678"/>
      <point x="493" y="574" type="curve" smooth="yes"/>
      <point x="493" y="433"/>
      <point x="300" y="362"/>
      <point x="300" y="230" type="curve"/>
      <point x="182" y="230" type="line"/>
      <point x="182" y="412"/>
      <point x="350" y="460"/>
      <point x="350" y="559" type="curve" smooth="yes"/>
      <point x="350" y="604"/>
      <point x="312" y="633"/>
      <point x="255" y="633" type="curve"/>
      <point x="217" y="633"/>
      <point x="185" y="629"/>
      <point x="121" y="602" type="curve"/>
      <point x="85" y="696" type="line"/>
      <point x="159" y="729"/>
      <point x="210" y="737"/>
    </contour>
    <contour>
      <point x="158" y="68" type="curve" smooth="yes" name="hr01"/>
      <point x="158" y="114"/>
      <point x="194" y="152"/>
      <point x="241" y="152" type="curve" smooth="yes"/>
      <point x="287" y="152"/>
      <point x="323" y="114"/>
      <point x="323" y="68" type="curve" smooth="yes"/>
      <point x="323" y="22"/>
      <point x="287" y="-14"/>
      <point x="241" y="-14" type="curve" smooth="yes"/>
      <point x="194" y="-14"/>
      <point x="158" y="22"/>
    </contour>
  </outline>
</glyph>
<glyph name="at" format="1">
  <advance width="919"/>
  <unicode hex="0040"/>
  <outline>
    <contour>
      <point x="629" y="170" type="line" name="hr00"/>
      <point x="627" y="149" type="line"/>
      <point x="641" y="161" type="line"/>
      <point x="702" y="202"/>
      <point x="728" y="273"/>
      <point x="728" y="328" type="curve" smooth="yes"/>
      <point x="728" y="472"/>
      <point x="618" y="564"/>
      <point x="461" y="564" type="curve" smooth="yes"/>
      <point x="290" y="564"/>
      <point x="173" y="448"/>
      <point x="173" y="257" type="curve" smooth="yes"/>
      <point x="173" y="67"/>
      <point x="290" y="-48"/>
      <point x="447" y="-48" type="curve" smooth="yes"/>
      <point x="505" y="-48"/>
      <point x="548" y="-44"/>
      <point x="630" y="-19" type="curve"/>
      <point x="659" y="-96" type="line"/>
      <point x="564" y="-128"/>
      <point x="513" y="-132"/>
      <point x="447" y="-132" type="curve" smooth="yes"/>
      <point x="243" y="-132"/>
      <point x="75" y="-11"/>
      <point x="75" y="257" type="curve" smooth="yes"/>
      <point x="75" y="506"/>
      <point x="260" y="648"/>
      <point x="462" y="648" type="curve" smooth="yes"/>
      <point x="653" y="648"/>
      <point x="827" y="534"/>
      <point x="827" y="328" type="curve" smooth="yes"/>
      <point x="827" y="196"/>
      <point x="715" y="81"/>
      <point x="568" y="55" type="curve"/>
      <point x="553" y="63"/>
      <point x="547" y="79"/>
      <point x="541" y="96" type="curve"/>
      <point x="539" y="115" type="line"/>
      <point x="529" y="95" type="line"/>
      <point x="490" y="56"/>
      <point x="454" y="47"/>
      <point x="418" y="47" type="curve" smooth="yes"/>
      <point x="337" y="47"/>
      <point x="284" y="91"/>
      <point x="284" y="158" type="curve" smooth="yes"/>
      <point x="284" y="237"/>
      <point x="342" y="280"/>
      <point x="500" y="295" type="curve"/>
      <point x="498" y="277"/>
      <point x="484" y="225"/>
      <point x="444" y="219" type="curve" smooth="yes"/>
      <point x="389" y="211"/>
      <point x="379" y="187"/>
      <point x="379" y="162" type="curve" smooth="yes"/>
      <point x="379" y="136"/>
      <point x="401" y="118"/>
      <point x="438" y="118" type="curve" smooth="yes"/>
      <point x="472" y="118"/>
      <point x="505" y="134"/>
      <point x="536" y="175" type="curve"/>
      <point x="536" y="304" type="line"/>
      <point x="536" y="365"/>
      <point x="502" y="389"/>
      <point x="444" y="389" type="curve" smooth="yes"/>
      <point x="416" y="389"/>
      <point x="393" y="386"/>
      <point x="349" y="372" type="curve"/>
      <point x="323" y="439" type="line"/>
      <point x="377" y="460"/>
      <point x="416" y="466"/>
      <point x="458" y="466" type="curve" smooth="yes"/>
      <point x="567" y="466"/>
      <point x="629" y="410"/>
      <point x="629" y="299" type="curve"/>
    </contour>
  </outline>
</glyph>
<glyph name="A" format="1">
  <advance width="722"/>
  <unicode hex="0041"/>
  <outline>
    <contour>
      <point x="224" y="159" type="line" name="hr00"/>
      <point x="171" y="0" type="line"/>
      <point x="30" y="0" type="line"/>
      <point x="291" y="727" type="line"/>
      <point x="431" y="727" type="line"/>
      <point x="692" y="0" type="line"/>
      <point x="544" y="0" type="line"/>
      <point x="364" y="541" type="line"/>
      <point x="356" y="578" type="line"/>
      <point x="347" y="539" type="line"/>
      <point x="262" y="280" type="line"/>
      <point x="250" y="260" type="line"/>
      <point x="265" y="262" type="line"/>
      <point x="341" y="262" type="line" smooth="yes"/>
      <point x="399" y="262"/>
      <point x="427" y="203"/>
      <point x="441" y="159" type="curve"/>
    </contour>
  </outline>
</glyph>
<glyph name="B" format="1">
  <advance width="677"/>
  <unicode hex="0042"/>
  <outline>
    <contour>
      <point x="311" y="428" type="line"/>
      <point x="380" y="428"/>
      <point x="443" y="471"/>
      <point x="443" y="534" type="curve" smooth="yes"/>
      <point x="443" y="581"/>
      <point x="406" y="639"/>
      <point x="311" y="639" type="curve" smooth="yes"/>
      <point x="275" y="639"/>
      <point x="257" y="637"/>
      <point x="221" y="632" type="curve"/>
      <point x="221" y="428" type="line"/>
    </contour>
    <contour>
      <point x="360" y="90" type="curve" smooth="yes"/>
      <point x="431" y="90"/>
      <point x="483" y="132"/>
      <point x="483" y="206" type="curve" smooth="yes" name="hr01"/>
      <point x="483" y="285"/>
      <point x="410" y="334"/>
      <point x="311" y="334" type="curve" smooth="yes"/>
      <point x="221" y="334" type="line"/>
      <point x="221" y="0" type="line"/>
      <point x="81" y="0" type="line"/>
      <point x="81" y="716" type="line"/>
      <point x="188" y="734"/>
      <point x="239" y="740"/>
      <point x="311" y="740" type="curve" smooth="yes"/>
      <point x="491" y="740"/>
      <point x="587" y="658"/>
      <point x="587" y="535" type="curve" name="hr02"/>
      <point x="587" y="486"/>
      <point x="553" y="433"/>
      <point x="504" y="402" type="curve"/>
      <point x="475" y="388" type="line"/>
      <point x="503" y="381" type="line"/>
      <point x="576" y="355"/>
      <point x="630" y="277"/>
      <point x="630" y="205" type="curve" smooth="yes" name="hr03"/>
      <point x="630" y="102"/>
      <point x="533" y="-11"/>
      <point x="376" y="-11" type="curve" smooth="yes"/>
      <point x="339" y="-11"/>
      <point x="318" y="-8"/>
      <point x="260" y="6" type="curve"/>
      <point x="276" y="41"/>
      <point x="306" y="90"/>
    </contour>
  </outline>
</glyph>
<glyph name="C" format="1">
  <advance width="602"/>
  <unicode hex="0043"/>
  <outline>
    <contour>
      <point x="435" y="-12" type="curve" name="hr00"/>
      <point x="188" y="-12"/>
      <point x="48" y="153"/>
      <point x="48" y="364" type="curve"/>
      <point x="48" y="572"/>
      <point x="194" y="740"/>
      <point x="435" y="740" type="curve" smooth="yes"/>
      <point x="491" y="740"/>
      <point x="548" y="730"/>
      <point x="611" y="706" type="curve"/>
      <point x="575" y="614" type="line"/>
      <point x="516" y="631"/>
      <point x="481" y="637"/>
      <point x="435" y="637" type="curve" smooth="yes"/>
      <point x="276" y="637"/>
      <point x="200" y="502"/>
      <point x="200" y="364" type="curve"/>
      <point x="200" y="226"/>
      <point x="276" y="91"/>
      <point x="435" y="91" type="curve"/>
      <point x="481" y="91"/>
      <point x="525" y="102"/>
      <point x="574" y="125" type="curve"/>
      <point x="611" y="34" type="line"/>
      <point x="552" y="3"/>
      <point x="491" y="-12"/>
    </contour>
  </outline>
</glyph>
<glyph name="D" format="1">
  <advance width="747"/>
  <unicode hex="0044"/>
  <outline>
    <contour>
      <point x="363" y="91" type="curve" smooth="yes"/>
      <point x="516" y="91"/>
      <point x="582" y="231"/>
      <point x="582" y="365" type="curve" smooth="yes"/>
      <point x="582" y="522"/>
      <point x="503" y="637"/>
      <point x="310" y="637" type="curve" smooth="yes"/>
      <point x="284" y="637"/>
      <point x="255" y="634"/>
      <point x="224" y="629" type="curve"/>
      <point x="224" y="0" type="line" name="hr01"/>
      <point x="83" y="0" type="line"/>
      <point x="83" y="714" type="line"/>
      <point x="172" y="733"/>
      <point x="252" y="740"/>
      <point x="310" y="740" type="curve" smooth="yes"/>
      <point x="576" y="740"/>
      <point x="733" y="602"/>
      <point x="733" y="365" type="curve" smooth="yes"/>
      <point x="733" y="154"/>
      <point x="582" y="-12"/>
      <point x="378" y="-12" type="curve" name="hr02"/>
      <point x="341" y="-12"/>
      <point x="320" y="-10"/>
      <point x="262" y="5" type="curve"/>
      <point x="278" y="40"/>
      <point x="308" y="91"/>
    </contour>
  </outline>
</glyph>
<glyph name="E" format="1">
  <advance width="588"/>
  <unicode hex="0045"/>
  <outline>
    <contour>
      <point x="83" y="727" type="line" name="hr00"/>
      <point x="519" y="727" type="line"/>
      <point x="519" y="624" type="line"/>
      <point x="226" y="624" type="line"/>
      <point x="226" y="103" type="line"/>
      <point x="535" y="103" type="line"/>
      <point x="535" y="0" type="line"/>
      <point x="83" y="0" type="line"/>
    </contour>
    <contour>
      <point x="264" y="331" type="line"/>
      <point x="277" y="375"/>
      <point x="306" y="432"/>
      <point x="364" y="432" type="curve"/>
      <point x="485" y="432" type="line"/>
      <point x="485" y="331" type="line"/>
    </contour>
  </outline>
</glyph>
<glyph name="F" format="1">
  <advance width="584"/>
  <unicode hex="0046"/>
  <outline>
    <contour>
      <point x="83" y="727" type="line" name="hr00"/>
      <point x="519" y="727" type="line"/>
      <point x="519" y="624" type="line"/>
      <point x="226" y="624" type="line"/>
      <point x="226" y="0" type="line"/>
      <point x="83" y="0" type="line"/>
    </contour>
    <contour>
      <point x="264" y="331" type="line"/>
      <point x="277" y="375"/>
      <point x="306" y="432"/>
      <point x="364" y="432" type="curve"/>
      <point x="485" y="432" type="line"/>
      <point x="485" y="331" type="line"/>
    </contour>
  </outline>
</glyph>
<glyph name="G" format="1">
  <advance width="724"/>
  <unicode hex="0047"/>
  <outline>
    <contour>
      <point x="441" y="637" type="curve" smooth="yes" name="hr00"/>
      <point x="282" y="637"/>
      <point x="194" y="508"/>
      <point x="194" y="363" type="curve" smooth="yes"/>
      <point x="194" y="225"/>
      <point x="279" y="91"/>
      <point x="438" y="91" type="curve" smooth="yes"/>
      <point x="467" y="91"/>
      <point x="492" y="92"/>
      <point x="534" y="102" type="curve"/>
      <point x="534" y="337" type="line"/>
      <point x="662" y="337" type="line"/>
      <point x="662" y="37" type="line"/>
      <point x="589" y="4"/>
      <point x="494" y="-12"/>
      <point x="438" y="-12" type="curve" smooth="yes"/>
      <point x="191" y="-12"/>
      <point x="42" y="154"/>
      <point x="42" y="363" type="curve" smooth="yes"/>
      <point x="42" y="573"/>
      <point x="197" y="740"/>
      <point x="441" y="740" type="curve" smooth="yes"/>
      <point x="497" y="740"/>
      <point x="576" y="728"/>
      <point x="652" y="696" type="curve"/>
      <point x="615" y="600" type="line"/>
      <point x="540" y="629"/>
      <point x="487" y="637"/>
    </contour>
  </outline>
</glyph>
<glyph name="H" format="1">
  <advance width="764"/>
  <unicode hex="0048"/>
  <outline>
    <contour>
      <point x="264" y="330" type="line" name="hr00"/>
      <point x="277" y="374"/>
      <point x="306" y="433"/>
      <point x="364" y="433" type="curve"/>
      <point x="541" y="433" type="line"/>
      <point x="541" y="727" type="line"/>
      <point x="682" y="727" type="line"/>
      <point x="682" y="0" type="line"/>
      <point x="541" y="0" type="line"/>
      <point x="541" y="330" type="line"/>
    </contour>
    <contour>
      <point x="83" y="727" type="line"/>
      <point x="226" y="727" type="line"/>
      <point x="226" y="0" type="line"/>
      <point x="83" y="0" type="line"/>
    </contour>
  </outline>
</glyph>
<glyph name="I" format="1">
  <advance width="306"/>
  <unicode hex="0049"/>
  <outline>
    <contour>
      <point x="222" y="0" type="line" name="hr00"/>
      <point x="83" y="0" type="line"/>
      <point x="83" y="727" type="line"/>
      <point x="222" y="727" type="line"/>
    </contour>
  </outline>
</glyph>
<glyph name="J" format="1">
  <advance width="369"/>
  <unicode hex="004A"/>
  <outline>
    <contour>
      <point x="290" y="128" type="line" name="hr00"/>
      <point x="290" y="-58"/>
      <point x="208" y="-119"/>
      <point x="54" y="-222" type="curve"/>
      <point x="-10" y="-140" type="line"/>
      <point x="90" y="-58"/>
      <point x="148" y="-10"/>
      <point x="148" y="128" type="curve"/>
      <point x="148" y="727" type="line"/>
      <point x="290" y="727" type="line"/>
    </contour>
  </outline>
</glyph>
<glyph name="K" format="1">
  <advance width="709"/>
  <unicode hex="004B"/>
  <outline>
    <contour>
      <point x="434" y="436" type="line" name="hr00"/>
      <point x="693" y="0" type="line"/>
      <point x="529" y="0" type="line"/>
      <point x="365" y="322" type="line"/>
      <point x="358" y="346" type="line"/>
      <point x="346" y="324" type="line"/>
      <point x="283" y="243" type="line"/>
      <point x="260" y="332"/>
      <point x="289" y="433"/>
      <point x="336" y="497" type="curve" smooth="yes"/>
      <point x="501" y="727" type="line"/>
      <point x="658" y="727" type="line"/>
    </contour>
    <contour>
      <point x="83" y="0" type="line"/>
      <point x="83" y="727" type="line"/>
      <point x="226" y="727" type="line"/>
      <point x="226" y="0" type="line"/>
    </contour>
  </outline>
</glyph>
<glyph name="L" format="1">
  <advance width="531"/>
  <unicode hex="004C"/>
  <outline>
    <contour>
      <point x="82" y="727" type="line" name="hr00"/>
      <point x="226" y="727" type="line"/>
      <point x="226" y="104" type="line"/>
      <point x="488" y="104" type="line"/>
      <point x="488" y="0" type="line"/>
      <point x="82" y="0" type="line"/>
    </contour>
  </outline>
</glyph>
<glyph name="M" format="1">
  <advance width="982"/>
  <unicode hex="004D"/>
  <outline>
    <contour>
      <point x="144" y="727" type="line" name="hr00"/>
      <point x="325" y="727" type="line"/>
      <point x="484" y="166" type="line"/>
      <point x="491" y="130" type="line"/>
      <point x="499" y="166" type="line"/>
      <point x="657" y="727" type="line"/>
      <point x="839" y="727" type="line"/>
      <point x="907" y="0" type="line"/>
      <point x="776" y="0" type="line"/>
      <point x="737" y="548" type="line"/>
      <point x="734" y="596" type="line"/>
      <point x="722" y="548" type="line"/>
      <point x="564" y="10" type="line"/>
      <point x="417" y="10" type="line"/>
      <point x="257" y="549" type="line"/>
      <point x="245" y="596" type="line"/>
      <point x="242" y="549" type="line"/>
      <point x="205" y="0" type="line"/>
      <point x="74" y="0" type="line"/>
    </contour>
  </outline>
</glyph>
<glyph name="N" format="1">
  <advance width="778"/>
  <unicode hex="004E"/>
  <outline>
    <contour>
      <point x="230" y="509" type="line" name="hr00"/>
      <point x="214" y="545" type="line"/>
      <point x="216" y="511" type="line"/>
      <point x="216" y="0" type="line"/>
      <point x="94" y="0" type="line"/>
      <point x="94" y="727" type="line"/>
      <point x="232" y="727" type="line"/>
      <point x="539" y="238" type="line"/>
      <point x="553" y="198" type="line"/>
      <point x="551" y="238" type="line"/>
      <point x="551" y="727" type="line"/>
      <point x="677" y="727" type="line"/>
      <point x="677" y="0" type="line"/>
      <point x="551" y="0" type="line"/>
    </contour>
  </outline>
</glyph>
<glyph name="O" format="1">
  <advance width="789"/>
  <unicode hex="004F"/>
  <outline>
    <contour>
      <point x="405" y="639" type="curve" name="hr00"/>
      <point x="267" y="639"/>
      <point x="195" y="512"/>
      <point x="195" y="364" type="curve"/>
      <point x="195" y="226"/>
      <point x="267" y="89"/>
      <point x="405" y="89" type="curve"/>
      <point x="515" y="89"/>
      <point x="615" y="189"/>
      <point x="615" y="364" type="curve"/>
      <point x="615" y="521"/>
      <point x="537" y="639"/>
    </contour>
    <contour>
      <point x="405" y="-14" type="curve"/>
      <point x="174" y="-14"/>
      <point x="43" y="149"/>
      <point x="43" y="364" type="curve"/>
      <point x="43" y="573"/>
      <point x="176" y="742"/>
      <point x="405" y="742" type="curve"/>
      <point x="666" y="742"/>
      <point x="766" y="541"/>
      <point x="766" y="364" type="curve"/>
      <point x="766" y="168"/>
      <point x="637" y="-14"/>
    </contour>
  </outline>
</glyph>
<glyph name="P" format="1">
  <advance width="643"/>
  <unicode hex="0050"/>
  <outline>
    <contour>
      <point x="597" y="513" type="curve" smooth="yes" name="hr00"/>
      <point x="597" y="380"/>
      <point x="484" y="300"/>
      <point x="365" y="289" type="curve" smooth="yes"/>
      <point x="335" y="286"/>
      <point x="301" y="287"/>
      <point x="264" y="298" type="curve"/>
      <point x="279" y="336"/>
      <point x="305" y="385"/>
      <point x="350" y="389" type="curve" smooth="yes"/>
      <point x="405" y="394"/>
      <point x="450" y="448"/>
      <point x="450" y="513" type="curve"/>
      <point x="450" y="582"/>
      <point x="394" y="638"/>
      <point x="311" y="638" type="curve" smooth="yes"/>
      <point x="275" y="638"/>
      <point x="263" y="636"/>
      <point x="227" y="632" type="curve"/>
      <point x="227" y="0" type="line"/>
      <point x="83" y="0" type="line"/>
      <point x="83" y="718" type="line"/>
      <point x="191" y="736"/>
      <point x="239" y="741"/>
      <point x="311" y="741" type="curve"/>
      <point x="473" y="741"/>
      <point x="597" y="654"/>
    </contour>
  </outline>
</glyph>
<glyph name="Q" format="1">
  <advance width="781"/>
  <unicode hex="0051"/>
  <outline>
    <contour>
      <point x="394" y="-14" type="curve"/>
      <point x="179" y="-14"/>
      <point x="43" y="143"/>
      <point x="43" y="364" type="curve"/>
      <point x="43" y="582"/>
      <point x="184" y="742"/>
      <point x="405" y="742" type="curve"/>
      <point x="630" y="742"/>
      <point x="766" y="584"/>
      <point x="766" y="364" type="curve" smooth="yes"/>
      <point x="766" y="273"/>
      <point x="729" y="183"/>
      <point x="675" y="114" type="curve"/>
      <point x="737" y="50" type="line"/>
      <point x="661" y="-26" type="line" name="hr01"/>
      <point x="414" y="226" type="line"/>
      <point x="490" y="303" type="line"/>
      <point x="570" y="221" type="line"/>
      <point x="583" y="200" type="line"/>
      <point x="589" y="226" type="line"/>
      <point x="607" y="268"/>
      <point x="615" y="319"/>
      <point x="615" y="364" type="curve" smooth="yes"/>
      <point x="615" y="512"/>
      <point x="543" y="639"/>
      <point x="405" y="639" type="curve"/>
      <point x="267" y="639"/>
      <point x="195" y="512"/>
      <point x="195" y="364" type="curve"/>
      <point x="195" y="226"/>
      <point x="267" y="89"/>
      <point x="394" y="89" type="curve" name="hr02"/>
      <point x="403" y="89"/>
      <point x="423" y="91"/>
      <point x="435" y="91" type="curve" smooth="yes"/>
      <point x="479" y="91"/>
      <point x="519" y="58"/>
      <point x="540" y="34" type="curve"/>
      <point x="492" y="2"/>
      <point x="440" y="-14"/>
    </contour>
  </outline>
</glyph>
<glyph name="R" format="1">
  <advance width="684"/>
  <unicode hex="0052"/>
  <outline>
    <contour>
      <point x="597" y="518" type="curve" smooth="yes" name="hr00"/>
      <point x="597" y="439"/>
      <point x="557" y="379"/>
      <point x="498" y="343" type="curve"/>
      <point x="470" y="332" type="line"/>
      <point x="475" y="329"/>
      <point x="487" y="325"/>
      <point x="492" y="321" type="curve" smooth="yes"/>
      <point x="573" y="252"/>
      <point x="569" y="128"/>
      <point x="628" y="0" type="curve"/>
      <point x="481" y="0" type="line"/>
      <point x="434" y="102"/>
      <point x="433" y="241"/>
      <point x="358" y="299" type="curve"/>
      <point x="330" y="297"/>
      <point x="298" y="298"/>
      <point x="264" y="308" type="curve"/>
      <point x="279" y="346"/>
      <point x="305" y="396"/>
      <point x="350" y="400" type="curve" smooth="yes"/>
      <point x="405" y="405"/>
      <point x="450" y="453"/>
      <point x="450" y="518" type="curve" smooth="yes"/>
      <point x="450" y="587"/>
      <point x="389" y="638"/>
      <point x="311" y="638" type="curve" smooth="yes"/>
      <point x="275" y="638"/>
      <point x="263" y="636"/>
      <point x="227" y="632" type="curve"/>
      <point x="227" y="0" type="line"/>
      <point x="83" y="0" type="line"/>
      <point x="83" y="718" type="line"/>
      <point x="191" y="736"/>
      <point x="239" y="741"/>
      <point x="311" y="741" type="curve" smooth="yes"/>
      <point x="468" y="741"/>
      <point x="597" y="659"/>
    </contour>
  </outline>
</glyph>
<glyph name="S" format="1">
  <advance width="577"/>
  <unicode hex="0053"/>
  <outline>
    <contour>
      <point x="289" y="640" type="curve" name="hr00"/>
      <point x="229" y="640"/>
      <point x="190" y="607"/>
      <point x="190" y="562" type="curve" smooth="yes"/>
      <point x="190" y="426"/>
      <point x="531" y="420"/>
      <point x="531" y="188" type="curve" smooth="yes"/>
      <point x="531" y="59"/>
      <point x="428" y="-13"/>
      <point x="276" y="-13" type="curve"/>
      <point x="219" y="-13"/>
      <point x="142" y="0"/>
      <point x="51" y="42" type="curve"/>
      <point x="89" y="135" type="line"/>
      <point x="161" y="101"/>
      <point x="225" y="90"/>
      <point x="276" y="90" type="curve"/>
      <point x="347" y="90"/>
      <point x="399" y="133"/>
      <point x="399" y="185" type="curve" smooth="yes"/>
      <point x="399" y="330"/>
      <point x="60" y="332"/>
      <point x="60" y="550" type="curve" smooth="yes"/>
      <point x="60" y="681"/>
      <point x="161" y="740"/>
      <point x="280" y="740" type="curve"/>
      <point x="341" y="740"/>
      <point x="392" y="734"/>
      <point x="476" y="707" type="curve"/>
      <point x="439" y="616" type="line"/>
      <point x="380" y="633"/>
      <point x="333" y="640"/>
    </contour>
  </outline>
</glyph>
<glyph name="T" format="1">
  <advance width="534"/>
  <unicode hex="0054"/>
  <outline>
    <contour>
      <point x="5" y="624" type="line" name="hr00"/>
      <point x="5" y="727" type="line"/>
      <point x="527" y="727" type="line"/>
      <point x="527" y="624" type="line"/>
      <point x="337" y="624" type="line"/>
      <point x="337" y="0" type="line"/>
      <point x="195" y="0" type="line"/>
      <point x="195" y="624" type="line"/>
    </contour>
  </outline>
</glyph>
<glyph name="U" format="1">
  <advance width="727"/>
  <unicode hex="0055"/>
  <outline>
    <contour>
      <point x="374" y="-14" type="curve" smooth="yes" name="hr00"/>
      <point x="195" y="-14"/>
      <point x="83" y="89"/>
      <point x="83" y="278" type="curve" smooth="yes"/>
      <point x="83" y="727" type="line"/>
      <point x="224" y="727" type="line"/>
      <point x="224" y="263" type="line" smooth="yes"/>
      <point x="224" y="154"/>
      <point x="288" y="89"/>
      <point x="374" y="89" type="curve" smooth="yes"/>
      <point x="459" y="89"/>
      <point x="524" y="154"/>
      <point x="524" y="263" type="curve" smooth="yes"/>
      <point x="524" y="727" type="line"/>
      <point x="664" y="727" type="line"/>
      <point x="664" y="278" type="line" smooth="yes"/>
      <point x="664" y="101"/>
      <point x="553" y="-14"/>
    </contour>
  </outline>
</glyph>
<glyph name="V" format="1">
  <advance width="667"/>
  <unicode hex="0056"/>
  <outline>
    <contour>
      <point x="263" y="0" type="line" name="hr00"/>
      <point x="8" y="727" type="line"/>
      <point x="160" y="727" type="line"/>
      <point x="331" y="175" type="line"/>
      <point x="338" y="137" type="line"/>
      <point x="345" y="174" type="line"/>
      <point x="516" y="727" type="line"/>
      <point x="663" y="727" type="line"/>
      <point x="410" y="0" type="line"/>
    </contour>
  </outline>
</glyph>
<glyph name="W" format="1">
  <advance width="1059"/>
  <unicode hex="0057"/>
  <outline>
    <contour>
      <point x="611" y="717" type="line" name="hr00"/>
      <point x="739" y="194" type="line"/>
      <point x="749" y="138" type="line"/>
      <point x="757" y="192" type="line"/>
      <point x="892" y="727" type="line"/>
      <point x="1028" y="727" type="line"/>
      <point x="823" y="0" type="line"/>
      <point x="682" y="0" type="line"/>
      <point x="540" y="535" type="line"/>
      <point x="531" y="576" type="line"/>
      <point x="523" y="536" type="line"/>
      <point x="381" y="0" type="line"/>
      <point x="237" y="0" type="line"/>
      <point x="31" y="727" type="line"/>
      <point x="170" y="727" type="line"/>
      <point x="305" y="193" type="line"/>
      <point x="313" y="138" type="line"/>
      <point x="324" y="193" type="line"/>
      <point x="454" y="717" type="line"/>
    </contour>
  </outline>
</glyph>
<glyph name="X" format="1">
  <advance width="661"/>
  <unicode hex="0058"/>
  <outline>
    <contour>
      <point x="40" y="727" type="line" name="hr00"/>
      <point x="198" y="727" type="line"/>
      <point x="321" y="488" type="line"/>
      <point x="331" y="457" type="line"/>
      <point x="339" y="488" type="line"/>
      <point x="462" y="727" type="line"/>
      <point x="619" y="727" type="line"/>
      <point x="402" y="368" type="line"/>
      <point x="630" y="0" type="line"/>
      <point x="475" y="0" type="line"/>
    </contour>
    <contour>
      <point x="182" y="0" type="line"/>
      <point x="29" y="0" type="line"/>
      <point x="227" y="325" type="line"/>
      <point x="252" y="291"/>
      <point x="297" y="207"/>
      <point x="263" y="145" type="curve"/>
    </contour>
  </outline>
</glyph>
<glyph name="Y" format="1">
  <advance width="699"/>
  <unicode hex="0059"/>
  <outline>
    <contour>
      <point x="414" y="339" type="line" name="hr00"/>
      <point x="414" y="0" type="line"/>
      <point x="276" y="0" type="line"/>
      <point x="276" y="322" type="line"/>
      <point x="25" y="727" type="line"/>
      <point x="181" y="727" type="line"/>
    </contour>
    <contour>
      <point x="502" y="727" type="line"/>
      <point x="656" y="727" type="line"/>
      <point x="444" y="377" type="line"/>
      <point x="418" y="411"/>
      <point x="374" y="493"/>
      <point x="408" y="557" type="curve"/>
    </contour>
  </outline>
</glyph>
<glyph name="Z" format="1">
  <advance width="612"/>
  <unicode hex="005A"/>
  <outline>
    <contour>
      <point x="78" y="727" type="line" name="hr00"/>
      <point x="584" y="727" type="line"/>
      <point x="584" y="668" type="line"/>
      <point x="228" y="115" type="line"/>
      <point x="212" y="100" type="line"/>
      <point x="235" y="103" type="line"/>
      <point x="593" y="103" type="line"/>
      <point x="593" y="0" type="line"/>
      <point x="47" y="0" type="line"/>
      <point x="47" y="59" type="line"/>
      <point x="402" y="612" type="line"/>
      <point x="418" y="629" type="line"/>
      <point x="394" y="626" type="line"/>
      <point x="78" y="626" type="line"/>
    </contour>
  </outline>
</glyph>
<glyph name="bracketleft" format="1">
  <advance width="447"/>
  <unicode hex="005B"/>
  <outline>
    <contour>
      <point x="122" y="771" type="line" name="hr00"/>
      <point x="425" y="771" type="line"/>
      <point x="425" y="667" type="line"/>
      <point x="254" y="667" type="line"/>
      <point x="254" y="-95" type="line"/>
      <point x="425" y="-95" type="line"/>
      <point x="425" y="-199" type="line"/>
      <point x="122" y="-199" type="line"/>
    </contour>
  </outline>
</glyph>
<glyph name="bracketright" format="1">
  <advance width="447"/>
  <unicode hex="005D"/>
  <outline>
    <contour>
      <point x="343" y="-199" type="line" name="hr00"/>
      <point x="40" y="-199" type="line"/>
      <point x="40" y="-95" type="line"/>
      <point x="211" y="-95" type="line"/>
      <point x="211" y="667" type="line"/>
      <point x="40" y="667" type="line"/>
      <point x="40" y="771" type="line"/>
      <point x="343" y="771" type="line"/>
    </contour>
  </outline>
</glyph>
<glyph name="asciicircum" format="1">
  <advance width="628"/>
  <unicode hex="005E"/>
  <outline>
    <contour>
      <point x="183" y="210" type="line" name="hr00"/>
      <point x="54" y="210" type="line"/>
      <point x="265" y="727" type="line"/>
      <point x="366" y="727" type="line"/>
      <point x="577" y="210" type="line"/>
      <point x="450" y="210" type="line"/>
      <point x="323" y="543" type="line"/>
      <point x="316" y="574" type="line"/>
      <point x="309" y="543" type="line"/>
    </contour>
  </outline>
</glyph>
<glyph name="grave" format="1">
  <advance width="196"/>
  <unicode hex="0060"/>
  <outline>
    <contour>
      <point x="20" y="727" type="line" name="hr00"/>
      <point x="127" y="727" type="line"/>
      <point x="193" y="602" type="line"/>
      <point x="153" y="591"/>
      <point x="117" y="599"/>
      <point x="92" y="631" type="curve"/>
    </contour>
  </outline>
</glyph>
<glyph name="a" format="1">
  <advance width="542"/>
  <unicode hex="0061"/>
  <outline>
    <contour>
      <point x="398" y="0" type="line"/>
      <point x="380" y="10"/>
      <point x="369" y="30"/>
      <point x="361" y="50" type="curve"/>
      <point x="358" y="70" type="line"/>
      <point x="346" y="53" type="line"/>
      <point x="286" y="-2"/>
      <point x="246" y="-13"/>
      <point x="195" y="-13" type="curve" smooth="yes" name="hr01"/>
      <point x="99" y="-13"/>
      <point x="40" y="59"/>
      <point x="40" y="138" type="curve" smooth="yes"/>
      <point x="40" y="221"/>
      <point x="103" y="297"/>
      <point x="314" y="313" type="curve"/>
      <point x="307" y="266"/>
      <point x="288" y="228"/>
      <point x="246" y="220" type="curve" smooth="yes"/>
      <point x="196" y="212"/>
      <point x="174" y="184"/>
      <point x="174" y="151" type="curve" smooth="yes"/>
      <point x="174" y="116"/>
      <point x="202" y="90"/>
      <point x="237" y="90" type="curve" smooth="yes"/>
      <point x="275" y="90"/>
      <point x="315" y="119"/>
      <point x="350" y="160" type="curve"/>
      <point x="350" y="311" type="line" smooth="yes"/>
      <point x="350" y="380"/>
      <point x="310" y="425"/>
      <point x="240" y="425" type="curve" smooth="yes"/>
      <point x="207" y="425"/>
      <point x="170" y="419"/>
      <point x="123" y="402" type="curve"/>
      <point x="89" y="490" type="line"/>
      <point x="148" y="517"/>
      <point x="216" y="528"/>
      <point x="263" y="528" type="curve" smooth="yes"/>
      <point x="405" y="528"/>
      <point x="485" y="451"/>
      <point x="485" y="311" type="curve" smooth="yes"/>
      <point x="485" y="126" type="line" smooth="yes"/>
      <point x="485" y="89"/>
      <point x="489" y="47"/>
      <point x="501" y="0" type="curve" name="hr02"/>
    </contour>
  </outline>
</glyph>
<glyph name="b" format="1">
  <advance width="610"/>
  <unicode hex="0062"/>
  <outline>
    <contour>
      <point x="330" y="425" type="curve" smooth="yes" name="hr00"/>
      <point x="286" y="423"/>
      <point x="268" y="461"/>
      <point x="248" y="502" type="curve"/>
      <point x="286" y="518"/>
      <point x="328" y="526"/>
      <point x="362" y="526" type="curve" smooth="yes"/>
      <point x="489" y="526"/>
      <point x="568" y="397"/>
      <point x="568" y="277" type="curve" smooth="yes"/>
      <point x="568" y="114"/>
      <point x="462" y="-15"/>
      <point x="293" y="-15" type="curve" smooth="yes"/>
      <point x="220" y="-15"/>
      <point x="154" y="0"/>
      <point x="73" y="42" type="curve"/>
      <point x="73" y="758" type="line"/>
      <point x="212" y="758" type="line"/>
      <point x="212" y="98" type="line"/>
      <point x="243" y="90"/>
      <point x="266" y="88"/>
      <point x="293" y="88" type="curve" smooth="yes"/>
      <point x="371" y="88"/>
      <point x="419" y="167"/>
      <point x="419" y="277" type="curve" smooth="yes"/>
      <point x="419" y="341"/>
      <point x="397" y="428"/>
    </contour>
  </outline>
</glyph>
<glyph name="c" format="1">
  <advance width="430"/>
  <unicode hex="0063"/>
  <outline>
    <contour>
      <point x="296" y="530" type="curve" name="hr00"/>
      <point x="332" y="530"/>
      <point x="377" y="523"/>
      <point x="417" y="508" type="curve"/>
      <point x="383" y="415" type="line"/>
      <point x="351" y="423"/>
      <point x="318" y="427"/>
      <point x="296" y="427" type="curve"/>
      <point x="224" y="427"/>
      <point x="176" y="363"/>
      <point x="176" y="259" type="curve" smooth="yes"/>
      <point x="176" y="154"/>
      <point x="224" y="90"/>
      <point x="296" y="90" type="curve"/>
      <point x="324" y="90"/>
      <point x="354" y="97"/>
      <point x="397" y="114" type="curve"/>
      <point x="431" y="22" type="line"/>
      <point x="379" y="-2"/>
      <point x="332" y="-13"/>
      <point x="296" y="-13" type="curve"/>
      <point x="157" y="-13"/>
      <point x="28" y="67"/>
      <point x="28" y="259" type="curve" smooth="yes"/>
      <point x="28" y="440"/>
      <point x="157" y="530"/>
    </contour>
  </outline>
</glyph>
<glyph name="d" format="1">
  <advance width="619"/>
  <unicode hex="0064"/>
  <outline>
    <contour>
      <point x="261" y="-13" type="curve"/>
      <point x="116" y="-13"/>
      <point x="32" y="104"/>
      <point x="32" y="262" type="curve"/>
      <point x="32" y="403"/>
      <point x="137" y="526"/>
      <point x="252" y="526" type="curve" smooth="yes"/>
      <point x="286" y="526"/>
      <point x="314" y="523"/>
      <point x="366" y="508" type="curve"/>
      <point x="348" y="462"/>
      <point x="324" y="431"/>
      <point x="291" y="428" type="curve" smooth="yes"/>
      <point x="209" y="423"/>
      <point x="180" y="356"/>
      <point x="180" y="262" type="curve"/>
      <point x="180" y="169"/>
      <point x="219" y="90"/>
      <point x="286" y="90" type="curve"/>
      <point x="324" y="90"/>
      <point x="360" y="112"/>
      <point x="402" y="160" type="curve"/>
      <point x="402" y="758" type="line"/>
      <point x="541" y="758" type="line"/>
      <point x="541" y="126" type="line"/>
      <point x="541" y="89"/>
      <point x="545" y="47"/>
      <point x="556" y="0" type="curve" name="hr01"/>
      <point x="449" y="0" type="line"/>
      <point x="432" y="9"/>
      <point x="421" y="28"/>
      <point x="414" y="47" type="curve"/>
      <point x="409" y="70" type="line"/>
      <point x="392" y="48" type="line"/>
      <point x="340" y="1"/>
      <point x="300" y="-13"/>
    </contour>
  </outline>
</glyph>
<glyph name="e" format="1">
  <advance width="564"/>
  <unicode hex="0065"/>
  <outline>
    <contour>
      <point x="388" y="317" type="line" name="hr00"/>
      <point x="396" y="378"/>
      <point x="361" y="433"/>
      <point x="300" y="433" type="curve" smooth="yes"/>
      <point x="245" y="433"/>
      <point x="183" y="386"/>
      <point x="183" y="272" type="curve" smooth="yes"/>
      <point x="183" y="157"/>
      <point x="240" y="90"/>
      <point x="324" y="90" type="curve" smooth="yes"/>
      <point x="370" y="90"/>
      <point x="412" y="101"/>
      <point x="470" y="127" type="curve"/>
      <point x="505" y="34" type="line"/>
      <point x="433" y="0"/>
      <point x="371" y="-13"/>
      <point x="309" y="-13" type="curve" smooth="yes"/>
      <point x="126" y="-13"/>
      <point x="45" y="132"/>
      <point x="45" y="267" type="curve" smooth="yes"/>
      <point x="45" y="432"/>
      <point x="162" y="530"/>
      <point x="307" y="530" type="curve" smooth="yes"/>
      <point x="455" y="530"/>
      <point x="560" y="407"/>
      <point x="501" y="235" type="curve"/>
      <point x="221" y="235" type="line"/>
      <point x="235" y="281"/>
      <point x="265" y="317"/>
      <point x="299" y="317" type="curve"/>
    </contour>
  </outline>
</glyph>
<glyph name="f" format="1">
  <advance width="437"/>
  <unicode hex="0066"/>
  <outline>
    <contour>
      <point x="105" y="418" type="line"/>
      <point x="22" y="418" type="line" name="hr01"/>
      <point x="22" y="497" type="line"/>
      <point x="105" y="517" type="line" name="hr02"/>
      <point x="105" y="545" type="line" smooth="yes"/>
      <point x="105" y="676"/>
      <point x="190" y="763"/>
      <point x="324" y="763" type="curve" smooth="yes"/>
      <point x="357" y="763"/>
      <point x="405" y="756"/>
      <point x="457" y="733" type="curve"/>
      <point x="426" y="644" type="line"/>
      <point x="387" y="655"/>
      <point x="362" y="660"/>
      <point x="339" y="660" type="curve" smooth="yes"/>
      <point x="274" y="660"/>
      <point x="237" y="614"/>
      <point x="237" y="545" type="curve" smooth="yes"/>
      <point x="237" y="0" type="line"/>
      <point x="105" y="0" type="line"/>
    </contour>
    <contour>
      <point x="415" y="517" type="line"/>
      <point x="415" y="418" type="line"/>
      <point x="271" y="418" type="line"/>
      <point x="284" y="462"/>
      <point x="313" y="517"/>
      <point x="371" y="517" type="curve"/>
    </contour>
  </outline>
</glyph>
<glyph name="g" format="1">
  <advance width="591"/>
  <unicode hex="0067"/>
  <outline>
    <contour>
      <point x="190" y="240" type="curve" name="hr00"/>
      <point x="190" y="176"/>
      <point x="208" y="93"/>
      <point x="276" y="95" type="curve" smooth="yes"/>
      <point x="316" y="96"/>
      <point x="335" y="64"/>
      <point x="357" y="26" type="curve"/>
      <point x="320" y="6"/>
      <point x="278" y="-9"/>
      <point x="244" y="-9" type="curve" smooth="yes"/>
      <point x="116" y="-9"/>
      <point x="41" y="121"/>
      <point x="41" y="240" type="curve"/>
      <point x="41" y="399"/>
      <point x="145" y="529"/>
      <point x="323" y="529" type="curve" smooth="yes"/>
      <point x="380" y="529"/>
      <point x="430" y="524"/>
      <point x="529" y="499" type="curve"/>
      <point x="529" y="0" type="line"/>
      <point x="529" y="-183"/>
      <point x="410" y="-250"/>
      <point x="264" y="-250" type="curve" smooth="yes"/>
      <point x="212" y="-250"/>
      <point x="144" y="-242"/>
      <point x="66" y="-208" type="curve"/>
      <point x="101" y="-115" type="line"/>
      <point x="168" y="-142"/>
      <point x="214" y="-150"/>
      <point x="256" y="-150" type="curve" smooth="yes"/>
      <point x="330" y="-150"/>
      <point x="393" y="-103"/>
      <point x="393" y="-11" type="curve"/>
      <point x="393" y="418" type="line"/>
      <point x="367" y="424"/>
      <point x="343" y="426"/>
      <point x="329" y="426" type="curve" smooth="yes"/>
      <point x="238" y="426"/>
      <point x="190" y="350"/>
    </contour>
  </outline>
</glyph>
<glyph name="h" format="1">
  <advance width="608"/>
  <unicode hex="0068"/>
  <outline>
    <contour>
      <point x="73" y="0" type="line" name="hr00"/>
      <point x="73" y="758" type="line"/>
      <point x="212" y="758" type="line"/>
      <point x="212" y="0" type="line"/>
    </contour>
    <contour>
      <point x="396" y="367" type="line"/>
      <point x="396" y="400"/>
      <point x="382" y="424"/>
      <point x="352" y="424" type="curve" smooth="yes"/>
      <point x="340" y="424"/>
      <point x="335" y="420"/>
      <point x="318" y="419" type="curve" smooth="yes"/>
      <point x="288" y="417"/>
      <point x="267" y="450"/>
      <point x="248" y="486" type="curve"/>
      <point x="313" y="523"/>
      <point x="359" y="530"/>
      <point x="396" y="530" type="curve" smooth="yes"/>
      <point x="465" y="530"/>
      <point x="535" y="478"/>
      <point x="535" y="369" type="curve" smooth="yes"/>
      <point x="535" y="0" type="line"/>
      <point x="396" y="0" type="line"/>
    </contour>
  </outline>
</glyph>
<glyph name="i" format="1">
  <advance width="280"/>
  <unicode hex="0069"/>
  <outline>
    <contour>
      <point x="70" y="0" type="line"/>
      <point x="70" y="517" type="line"/>
      <point x="210" y="517" type="line"/>
      <point x="210" y="0" type="line"/>
    </contour>
    <contour>
      <point x="58" y="667" type="curve" smooth="yes" name="hr01"/>
      <point x="58" y="714"/>
      <point x="94" y="751"/>
      <point x="140" y="751" type="curve" smooth="yes"/>
      <point x="186" y="751"/>
      <point x="222" y="714"/>
      <point x="222" y="667" type="curve" smooth="yes"/>
      <point x="222" y="621"/>
      <point x="186" y="585"/>
      <point x="140" y="585" type="curve" smooth="yes"/>
      <point x="94" y="585"/>
      <point x="58" y="621"/>
    </contour>
  </outline>
</glyph>
<glyph name="j" format="1">
  <advance width="295"/>
  <unicode hex="006A"/>
  <outline>
    <contour>
      <point x="222" y="48" type="line"/>
      <point x="222" y="-78"/>
      <point x="178" y="-147"/>
      <point x="24" y="-249" type="curve"/>
      <point x="-35" y="-176" type="line"/>
      <point x="64" y="-91"/>
      <point x="83" y="-50"/>
      <point x="83" y="48" type="curve" smooth="yes"/>
      <point x="83" y="517" type="line"/>
      <point x="222" y="517" type="line"/>
    </contour>
    <contour>
      <point x="71" y="667" type="curve" smooth="yes" name="hr01"/>
      <point x="71" y="714"/>
      <point x="107" y="751"/>
      <point x="153" y="751" type="curve" smooth="yes"/>
      <point x="200" y="751"/>
      <point x="236" y="714"/>
      <point x="236" y="667" type="curve" smooth="yes"/>
      <point x="236" y="621"/>
      <point x="200" y="585"/>
      <point x="153" y="585" type="curve" smooth="yes"/>
      <point x="107" y="585"/>
      <point x="71" y="621"/>
    </contour>
  </outline>
</glyph>
<glyph name="k" format="1">
  <advance width="624"/>
  <unicode hex="006B"/>
  <outline>
    <contour>
      <point x="212" y="0" type="line" name="hr00"/>
      <point x="73" y="0" type="line"/>
      <point x="73" y="758" type="line"/>
      <point x="212" y="758" type="line"/>
    </contour>
    <contour>
      <point x="407" y="338" type="line"/>
      <point x="606" y="0" type="line"/>
      <point x="452" y="0" type="line"/>
      <point x="334" y="233" type="line"/>
      <point x="327" y="257" type="line"/>
      <point x="313" y="237" type="line"/>
      <point x="259" y="180" type="line"/>
      <point x="244" y="272"/>
      <point x="276" y="349"/>
      <point x="324" y="408" type="curve" smooth="yes"/>
      <point x="414" y="517" type="line"/>
      <point x="575" y="517" type="line"/>
    </contour>
  </outline>
</glyph>
<glyph name="l" format="1">
  <advance width="282"/>
  <unicode hex="006C"/>
  <outline>
    <contour>
      <point x="214" y="0" type="line" name="hr00"/>
      <point x="75" y="0" type="line"/>
      <point x="75" y="758" type="line"/>
      <point x="214" y="758" type="line"/>
    </contour>
  </outline>
</glyph>
<glyph name="m" format="1">
  <advance width="930"/>
  <unicode hex="006D"/>
  <outline>
    <contour>
      <point x="176" y="517" type="line"/>
      <point x="208" y="481"/>
      <point x="215" y="447"/>
      <point x="215" y="407" type="curve" smooth="yes"/>
      <point x="215" y="0" type="line"/>
      <point x="75" y="0" type="line"/>
      <point x="75" y="391" type="line" smooth="yes"/>
      <point x="75" y="428"/>
      <point x="71" y="470"/>
      <point x="60" y="517" type="curve"/>
    </contour>
    <contour>
      <point x="394" y="367" type="line"/>
      <point x="394" y="400"/>
      <point x="384" y="424"/>
      <point x="350" y="424" type="curve" smooth="yes"/>
      <point x="338" y="424"/>
      <point x="327" y="420"/>
      <point x="311" y="419" type="curve" smooth="yes" name="hr01"/>
      <point x="279" y="417"/>
      <point x="255" y="452"/>
      <point x="237" y="488" type="curve"/>
      <point x="309" y="517"/>
      <point x="352" y="530"/>
      <point x="399" y="530" type="curve" smooth="yes"/>
      <point x="468" y="530"/>
      <point x="534" y="478"/>
      <point x="534" y="369" type="curve" smooth="yes"/>
      <point x="534" y="0" type="line"/>
      <point x="394" y="0" type="line"/>
    </contour>
    <contour>
      <point x="713" y="367" type="line"/>
      <point x="713" y="400"/>
      <point x="700" y="424"/>
      <point x="663" y="424" type="curve" smooth="yes"/>
      <point x="651" y="424"/>
      <point x="637" y="419"/>
      <point x="620" y="418" type="curve" smooth="yes"/>
      <point x="588" y="416"/>
      <point x="562" y="451"/>
      <point x="544" y="487" type="curve"/>
      <point x="617" y="517"/>
      <point x="663" y="530"/>
      <point x="710" y="530" type="curve" smooth="yes"/>
      <point x="779" y="530"/>
      <point x="852" y="478"/>
      <point x="852" y="369" type="curve" smooth="yes"/>
      <point x="852" y="0" type="line"/>
      <point x="713" y="0" type="line"/>
    </contour>
  </outline>
</glyph>
<glyph name="n" format="1">
  <advance width="578"/>
  <unicode hex="006E"/>
  <outline>
    <contour>
      <point x="153" y="517" type="line"/>
      <point x="185" y="481"/>
      <point x="193" y="447"/>
      <point x="193" y="407" type="curve" smooth="yes"/>
      <point x="193" y="0" type="line"/>
      <point x="53" y="0" type="line"/>
      <point x="53" y="391" type="line" smooth="yes"/>
      <point x="53" y="428"/>
      <point x="48" y="470"/>
      <point x="37" y="517" type="curve"/>
    </contour>
    <contour>
      <point x="376" y="367" type="line"/>
      <point x="376" y="400"/>
      <point x="364" y="424"/>
      <point x="330" y="424" type="curve" smooth="yes"/>
      <point x="317" y="424"/>
      <point x="307" y="419"/>
      <point x="288" y="418" type="curve" name="hr01"/>
      <point x="256" y="416"/>
      <point x="236" y="452"/>
      <point x="217" y="484" type="curve"/>
      <point x="283" y="519"/>
      <point x="330" y="530"/>
      <point x="376" y="530" type="curve" smooth="yes"/>
      <point x="445" y="530"/>
      <point x="515" y="478"/>
      <point x="515" y="369" type="curve" smooth="yes"/>
      <point x="515" y="0" type="line"/>
      <point x="376" y="0" type="line"/>
    </contour>
  </outline>
</glyph>
<glyph name="o" format="1">
  <advance width="610"/>
  <unicode hex="006F"/>
  <outline>
    <contour>
      <point x="570" y="259" type="curve" name="hr00"/>
      <point x="570" y="89"/>
      <point x="434" y="-13"/>
      <point x="302" y="-13" type="curve"/>
      <point x="161" y="-13"/>
      <point x="34" y="85"/>
      <point x="34" y="259" type="curve"/>
      <point x="34" y="447"/>
      <point x="187" y="530"/>
      <point x="302" y="530" type="curve"/>
      <point x="461" y="530"/>
      <point x="570" y="418"/>
    </contour>
    <contour>
      <point x="302" y="89" type="curve"/>
      <point x="380" y="89"/>
      <point x="421" y="165"/>
      <point x="421" y="259" type="curve" smooth="yes"/>
      <point x="421" y="352"/>
      <point x="380" y="428"/>
      <point x="302" y="428" type="curve" smooth="yes"/>
      <point x="224" y="428"/>
      <point x="182" y="352"/>
      <point x="182" y="259" type="curve"/>
      <point x="182" y="159"/>
      <point x="229" y="89"/>
    </contour>
  </outline>
</glyph>
<glyph name="p" format="1">
  <advance width="621"/>
  <unicode hex="0070"/>
  <outline>
    <contour>
      <point x="353" y="530" type="curve"/>
      <point x="497" y="530"/>
      <point x="582" y="413"/>
      <point x="582" y="255" type="curve"/>
      <point x="582" y="114"/>
      <point x="477" y="-9"/>
      <point x="362" y="-9" type="curve" smooth="yes"/>
      <point x="328" y="-9"/>
      <point x="300" y="-6"/>
      <point x="248" y="9" type="curve"/>
      <point x="266" y="55"/>
      <point x="289" y="87"/>
      <point x="322" y="89" type="curve" smooth="yes"/>
      <point x="405" y="94"/>
      <point x="434" y="161"/>
      <point x="434" y="255" type="curve"/>
      <point x="434" y="348"/>
      <point x="394" y="427"/>
      <point x="328" y="427" type="curve"/>
      <point x="289" y="427"/>
      <point x="253" y="405"/>
      <point x="212" y="357" type="curve"/>
      <point x="212" y="-241" type="line"/>
      <point x="73" y="-241" type="line"/>
      <point x="73" y="391" type="line"/>
      <point x="73" y="428"/>
      <point x="69" y="470"/>
      <point x="58" y="517" type="curve" name="hr01"/>
      <point x="165" y="517" type="line"/>
      <point x="182" y="507"/>
      <point x="194" y="486"/>
      <point x="202" y="466" type="curve"/>
      <point x="205" y="446" type="line"/>
      <point x="220" y="466" type="line"/>
      <point x="273" y="515"/>
      <point x="313" y="530"/>
    </contour>
  </outline>
</glyph>
<glyph name="q" format="1">
  <advance width="605"/>
  <unicode hex="0071"/>
  <outline>
    <contour>
      <point x="281" y="95" type="curve" smooth="yes" name="hr00"/>
      <point x="321" y="96"/>
      <point x="340" y="64"/>
      <point x="363" y="26" type="curve"/>
      <point x="325" y="6"/>
      <point x="283" y="-9"/>
      <point x="249" y="-9" type="curve" smooth="yes"/>
      <point x="122" y="-9"/>
      <point x="46" y="121"/>
      <point x="46" y="240" type="curve" smooth="yes"/>
      <point x="46" y="399"/>
      <point x="150" y="529"/>
      <point x="329" y="529" type="curve" smooth="yes"/>
      <point x="385" y="529"/>
      <point x="435" y="524"/>
      <point x="535" y="499" type="curve"/>
      <point x="535" y="-241" type="line"/>
      <point x="399" y="-241" type="line"/>
      <point x="399" y="418" type="line"/>
      <point x="372" y="424"/>
      <point x="348" y="426"/>
      <point x="334" y="426" type="curve" smooth="yes"/>
      <point x="243" y="426"/>
      <point x="195" y="350"/>
      <point x="195" y="240" type="curve" smooth="yes"/>
      <point x="195" y="176"/>
      <point x="213" y="93"/>
    </contour>
  </outline>
</glyph>
<glyph name="r" format="1">
  <advance width="391"/>
  <unicode hex="0072"/>
  <outline>
    <contour>
      <point x="156" y="517" type="line"/>
      <point x="167" y="508"/>
      <point x="182" y="477"/>
      <point x="187" y="443" type="curve"/>
      <point x="189" y="419" type="line"/>
      <point x="199" y="443" type="line"/>
      <point x="226" y="496"/>
      <point x="273" y="527"/>
      <point x="316" y="527" type="curve" smooth="yes" name="hr01"/>
      <point x="337" y="527"/>
      <point x="357" y="523"/>
      <point x="381" y="515" type="curve"/>
      <point x="365" y="402" type="line"/>
      <point x="338" y="410"/>
      <point x="322" y="412"/>
      <point x="306" y="412" type="curve" smooth="yes"/>
      <point x="238" y="412"/>
      <point x="197" y="340"/>
      <point x="197" y="241" type="curve" smooth="yes"/>
      <point x="197" y="0" type="line"/>
      <point x="66" y="0" type="line"/>
      <point x="66" y="391" type="line" smooth="yes"/>
      <point x="66" y="428"/>
      <point x="62" y="470"/>
      <point x="50" y="517" type="curve" name="hr02"/>
    </contour>
  </outline>
</glyph>
<glyph name="s" format="1">
  <advance width="436"/>
  <unicode hex="0073"/>
  <outline>
    <contour>
      <point x="62" y="125" type="line" name="hr00"/>
      <point x="124" y="101"/>
      <point x="171" y="93"/>
      <point x="213" y="93" type="curve" smooth="yes"/>
      <point x="262" y="93"/>
      <point x="284" y="118"/>
      <point x="284" y="143" type="curve" smooth="yes"/>
      <point x="284" y="232"/>
      <point x="42" y="219"/>
      <point x="42" y="377" type="curve" smooth="yes"/>
      <point x="42" y="441"/>
      <point x="90" y="526"/>
      <point x="227" y="526" type="curve" smooth="yes"/>
      <point x="272" y="526"/>
      <point x="316" y="521"/>
      <point x="380" y="500" type="curve"/>
      <point x="348" y="410" type="line"/>
      <point x="296" y="424"/>
      <point x="270" y="427"/>
      <point x="236" y="427" type="curve" smooth="yes"/>
      <point x="198" y="427"/>
      <point x="174" y="411"/>
      <point x="174" y="383" type="curve" smooth="yes"/>
      <point x="174" y="298"/>
      <point x="416" y="303"/>
      <point x="416" y="148" type="curve" smooth="yes"/>
      <point x="416" y="51"/>
      <point x="329" y="-10"/>
      <point x="236" y="-10" type="curve" smooth="yes"/>
      <point x="184" y="-10"/>
      <point x="119" y="-5"/>
      <point x="30" y="32" type="curve"/>
    </contour>
  </outline>
</glyph>
<glyph name="t" format="1">
  <advance width="455"/>
  <unicode hex="0074"/>
  <outline>
    <contour>
      <point x="104" y="418" type="line"/>
      <point x="21" y="418" type="line" name="hr01"/>
      <point x="21" y="497" type="line"/>
      <point x="104" y="517" type="line" name="hr02"/>
      <point x="104" y="640" type="line"/>
      <point x="236" y="683" type="line"/>
      <point x="236" y="198" type="line" smooth="yes"/>
      <point x="236" y="130"/>
      <point x="267" y="90"/>
      <point x="314" y="90" type="curve" smooth="yes"/>
      <point x="333" y="90"/>
      <point x="357" y="93"/>
      <point x="391" y="105" type="curve"/>
      <point x="420" y="14" type="line"/>
      <point x="370" y="-3"/>
      <point x="333" y="-13"/>
      <point x="300" y="-13" type="curve" smooth="yes"/>
      <point x="173" y="-13"/>
      <point x="104" y="62"/>
      <point x="104" y="198" type="curve"/>
    </contour>
    <contour>
      <point x="370" y="418" type="line"/>
      <point x="312" y="418"/>
      <point x="283" y="473"/>
      <point x="270" y="517" type="curve"/>
      <point x="415" y="517" type="line"/>
      <point x="415" y="418" type="line"/>
    </contour>
  </outline>
</glyph>
<glyph name="u" format="1">
  <advance width="613"/>
  <unicode hex="0075"/>
  <outline>
    <contour>
      <point x="427" y="0" type="line"/>
      <point x="396" y="36"/>
      <point x="388" y="70"/>
      <point x="388" y="110" type="curve" smooth="yes"/>
      <point x="388" y="517" type="line"/>
      <point x="528" y="517" type="line"/>
      <point x="528" y="126" type="line" smooth="yes"/>
      <point x="528" y="89"/>
      <point x="533" y="47"/>
      <point x="544" y="0" type="curve"/>
    </contour>
    <contour>
      <point x="205" y="150" type="line"/>
      <point x="205" y="117"/>
      <point x="217" y="93"/>
      <point x="251" y="93" type="curve" smooth="yes"/>
      <point x="264" y="93"/>
      <point x="274" y="98"/>
      <point x="293" y="99" type="curve" name="hr01"/>
      <point x="324" y="101"/>
      <point x="345" y="65"/>
      <point x="364" y="33" type="curve"/>
      <point x="298" y="-2"/>
      <point x="251" y="-13"/>
      <point x="205" y="-13" type="curve" smooth="yes"/>
      <point x="136" y="-13"/>
      <point x="66" y="39"/>
      <point x="66" y="148" type="curve" smooth="yes"/>
      <point x="66" y="517" type="line"/>
      <point x="205" y="517" type="line"/>
    </contour>
  </outline>
</glyph>
<glyph name="v" format="1">
  <advance width="547"/>
  <unicode hex="0076"/>
  <outline>
    <contour>
      <point x="200" y="0" type="line" name="hr00"/>
      <point x="6" y="517" type="line"/>
      <point x="153" y="517" type="line"/>
      <point x="269" y="151" type="line"/>
      <point x="276" y="121" type="line"/>
      <point x="283" y="151" type="line"/>
      <point x="398" y="517" type="line"/>
      <point x="543" y="517" type="line"/>
      <point x="349" y="0" type="line"/>
    </contour>
  </outline>
</glyph>
<glyph name="w" format="1">
  <advance width="872"/>
  <unicode hex="0077"/>
  <outline>
    <contour>
      <point x="534" y="0" type="line" name="hr00"/>
      <point x="351" y="517" type="line"/>
      <point x="499" y="517" type="line"/>
      <point x="603" y="151" type="line"/>
      <point x="610" y="121" type="line"/>
      <point x="617" y="151" type="line"/>
      <point x="720" y="517" type="line"/>
      <point x="865" y="517" type="line"/>
      <point x="683" y="0" type="line"/>
    </contour>
    <contour>
      <point x="348" y="0" type="line"/>
      <point x="202" y="0" type="line"/>
      <point x="20" y="517" type="line"/>
      <point x="167" y="517" type="line"/>
      <point x="271" y="151" type="line"/>
      <point x="278" y="121" type="line"/>
      <point x="285" y="151" type="line"/>
      <point x="359" y="347" type="line"/>
      <point x="391" y="289"/>
      <point x="421" y="173"/>
      <point x="385" y="87" type="curve"/>
    </contour>
  </outline>
</glyph>
<glyph name="x" format="1">
  <advance width="514"/>
  <unicode hex="0078"/>
  <outline>
    <contour>
      <point x="11" y="517" type="line" name="hr00"/>
      <point x="170" y="517" type="line"/>
      <point x="248" y="372" type="line"/>
      <point x="254" y="351" type="line"/>
      <point x="262" y="372" type="line"/>
      <point x="341" y="517" type="line"/>
      <point x="493" y="517" type="line"/>
      <point x="322" y="256" type="line"/>
      <point x="503" y="0" type="line"/>
      <point x="347" y="0" type="line"/>
      <point x="296" y="83"/>
      <point x="241" y="167"/>
      <point x="186" y="250" type="curve"/>
    </contour>
    <contour>
      <point x="153" y="0" type="line"/>
      <point x="2" y="0" type="line"/>
      <point x="156" y="220" type="line"/>
      <point x="182" y="188"/>
      <point x="218" y="125"/>
      <point x="190" y="68" type="curve"/>
    </contour>
  </outline>
</glyph>
<glyph name="y" format="1">
  <advance width="600"/>
  <unicode hex="0079"/>
  <outline>
    <contour>
      <point x="127" y="-146" type="curve" name="hr00"/>
      <point x="197" y="-146"/>
      <point x="222" y="-82"/>
      <point x="261" y="37" type="curve"/>
      <point x="409" y="517" type="line"/>
      <point x="552" y="517" type="line"/>
      <point x="369" y="11" type="line"/>
      <point x="302" y="-161"/>
      <point x="264" y="-248"/>
      <point x="127" y="-248" type="curve"/>
      <point x="100" y="-247"/>
      <point x="68" y="-243"/>
      <point x="36" y="-229" type="curve"/>
      <point x="68" y="-139" type="line"/>
      <point x="91" y="-145"/>
      <point x="108" y="-146"/>
    </contour>
    <contour>
      <point x="235" y="281" type="line"/>
      <point x="262" y="194"/>
      <point x="235" y="70"/>
      <point x="201" y="13" type="curve"/>
      <point x="15" y="517" type="line"/>
      <point x="165" y="517" type="line"/>
    </contour>
  </outline>
</glyph>
<glyph name="z" format="1">
  <advance width="474"/>
  <unicode hex="007A"/>
  <outline>
    <contour>
      <point x="57" y="517" type="line" name="hr00"/>
      <point x="433" y="517" type="line"/>
      <point x="433" y="458" type="line"/>
      <point x="206" y="112" type="line"/>
      <point x="191" y="95" type="line"/>
      <point x="213" y="98" type="line"/>
      <point x="435" y="98" type="line"/>
      <point x="435" y="0" type="line"/>
      <point x="30" y="0" type="line"/>
      <point x="30" y="59" type="line"/>
      <point x="259" y="407" type="line"/>
      <point x="274" y="424" type="line"/>
      <point x="253" y="421" type="line"/>
      <point x="57" y="421" type="line"/>
    </contour>
  </outline>
</glyph>
<glyph name="braceleft" format="1">
  <advance width="403"/>
  <unicode hex="007B"/>
  <outline>
    <contour>
      <point x="162" y="425" type="curve" name="hr00"/>
      <point x="174" y="593"/>
      <point x="217" y="685"/>
      <point x="339" y="767" type="curve"/>
      <point x="405" y="702" type="line"/>
      <point x="321" y="627"/>
      <point x="293" y="563"/>
      <point x="284" y="439" type="curve"/>
      <point x="280" y="384"/>
      <point x="251" y="342"/>
      <point x="209" y="314" type="curve"/>
      <point x="185" y="303" type="line"/>
      <point x="208" y="293" type="line"/>
      <point x="251" y="265"/>
      <point x="280" y="223"/>
      <point x="284" y="168" type="curve"/>
      <point x="292" y="35"/>
      <point x="320" y="-35"/>
      <point x="405" y="-110" type="curve"/>
      <point x="339" y="-176" type="line"/>
      <point x="213" y="-91"/>
      <point x="171" y="7"/>
      <point x="160" y="187" type="curve"/>
      <point x="156" y="234"/>
      <point x="114" y="261"/>
      <point x="63" y="270" type="curve"/>
      <point x="63" y="342" type="line"/>
      <point x="114" y="351"/>
      <point x="158" y="378"/>
    </contour>
  </outline>
</glyph>
<glyph name="bar" format="1">
  <advance width="317"/>
  <unicode hex="007C"/>
  <outline>
    <contour>
      <point x="115" y="-293" type="line" name="hr00"/>
      <point x="115" y="811" type="line"/>
      <point x="241" y="811" type="line"/>
      <point x="241" y="-293" type="line"/>
    </contour>
  </outline>
</glyph>
<glyph name="braceright" format="1">
  <advance width="428"/>
  <unicode hex="007D"/>
  <outline>
    <contour>
      <point x="319" y="425" type="curve" name="hr00"/>
      <point x="323" y="378"/>
      <point x="367" y="351"/>
      <point x="418" y="342" type="curve"/>
      <point x="418" y="270" type="line"/>
      <point x="367" y="261"/>
      <point x="325" y="234"/>
      <point x="321" y="187" type="curve"/>
      <point x="310" y="7"/>
      <point x="268" y="-91"/>
      <point x="142" y="-176" type="curve"/>
      <point x="76" y="-110" type="line"/>
      <point x="161" y="-35"/>
      <point x="189" y="35"/>
      <point x="197" y="168" type="curve"/>
      <point x="201" y="223"/>
      <point x="230" y="264"/>
      <point x="272" y="292" type="curve"/>
      <point x="297" y="303" type="line"/>
      <point x="271" y="314" type="line"/>
      <point x="229" y="342"/>
      <point x="201" y="384"/>
      <point x="197" y="439" type="curve"/>
      <point x="188" y="563"/>
      <point x="160" y="627"/>
      <point x="76" y="702" type="curve"/>
      <point x="142" y="767" type="line"/>
      <point x="264" y="685"/>
      <point x="307" y="593"/>
    </contour>
  </outline>
</glyph>
<glyph name="asciitilde" format="1">
  <advance width="614"/>
  <unicode hex="007E"/>
  <outline>
    <contour>
      <point x="63" y="236" type="line"/>
      <point x="66" y="338"/>
      <point x="143" y="395"/>
      <point x="219" y="396" type="curve"/>
      <point x="312" y="396"/>
      <point x="358" y="324"/>
      <point x="405" y="324" type="curve" smooth="yes" name="hr01"/>
      <point x="432" y="324"/>
      <point x="449" y="349"/>
      <point x="454" y="385" type="curve"/>
      <point x="569" y="377" type="line"/>
      <point x="563" y="263"/>
      <point x="481" y="217"/>
      <point x="421" y="217" type="curve" smooth="yes"/>
      <point x="315" y="217"/>
      <point x="288" y="289"/>
      <point x="236" y="289" type="curve" smooth="yes" name="hr02"/>
      <point x="214" y="289"/>
      <point x="186" y="274"/>
      <point x="181" y="228" type="curve"/>
    </contour>
  </outline>
</glyph>
<glyph name="exclamdown" format="1">
  <advance width="351"/>
  <unicode hex="00A1"/>
  <outline>
    <contour>
      <point x="47" y="-210" type="line"/>
      <point x="66" y="287" type="line"/>
      <point x="166" y="287" type="line"/>
      <point x="187" y="-210" type="line"/>
    </contour>
    <contour>
      <point x="32" y="449" type="curve" name="hr01"/>
      <point x="32" y="495"/>
      <point x="68" y="531"/>
      <point x="115" y="531" type="curve" smooth="yes"/>
      <point x="161" y="531"/>
      <point x="197" y="495"/>
      <point x="197" y="449" type="curve" smooth="yes"/>
      <point x="197" y="403"/>
      <point x="161" y="365"/>
      <point x="115" y="365" type="curve" smooth="yes"/>
      <point x="68" y="365"/>
      <point x="32" y="403"/>
    </contour>
  </outline>
</glyph>
<glyph name="cent" format="1">
  <advance width="427"/>
  <unicode hex="00A2"/>
  <outline>
    <contour>
      <point x="327" y="624" type="line" name="hr00"/>
      <point x="356" y="621"/>
      <point x="388" y="615"/>
      <point x="417" y="604" type="curve"/>
      <point x="383" y="511" type="line"/>
      <point x="351" y="519"/>
      <point x="318" y="523"/>
      <point x="296" y="523" type="curve" smooth="yes"/>
      <point x="224" y="523"/>
      <point x="176" y="459"/>
      <point x="176" y="355" type="curve" smooth="yes"/>
      <point x="176" y="250"/>
      <point x="224" y="186"/>
      <point x="296" y="186" type="curve" smooth="yes"/>
      <point x="324" y="186"/>
      <point x="354" y="193"/>
      <point x="397" y="210" type="curve"/>
      <point x="431" y="118" type="line"/>
      <point x="393" y="100"/>
      <point x="357" y="90"/>
      <point x="327" y="85" type="curve"/>
      <point x="327" y="-14" type="line"/>
      <point x="229" y="-14" type="line"/>
      <point x="229" y="89" type="line"/>
      <point x="118" y="112"/>
      <point x="28" y="194"/>
      <point x="28" y="355" type="curve" smooth="yes"/>
      <point x="28" y="506"/>
      <point x="118" y="594"/>
      <point x="229" y="618" type="curve"/>
      <point x="229" y="716" type="line"/>
      <point x="327" y="716" type="line"/>
    </contour>
  </outline>
</glyph>
<glyph name="sterling" format="1">
  <advance width="513"/>
  <unicode hex="00A3"/>
  <outline>
    <contour>
      <point x="279" y="197" type="curve"/>
      <point x="273" y="168"/>
      <point x="264" y="152"/>
      <point x="249" y="130" type="curve"/>
      <point x="231" y="110" type="line"/>
      <point x="253" y="112" type="line"/>
      <point x="483" y="112" type="line"/>
      <point x="483" y="0" type="line"/>
      <point x="34" y="0" type="line"/>
      <point x="34" y="76" type="line"/>
      <point x="106" y="112"/>
      <point x="157" y="169"/>
      <point x="157" y="242" type="curve" smooth="yes"/>
      <point x="157" y="262"/>
      <point x="156" y="280"/>
      <point x="154" y="305" type="curve"/>
      <point x="55" y="305" type="line" name="hr01"/>
      <point x="55" y="402" type="line"/>
      <point x="138" y="402" type="line"/>
      <point x="133" y="433"/>
      <point x="129" y="470"/>
      <point x="129" y="512" type="curve" smooth="yes" name="hr02"/>
      <point x="129" y="647"/>
      <point x="227" y="712"/>
      <point x="365" y="712" type="curve"/>
      <point x="412" y="712"/>
      <point x="463" y="703"/>
      <point x="525" y="675" type="curve"/>
      <point x="490" y="580" type="line"/>
      <point x="440" y="601"/>
      <point x="393" y="608"/>
      <point x="365" y="608" type="curve" smooth="yes"/>
      <point x="300" y="608"/>
      <point x="262" y="575"/>
      <point x="262" y="511" type="curve" smooth="yes"/>
      <point x="262" y="390"/>
      <point x="299" y="296"/>
    </contour>
    <contour>
      <point x="402" y="305" type="line"/>
      <point x="342" y="305"/>
      <point x="321" y="359"/>
      <point x="307" y="402" type="curve"/>
      <point x="468" y="402" type="line"/>
      <point x="468" y="305" type="line"/>
    </contour>
  </outline>
</glyph>
<glyph name="currency" format="1">
  <advance width="513"/>
  <unicode hex="00A4"/>
  <outline>
    <contour>
      <point x="358" y="340" type="curve" name="hr00"/>
      <point x="358" y="409"/>
      <point x="312" y="470"/>
      <point x="255" y="470" type="curve"/>
      <point x="201" y="470"/>
      <point x="152" y="418"/>
      <point x="152" y="340" type="curve"/>
      <point x="152" y="262"/>
      <point x="201" y="210"/>
      <point x="255" y="210" type="curve" smooth="yes"/>
      <point x="312" y="210"/>
      <point x="358" y="271"/>
    </contour>
    <contour>
      <point x="444" y="341" type="curve"/>
      <point x="444" y="293"/>
      <point x="430" y="249"/>
      <point x="414" y="226" type="curve"/>
      <point x="493" y="153" type="line"/>
      <point x="443" y="100" type="line"/>
      <point x="366" y="171" type="line"/>
      <point x="343" y="152"/>
      <point x="303" y="136"/>
      <point x="256" y="136" type="curve" smooth="yes"/>
      <point x="212" y="136"/>
      <point x="175" y="151"/>
      <point x="149" y="170" type="curve"/>
      <point x="75" y="99" type="line"/>
      <point x="21" y="155" type="line"/>
      <point x="99" y="226" type="line"/>
      <point x="82" y="249"/>
      <point x="65" y="289"/>
      <point x="65" y="341" type="curve"/>
      <point x="65" y="391"/>
      <point x="82" y="431"/>
      <point x="99" y="454" type="curve"/>
      <point x="21" y="525" type="line"/>
      <point x="75" y="581" type="line"/>
      <point x="149" y="510" type="line"/>
      <point x="175" y="529"/>
      <point x="212" y="544"/>
      <point x="256" y="544" type="curve" smooth="yes"/>
      <point x="303" y="544"/>
      <point x="343" y="528"/>
      <point x="366" y="509" type="curve"/>
      <point x="443" y="580" type="line"/>
      <point x="493" y="527" type="line"/>
      <point x="414" y="454" type="line"/>
      <point x="430" y="431"/>
      <point x="444" y="389"/>
    </contour>
  </outline>
</glyph>
<glyph name="yen" format="1">
  <advance width="660"/>
  <unicode hex="00A5"/>
  <outline>
    <contour>
      <point x="393" y="339" type="line" name="hr00"/>
      <point x="393" y="319" type="line"/>
      <point x="536" y="319" type="line"/>
      <point x="536" y="252" type="line"/>
      <point x="393" y="252" type="line"/>
      <point x="393" y="195" type="line"/>
      <point x="536" y="195" type="line"/>
      <point x="536" y="128" type="line"/>
      <point x="393" y="128" type="line"/>
      <point x="393" y="0" type="line"/>
      <point x="255" y="0" type="line"/>
      <point x="255" y="128" type="line"/>
      <point x="111" y="128" type="line"/>
      <point x="111" y="195" type="line"/>
      <point x="255" y="195" type="line"/>
      <point x="255" y="252" type="line"/>
      <point x="111" y="252" type="line"/>
      <point x="111" y="319" type="line"/>
      <point x="255" y="319" type="line"/>
      <point x="255" y="322" type="line"/>
      <point x="4" y="727" type="line"/>
      <point x="160" y="727" type="line"/>
    </contour>
    <contour>
      <point x="481" y="727" type="line"/>
      <point x="635" y="727" type="line"/>
      <point x="423" y="377" type="line"/>
      <point x="397" y="411"/>
      <point x="353" y="493"/>
      <point x="387" y="557" type="curve"/>
    </contour>
  </outline>
</glyph>
<glyph name="section" format="1">
  <advance width="500"/>
  <unicode hex="00A7"/>
  <outline>
    <contour>
      <point x="472" y="325" type="curve" smooth="yes"/>
      <point x="472" y="283"/>
      <point x="448" y="248"/>
      <point x="411" y="224" type="curve"/>
      <point x="388" y="214" type="line"/>
      <point x="408" y="203" type="line"/>
      <point x="440" y="176"/>
      <point x="463" y="142"/>
      <point x="463" y="94" type="curve" smooth="yes"/>
      <point x="463" y="7"/>
      <point x="367" y="-51"/>
      <point x="252" y="-51" type="curve" smooth="yes"/>
      <point x="207" y="-51"/>
      <point x="110" y="-43"/>
      <point x="37" y="-9" type="curve"/>
      <point x="72" y="75" type="line"/>
      <point x="131" y="52"/>
      <point x="191" y="40"/>
      <point x="240" y="40" type="curve" smooth="yes"/>
      <point x="297" y="40"/>
      <point x="343" y="55"/>
      <point x="343" y="93" type="curve" smooth="yes"/>
      <point x="343" y="201"/>
      <point x="43" y="179"/>
      <point x="43" y="352" type="curve" smooth="yes"/>
      <point x="43" y="390"/>
      <point x="72" y="428"/>
      <point x="111" y="454" type="curve"/>
      <point x="132" y="463" type="line"/>
      <point x="112" y="473" type="line"/>
      <point x="76" y="500"/>
      <point x="52" y="535"/>
      <point x="52" y="585" type="curve" smooth="yes"/>
      <point x="52" y="661"/>
      <point x="135" y="720"/>
      <point x="250" y="720" type="curve" smooth="yes"/>
      <point x="295" y="720"/>
      <point x="349" y="714"/>
      <point x="416" y="694" type="curve"/>
      <point x="381" y="610" type="line"/>
      <point x="330" y="624"/>
      <point x="295" y="629"/>
      <point x="262" y="629" type="curve" smooth="yes"/>
      <point x="205" y="629"/>
      <point x="172" y="614"/>
      <point x="172" y="586" type="curve" smooth="yes"/>
      <point x="172" y="478"/>
      <point x="472" y="498"/>
    </contour>
    <contour>
      <point x="356" y="330" type="curve" smooth="yes" name="hr01"/>
      <point x="356" y="372"/>
      <point x="282" y="392"/>
      <point x="208" y="422" type="curve"/>
      <point x="174" y="401"/>
      <point x="159" y="384"/>
      <point x="159" y="357" type="curve" smooth="yes"/>
      <point x="159" y="309"/>
      <point x="236" y="288"/>
      <point x="313" y="256" type="curve"/>
      <point x="343" y="279"/>
      <point x="356" y="304"/>
    </contour>
  </outline>
</glyph>
<glyph name="dieresis" format="1">
  <advance width="528"/>
  <unicode hex="00A8"/>
  <outline>
    <contour>
      <point x="107" y="670" type="curve" smooth="yes" name="hr00"/>
      <point x="107" y="705"/>
      <point x="136" y="733"/>
      <point x="170" y="733" type="curve" smooth="yes"/>
      <point x="205" y="733"/>
      <point x="234" y="705"/>
      <point x="234" y="670" type="curve" smooth="yes"/>
      <point x="234" y="635"/>
      <point x="205" y="607"/>
      <point x="170" y="607" type="curve" smooth="yes"/>
      <point x="136" y="607"/>
      <point x="107" y="635"/>
    </contour>
    <contour>
      <point x="302" y="670" type="curve" smooth="yes"/>
      <point x="302" y="705"/>
      <point x="331" y="733"/>
      <point x="365" y="733" type="curve" smooth="yes"/>
      <point x="400" y="733"/>
      <point x="429" y="705"/>
      <point x="429" y="670" type="curve" smooth="yes"/>
      <point x="429" y="635"/>
      <point x="400" y="607"/>
      <point x="365" y="607" type="curve" smooth="yes"/>
      <point x="331" y="607"/>
      <point x="302" y="635"/>
    </contour>
  </outline>
</glyph>
<glyph name="copyright" format="1">
  <advance width="720"/>
  <unicode hex="00A9"/>
  <outline>
    <contour>
      <point x="357" y="690" type="curve" name="hr00"/>
      <point x="554" y="690"/>
      <point x="689" y="550"/>
      <point x="689" y="357" type="curve" smooth="yes"/>
      <point x="689" y="176"/>
      <point x="549" y="21"/>
      <point x="357" y="21" type="curve" smooth="yes"/>
      <point x="158" y="21"/>
      <point x="22" y="161"/>
      <point x="22" y="357" type="curve" smooth="yes"/>
      <point x="22" y="535"/>
      <point x="163" y="690"/>
    </contour>
    <contour>
      <point x="357" y="613" type="curve"/>
      <point x="221" y="613"/>
      <point x="114" y="513"/>
      <point x="114" y="354" type="curve" smooth="yes"/>
      <point x="114" y="197"/>
      <point x="221" y="99"/>
      <point x="357" y="99" type="curve"/>
      <point x="490" y="99"/>
      <point x="597" y="197"/>
      <point x="597" y="357" type="curve" smooth="yes"/>
      <point x="597" y="513"/>
      <point x="490" y="613"/>
    </contour>
    <contour>
      <point x="377" y="176" type="curve"/>
      <point x="280" y="176"/>
      <point x="204" y="240"/>
      <point x="204" y="357" type="curve"/>
      <point x="204" y="473"/>
      <point x="282" y="537"/>
      <point x="377" y="537" type="curve"/>
      <point x="402" y="537"/>
      <point x="432" y="532"/>
      <point x="460" y="523" type="curve"/>
      <point x="438" y="459" type="line"/>
      <point x="414" y="467"/>
      <point x="397" y="470"/>
      <point x="377" y="470" type="curve"/>
      <point x="327" y="470"/>
      <point x="292" y="421"/>
      <point x="292" y="357" type="curve"/>
      <point x="292" y="292"/>
      <point x="326" y="242"/>
      <point x="377" y="242" type="curve"/>
      <point x="396" y="242"/>
      <point x="417" y="245"/>
      <point x="448" y="259" type="curve"/>
      <point x="469" y="199" type="line"/>
      <point x="432" y="181"/>
      <point x="398" y="176"/>
    </contour>
  </outline>
</glyph>
<glyph name="ordfeminine" format="1">
  <advance width="527"/>
  <unicode hex="00AA"/>
  <outline>
    <contour>
      <point x="344" y="422" type="line" name="hr00"/>
      <point x="344" y="366"/>
      <point x="349" y="327"/>
      <point x="355" y="302" type="curve"/>
      <point x="285" y="302" type="line"/>
      <point x="274" y="312"/>
      <point x="268" y="323"/>
      <point x="262" y="338" type="curve"/>
      <point x="261" y="350" type="line"/>
      <point x="253" y="338" type="line"/>
      <point x="228" y="311"/>
      <point x="192" y="295"/>
      <point x="151" y="295" type="curve" smooth="yes"/>
      <point x="86" y="295"/>
      <point x="35" y="331"/>
      <point x="35" y="394" type="curve" smooth="yes"/>
      <point x="35" y="460"/>
      <point x="86" y="498"/>
      <point x="230" y="514" type="curve"/>
      <point x="227" y="498"/>
      <point x="217" y="455"/>
      <point x="180" y="448" type="curve" smooth="yes"/>
      <point x="141" y="441"/>
      <point x="127" y="423"/>
      <point x="127" y="399" type="curve" smooth="yes"/>
      <point x="127" y="376"/>
      <point x="144" y="358"/>
      <point x="170" y="358" type="curve" smooth="yes"/>
      <point x="201" y="358"/>
      <point x="231" y="371"/>
      <point x="255" y="401" type="curve"/>
      <point x="255" y="527" type="line"/>
      <point x="255" y="582"/>
      <point x="220" y="603"/>
      <point x="172" y="603" type="curve" smooth="yes"/>
      <point x="147" y="603"/>
      <point x="119" y="599"/>
      <point x="90" y="588" type="curve"/>
      <point x="70" y="647" type="line"/>
      <point x="115" y="667"/>
      <point x="154" y="671"/>
      <point x="185" y="671" type="curve" smooth="yes"/>
      <point x="290" y="671"/>
      <point x="344" y="616"/>
      <point x="344" y="522" type="curve"/>
    </contour>
  </outline>
</glyph>
<glyph name="guillemotleft" format="1">
  <advance width="613"/>
  <unicode hex="00AB"/>
  <outline>
    <contour>
      <point x="48" y="258" type="line" name="hr00"/>
      <point x="281" y="472" type="line"/>
      <point x="336" y="418" type="line"/>
      <point x="210" y="258" type="line"/>
      <point x="336" y="98" type="line"/>
      <point x="281" y="45" type="line"/>
    </contour>
    <contour>
      <point x="322" y="258" type="line"/>
      <point x="555" y="472" type="line"/>
      <point x="610" y="418" type="line"/>
      <point x="484" y="258" type="line"/>
      <point x="610" y="98" type="line"/>
      <point x="555" y="45" type="line"/>
    </contour>
  </outline>
</glyph>
<glyph name="logicalnot" format="1">
  <advance width="591"/>
  <unicode hex="00AC"/>
  <outline>
    <contour>
      <point x="546" y="455" type="line" name="hr00"/>
      <point x="546" y="156" type="line"/>
      <point x="439" y="156" type="line"/>
      <point x="439" y="357" type="line"/>
      <point x="43" y="357" type="line"/>
      <point x="43" y="455" type="line"/>
    </contour>
  </outline>
</glyph>
<glyph name="uni00AD" format="1">
  <advance width="375"/>
  <unicode hex="00AD"/>
  <outline>
    <contour>
      <point x="45" y="255" type="line" name="hr00"/>
      <point x="45" y="353" type="line"/>
      <point x="347" y="353" type="line"/>
      <point x="347" y="255" type="line"/>
    </contour>
  </outline>
</glyph>
<glyph name="registered" format="1">
  <advance width="720"/>
  <unicode hex="00AE"/>
  <outline>
    <contour>
      <point x="357" y="690" type="curve" smooth="yes" name="hr00"/>
      <point x="554" y="690"/>
      <point x="689" y="550"/>
      <point x="689" y="357" type="curve" smooth="yes"/>
      <point x="689" y="176"/>
      <point x="549" y="21"/>
      <point x="357" y="21" type="curve" smooth="yes"/>
      <point x="158" y="21"/>
      <point x="22" y="161"/>
      <point x="22" y="357" type="curve" smooth="yes"/>
      <point x="22" y="535"/>
      <point x="163" y="690"/>
    </contour>
    <contour>
      <point x="357" y="613" type="curve" smooth="yes"/>
      <point x="221" y="613"/>
      <point x="114" y="513"/>
      <point x="114" y="354" type="curve" smooth="yes"/>
      <point x="114" y="197"/>
      <point x="221" y="99"/>
      <point x="357" y="99" type="curve" smooth="yes"/>
      <point x="490" y="99"/>
      <point x="597" y="197"/>
      <point x="597" y="357" type="curve" smooth="yes"/>
      <point x="597" y="513"/>
      <point x="490" y="613"/>
    </contour>
    <contour>
      <point x="498" y="431" type="curve" smooth="yes"/>
      <point x="498" y="395"/>
      <point x="482" y="364"/>
      <point x="450" y="347" type="curve"/>
      <point x="428" y="343" type="line"/>
      <point x="447" y="333" type="line"/>
      <point x="484" y="303"/>
      <point x="482" y="248"/>
      <point x="509" y="189" type="curve"/>
      <point x="423" y="189" type="line"/>
      <point x="398" y="243"/>
      <point x="409" y="306"/>
      <point x="360" y="325" type="curve"/>
      <point x="336" y="325" type="line"/>
      <point x="341" y="351"/>
      <point x="353" y="378"/>
      <point x="382" y="385" type="curve" smooth="yes"/>
      <point x="405" y="391"/>
      <point x="413" y="408"/>
      <point x="413" y="431" type="curve" smooth="yes"/>
      <point x="413" y="457"/>
      <point x="394" y="472"/>
      <point x="354" y="472" type="curve" smooth="yes"/>
      <point x="342" y="472"/>
      <point x="341" y="471"/>
      <point x="323" y="469" type="curve"/>
      <point x="323" y="189" type="line"/>
      <point x="241" y="189" type="line"/>
      <point x="241" y="521" type="line"/>
      <point x="279" y="530"/>
      <point x="319" y="536"/>
      <point x="354" y="536" type="curve" smooth="yes"/>
      <point x="439" y="536"/>
      <point x="498" y="496"/>
    </contour>
  </outline>
</glyph>
<glyph name="macron" format="1">
  <advance width="500"/>
  <unicode hex="00AF"/>
  <outline>
    <contour>
      <point x="110" y="603" type="line" name="hr00"/>
      <point x="110" y="687" type="line"/>
      <point x="412" y="687" type="line"/>
      <point x="412" y="603" type="line"/>
    </contour>
  </outline>
</glyph>
<glyph name="degree" format="1">
  <advance width="337"/>
  <unicode hex="00B0"/>
  <outline>
    <contour>
      <point x="104" y="623" type="curve" smooth="yes" name="hr00"/>
      <point x="104" y="573"/>
      <point x="136" y="546"/>
      <point x="175" y="546" type="curve" smooth="yes"/>
      <point x="214" y="546"/>
      <point x="247" y="573"/>
      <point x="247" y="623" type="curve" smooth="yes"/>
      <point x="247" y="673"/>
      <point x="214" y="701"/>
      <point x="175" y="701" type="curve" smooth="yes"/>
      <point x="136" y="701"/>
      <point x="104" y="673"/>
    </contour>
    <contour>
      <point x="19" y="623" type="curve" smooth="yes"/>
      <point x="19" y="710"/>
      <point x="94" y="773"/>
      <point x="175" y="773" type="curve" smooth="yes"/>
      <point x="256" y="773"/>
      <point x="331" y="715"/>
      <point x="331" y="623" type="curve" smooth="yes"/>
      <point x="331" y="536"/>
      <point x="256" y="473"/>
      <point x="175" y="473" type="curve" smooth="yes"/>
      <point x="94" y="473"/>
      <point x="19" y="531"/>
    </contour>
  </outline>
</glyph>
<glyph name="twosuperior" format="1">
  <advance width="402"/>
  <unicode hex="00B2"/>
  <outline>
    <contour>
      <point x="337" y="628" type="curve" smooth="yes" name="hr00"/>
      <point x="337" y="532"/>
      <point x="240" y="470"/>
      <point x="187" y="392" type="curve"/>
      <point x="178" y="382" type="line"/>
      <point x="191" y="384" type="line"/>
      <point x="334" y="384" type="line"/>
      <point x="334" y="310" type="line"/>
      <point x="69" y="310" type="line"/>
      <point x="69" y="355" type="line"/>
      <point x="139" y="478"/>
      <point x="248" y="547"/>
      <point x="248" y="621" type="curve"/>
      <point x="248" y="650"/>
      <point x="224" y="667"/>
      <point x="185" y="667" type="curve"/>
      <point x="162" y="667"/>
      <point x="139" y="661"/>
      <point x="118" y="652" type="curve"/>
      <point x="90" y="711" type="line"/>
      <point x="126" y="730"/>
      <point x="169" y="736"/>
      <point x="201" y="736" type="curve" smooth="yes"/>
      <point x="279" y="736"/>
      <point x="337" y="697"/>
    </contour>
  </outline>
</glyph>
<glyph name="threesuperior" format="1">
  <advance width="381"/>
  <unicode hex="00B3"/>
  <outline>
    <contour>
      <point x="307" y="638" type="curve" smooth="yes"/>
      <point x="307" y="596"/>
      <point x="276" y="561"/>
      <point x="230" y="540" type="curve"/>
      <point x="276" y="529"/>
      <point x="321" y="490"/>
      <point x="321" y="430" type="curve" smooth="yes" name="hr01"/>
      <point x="321" y="350"/>
      <point x="250" y="301"/>
      <point x="158" y="301" type="curve" smooth="yes"/>
      <point x="117" y="301"/>
      <point x="75" y="317"/>
      <point x="55" y="329" type="curve"/>
      <point x="77" y="390" type="line"/>
      <point x="101" y="380"/>
      <point x="130" y="371"/>
      <point x="157" y="371" type="curve" smooth="yes"/>
      <point x="202" y="371"/>
      <point x="231" y="398"/>
      <point x="231" y="433" type="curve" smooth="yes"/>
      <point x="231" y="475"/>
      <point x="200" y="499"/>
      <point x="132" y="499" type="curve"/>
      <point x="125" y="555" type="line"/>
      <point x="157" y="568" type="line" smooth="yes"/>
      <point x="193" y="583"/>
      <point x="217" y="600"/>
      <point x="217" y="631" type="curve" name="hr02"/>
      <point x="217" y="647"/>
      <point x="199" y="665"/>
      <point x="170" y="665" type="curve" smooth="yes"/>
      <point x="147" y="665"/>
      <point x="123" y="660"/>
      <point x="96" y="651" type="curve"/>
      <point x="71" y="710" type="line"/>
      <point x="109" y="729"/>
      <point x="143" y="735"/>
      <point x="176" y="735" type="curve" smooth="yes"/>
      <point x="249" y="735"/>
      <point x="307" y="705"/>
    </contour>
  </outline>
</glyph>
<glyph name="mu" format="1">
  <advance width="553"/>
  <unicode hex="00B5"/>
  <unicode hex="03BC"/>
  <outline>
    <contour>
      <point x="390" y="52" type="line"/>
      <point x="361" y="11"/>
      <point x="324" y="-10"/>
      <point x="265" y="-10" type="curve" smooth="yes"/>
      <point x="243" y="-10"/>
      <point x="212" y="-2"/>
      <point x="191" y="14" type="curve"/>
      <point x="177" y="31" type="line"/>
      <point x="178" y="7" type="line"/>
      <point x="178" y="-211" type="line"/>
      <point x="56" y="-211" type="line"/>
      <point x="56" y="517" type="line"/>
      <point x="184" y="517" type="line"/>
      <point x="184" y="210" type="line" smooth="yes"/>
      <point x="184" y="131"/>
      <point x="221" y="88"/>
      <point x="274" y="88" type="curve" smooth="yes" name="hr01"/>
      <point x="336" y="88"/>
      <point x="379" y="135"/>
      <point x="379" y="199" type="curve" smooth="yes"/>
      <point x="379" y="517" type="line"/>
      <point x="508" y="517" type="line"/>
      <point x="508" y="164" type="line" smooth="yes"/>
      <point x="508" y="108"/>
      <point x="522" y="88"/>
      <point x="563" y="90" type="curve"/>
      <point x="575" y="5" type="line"/>
      <point x="553" y="-4"/>
      <point x="518" y="-8"/>
      <point x="503" y="-8" type="curve" smooth="yes"/>
      <point x="469" y="-8"/>
      <point x="424" y="10"/>
      <point x="404" y="53" type="curve"/>
      <point x="399" y="71" type="line"/>
    </contour>
  </outline>
</glyph>
<glyph name="periodcentered" format="1">
  <advance width="306"/>
  <unicode hex="00B7"/>
  <outline>
    <contour>
      <point x="69" y="304" type="curve" smooth="yes" name="hr00"/>
      <point x="69" y="350"/>
      <point x="105" y="388"/>
      <point x="152" y="388" type="curve" smooth="yes"/>
      <point x="198" y="388"/>
      <point x="234" y="350"/>
      <point x="234" y="304" type="curve" smooth="yes"/>
      <point x="234" y="258"/>
      <point x="198" y="222"/>
      <point x="152" y="222" type="curve" smooth="yes"/>
      <point x="105" y="222"/>
      <point x="69" y="258"/>
    </contour>
  </outline>
</glyph>
<glyph name="cedilla" format="1">
  <advance width="500"/>
  <unicode hex="00B8"/>
  <outline>
    <contour>
      <point x="291" y="3" type="line" name="hr00"/>
      <point x="280" y="-43" type="line"/>
      <point x="320" y="-52"/>
      <point x="361" y="-79"/>
      <point x="361" y="-123" type="curve" smooth="yes"/>
      <point x="361" y="-183"/>
      <point x="295" y="-213"/>
      <point x="234" y="-213" type="curve" smooth="yes"/>
      <point x="211" y="-213"/>
      <point x="185" y="-207"/>
      <point x="153" y="-193" type="curve"/>
      <point x="171" y="-138" type="line"/>
      <point x="196" y="-147"/>
      <point x="214" y="-150"/>
      <point x="234" y="-150" type="curve" smooth="yes"/>
      <point x="257" y="-150"/>
      <point x="274" y="-141"/>
      <point x="274" y="-126" type="curve" smooth="yes"/>
      <point x="274" y="-106"/>
      <point x="247" y="-96"/>
      <point x="200" y="-91" type="curve"/>
      <point x="223" y="-3" type="line"/>
    </contour>
  </outline>
</glyph>
<glyph name="onesuperior" format="1">
  <advance width="319"/>
  <unicode hex="00B9"/>
  <outline>
    <contour>
      <point x="167" y="309" type="line" name="hr00"/>
      <point x="167" y="614" type="line"/>
      <point x="111" y="587" type="line"/>
      <point x="76" y="651" type="line"/>
      <point x="218" y="727" type="line"/>
      <point x="266" y="727" type="line"/>
      <point x="266" y="309" type="line"/>
    </contour>
  </outline>
</glyph>
<glyph name="ordmasculine" format="1">
  <advance width="430"/>
  <unicode hex="00BA"/>
  <outline>
    <contour>
      <point x="214" y="671" type="curve" name="hr00"/>
      <point x="332" y="671"/>
      <point x="393" y="592"/>
      <point x="393" y="483" type="curve" smooth="yes"/>
      <point x="393" y="383"/>
      <point x="336" y="294"/>
      <point x="214" y="294" type="curve" smooth="yes"/>
      <point x="105" y="294"/>
      <point x="35" y="362"/>
      <point x="35" y="483" type="curve" smooth="yes"/>
      <point x="35" y="587"/>
      <point x="98" y="671"/>
    </contour>
    <contour>
      <point x="214" y="364" type="curve"/>
      <point x="272" y="364"/>
      <point x="301" y="414"/>
      <point x="301" y="483" type="curve" smooth="yes"/>
      <point x="301" y="553"/>
      <point x="271" y="602"/>
      <point x="214" y="602" type="curve" smooth="yes"/>
      <point x="160" y="602"/>
      <point x="128" y="552"/>
      <point x="128" y="483" type="curve" smooth="yes"/>
      <point x="128" y="419"/>
      <point x="153" y="364"/>
    </contour>
  </outline>
</glyph>
<glyph name="guillemotright" format="1">
  <advance width="613"/>
  <unicode hex="00BB"/>
  <outline>
    <contour>
      <point x="370" y="45" type="line" name="hr00"/>
      <point x="315" y="98" type="line"/>
      <point x="441" y="258" type="line"/>
      <point x="315" y="418" type="line"/>
      <point x="370" y="472" type="line"/>
      <point x="603" y="258" type="line"/>
    </contour>
    <contour>
      <point x="97" y="45" type="line"/>
      <point x="42" y="98" type="line"/>
      <point x="168" y="258" type="line"/>
      <point x="42" y="418" type="line"/>
      <point x="97" y="472" type="line"/>
      <point x="330" y="258" type="line"/>
    </contour>
  </outline>
</glyph>
<glyph name="onequarter" format="1">
  <advance width="698"/>
  <unicode hex="00BC"/>
  <outline>
    <contour>
      <point x="66" y="0" type="line"/>
      <point x="502" y="727" type="line"/>
      <point x="610" y="727" type="line"/>
      <point x="174" y="0" type="line"/>
    </contour>
    <contour>
      <point x="525" y="423" type="line"/>
      <point x="618" y="423" type="line"/>
      <point x="618" y="151" type="line"/>
      <point x="666" y="151" type="line" name="hr01"/>
      <point x="666" y="82" type="line"/>
      <point x="618" y="82" type="line" name="hr02"/>
      <point x="618" y="0" type="line"/>
      <point x="534" y="0" type="line"/>
      <point x="534" y="304" type="line"/>
      <point x="430" y="151" type="line"/>
      <point x="450" y="151" type="line"/>
      <point x="482" y="151"/>
      <point x="499" y="112"/>
      <point x="509" y="82" type="curve"/>
      <point x="338" y="82" type="line"/>
      <point x="338" y="143" type="line"/>
    </contour>
    <contour>
      <point x="107" y="309" type="line"/>
      <point x="107" y="614" type="line"/>
      <point x="51" y="587" type="line"/>
      <point x="16" y="651" type="line"/>
      <point x="158" y="727" type="line"/>
      <point x="206" y="727" type="line"/>
      <point x="206" y="309" type="line"/>
    </contour>
  </outline>
</glyph>
<glyph name="onehalf" format="1">
  <advance width="763"/>
  <unicode hex="00BD"/>
  <outline>
    <contour>
      <point x="66" y="0" type="line" name="hr00"/>
      <point x="502" y="727" type="line"/>
      <point x="610" y="727" type="line"/>
      <point x="174" y="0" type="line"/>
    </contour>
    <contour>
      <point x="107" y="309" type="line"/>
      <point x="107" y="614" type="line"/>
      <point x="51" y="587" type="line"/>
      <point x="16" y="651" type="line"/>
      <point x="158" y="727" type="line"/>
      <point x="206" y="727" type="line"/>
      <point x="206" y="309" type="line"/>
    </contour>
    <contour>
      <point x="690" y="318" type="curve" smooth="yes"/>
      <point x="690" y="222"/>
      <point x="594" y="162"/>
      <point x="541" y="84" type="curve"/>
      <point x="531" y="72" type="line"/>
      <point x="548" y="74" type="line"/>
      <point x="687" y="74" type="line"/>
      <point x="687" y="0" type="line"/>
      <point x="422" y="0" type="line"/>
      <point x="422" y="45" type="line"/>
      <point x="492" y="168"/>
      <point x="601" y="237"/>
      <point x="601" y="311" type="curve" smooth="yes"/>
      <point x="601" y="340"/>
      <point x="577" y="357"/>
      <point x="538" y="357" type="curve" smooth="yes"/>
      <point x="515" y="357"/>
      <point x="492" y="351"/>
      <point x="471" y="342" type="curve"/>
      <point x="443" y="401" type="line"/>
      <point x="479" y="420"/>
      <point x="522" y="426"/>
      <point x="554" y="426" type="curve" smooth="yes"/>
      <point x="632" y="426"/>
      <point x="690" y="387"/>
    </contour>
  </outline>
</glyph>
<glyph name="threequarters" format="1">
  <advance width="716"/>
  <unicode hex="00BE"/>
  <outline>
    <contour>
      <point x="102" y="0" type="line"/>
      <point x="538" y="727" type="line"/>
      <point x="646" y="727" type="line"/>
      <point x="210" y="0" type="line"/>
    </contour>
    <contour>
      <point x="561" y="423" type="line"/>
      <point x="654" y="423" type="line"/>
      <point x="654" y="151" type="line"/>
      <point x="702" y="151" type="line" name="hr01"/>
      <point x="702" y="82" type="line"/>
      <point x="654" y="82" type="line" name="hr02"/>
      <point x="654" y="0" type="line"/>
      <point x="570" y="0" type="line"/>
      <point x="570" y="304" type="line"/>
      <point x="466" y="151" type="line"/>
      <point x="486" y="151" type="line"/>
      <point x="518" y="151"/>
      <point x="535" y="112"/>
      <point x="545" y="82" type="curve"/>
      <point x="374" y="82" type="line"/>
      <point x="374" y="143" type="line"/>
    </contour>
    <contour>
      <point x="277" y="638" type="curve" smooth="yes"/>
      <point x="277" y="596"/>
      <point x="246" y="561"/>
      <point x="200" y="540" type="curve"/>
      <point x="246" y="529"/>
      <point x="291" y="490"/>
      <point x="291" y="430" type="curve" smooth="yes" name="hr03"/>
      <point x="291" y="350"/>
      <point x="220" y="301"/>
      <point x="128" y="301" type="curve" smooth="yes"/>
      <point x="87" y="301"/>
      <point x="45" y="317"/>
      <point x="25" y="329" type="curve"/>
      <point x="47" y="390" type="line"/>
      <point x="71" y="380"/>
      <point x="100" y="371"/>
      <point x="127" y="371" type="curve" smooth="yes"/>
      <point x="172" y="371"/>
      <point x="201" y="398"/>
      <point x="201" y="433" type="curve" smooth="yes"/>
      <point x="201" y="475"/>
      <point x="170" y="499"/>
      <point x="102" y="499" type="curve"/>
      <point x="95" y="555" type="line"/>
      <point x="127" y="568" type="line" smooth="yes"/>
      <point x="163" y="583"/>
      <point x="187" y="600"/>
      <point x="187" y="631" type="curve" name="hr04"/>
      <point x="187" y="647"/>
      <point x="169" y="665"/>
      <point x="140" y="665" type="curve" smooth="yes"/>
      <point x="117" y="665"/>
      <point x="93" y="660"/>
      <point x="66" y="651" type="curve"/>
      <point x="41" y="710" type="line"/>
      <point x="79" y="729"/>
      <point x="113" y="735"/>
      <point x="146" y="735" type="curve" smooth="yes"/>
      <point x="219" y="735"/>
      <point x="277" y="705"/>
    </contour>
  </outline>
</glyph>
<glyph name="questiondown" format="1">
  <advance width="583"/>
  <unicode hex="00BF"/>
  <outline>
    <contour>
      <point x="315" y="-221" type="curve" smooth="yes"/>
      <point x="182" y="-221"/>
      <point x="87" y="-162"/>
      <point x="87" y="-58" type="curve" smooth="yes"/>
      <point x="87" y="83"/>
      <point x="280" y="154"/>
      <point x="280" y="286" type="curve"/>
      <point x="398" y="286" type="line"/>
      <point x="398" y="104"/>
      <point x="230" y="56"/>
      <point x="230" y="-43" type="curve" smooth="yes"/>
      <point x="230" y="-88"/>
      <point x="268" y="-117"/>
      <point x="325" y="-117" type="curve"/>
      <point x="363" y="-117"/>
      <point x="395" y="-113"/>
      <point x="459" y="-86" type="curve"/>
      <point x="495" y="-180" type="line"/>
      <point x="421" y="-213"/>
      <point x="370" y="-221"/>
    </contour>
    <contour>
      <point x="422" y="448" type="curve" smooth="yes" name="hr01"/>
      <point x="422" y="402"/>
      <point x="386" y="364"/>
      <point x="339" y="364" type="curve" smooth="yes"/>
      <point x="293" y="364"/>
      <point x="257" y="402"/>
      <point x="257" y="448" type="curve" smooth="yes"/>
      <point x="257" y="494"/>
      <point x="293" y="530"/>
      <point x="339" y="530" type="curve" smooth="yes"/>
      <point x="386" y="530"/>
      <point x="422" y="494"/>
    </contour>
  </outline>
</glyph>
<glyph name="Agrave" format="1">
  <advance width="687"/>
  <unicode hex="00C0"/>
  <outline>
    <contour>
      <point x="210" y="890" type="line" name="hr00"/>
      <point x="343" y="890" type="line"/>
      <point x="417" y="765" type="line"/>
      <point x="383" y="756"/>
      <point x="305" y="762"/>
      <point x="271" y="808" type="curve"/>
    </contour>
    <contour>
      <point x="208" y="159" type="line"/>
      <point x="155" y="0" type="line"/>
      <point x="14" y="0" type="line"/>
      <point x="275" y="727" type="line"/>
      <point x="415" y="727" type="line"/>
      <point x="676" y="0" type="line"/>
      <point x="528" y="0" type="line"/>
      <point x="348" y="541" type="line"/>
      <point x="340" y="578" type="line"/>
      <point x="331" y="539" type="line"/>
      <point x="246" y="280" type="line"/>
      <point x="234" y="260" type="line"/>
      <point x="249" y="262" type="line"/>
      <point x="325" y="262" type="line" smooth="yes"/>
      <point x="383" y="262"/>
      <point x="411" y="203"/>
      <point x="425" y="159" type="curve"/>
    </contour>
  </outline>
</glyph>
<glyph name="Aacute" format="1">
  <advance width="687"/>
  <unicode hex="00C1"/>
  <outline>
    <contour>
      <point x="426" y="808" type="line" name="hr00"/>
      <point x="386" y="763"/>
      <point x="313" y="756"/>
      <point x="279" y="765" type="curve"/>
      <point x="365" y="890" type="line"/>
      <point x="498" y="890" type="line"/>
    </contour>
    <contour>
      <point x="206" y="159" type="line"/>
      <point x="153" y="0" type="line"/>
      <point x="12" y="0" type="line"/>
      <point x="273" y="727" type="line"/>
      <point x="413" y="727" type="line"/>
      <point x="674" y="0" type="line"/>
      <point x="526" y="0" type="line"/>
      <point x="346" y="541" type="line"/>
      <point x="338" y="578" type="line"/>
      <point x="329" y="539" type="line"/>
      <point x="244" y="280" type="line"/>
      <point x="232" y="260" type="line"/>
      <point x="247" y="262" type="line"/>
      <point x="323" y="262" type="line" smooth="yes"/>
      <point x="381" y="262"/>
      <point x="409" y="203"/>
      <point x="423" y="159" type="curve"/>
    </contour>
  </outline>
</glyph>
<glyph name="Acircumflex" format="1">
  <advance width="687"/>
  <unicode hex="00C2"/>
  <outline>
    <contour>
      <point x="392" y="890" type="line" name="hr00"/>
      <point x="499" y="774" type="line"/>
      <point x="418" y="756" type="line"/>
      <point x="340" y="812" type="line"/>
      <point x="264" y="756" type="line"/>
      <point x="184" y="774" type="line"/>
      <point x="289" y="890" type="line"/>
    </contour>
    <contour>
      <point x="208" y="159" type="line"/>
      <point x="155" y="0" type="line"/>
      <point x="14" y="0" type="line"/>
      <point x="275" y="727" type="line"/>
      <point x="415" y="727" type="line"/>
      <point x="676" y="0" type="line"/>
      <point x="528" y="0" type="line"/>
      <point x="348" y="541" type="line"/>
      <point x="340" y="578" type="line"/>
      <point x="331" y="539" type="line"/>
      <point x="246" y="280" type="line"/>
      <point x="234" y="260" type="line"/>
      <point x="249" y="262" type="line"/>
      <point x="325" y="262" type="line" smooth="yes"/>
      <point x="383" y="262"/>
      <point x="411" y="203"/>
      <point x="425" y="159" type="curve"/>
    </contour>
  </outline>
</glyph>
<glyph name="Atilde" format="1">
  <advance width="687"/>
  <unicode hex="00C3"/>
  <outline>
    <contour>
      <point x="188" y="783" type="line"/>
      <point x="190" y="858"/>
      <point x="239" y="900"/>
      <point x="287" y="901" type="curve"/>
      <point x="346" y="901"/>
      <point x="375" y="848"/>
      <point x="405" y="848" type="curve" smooth="yes" name="hr01"/>
      <point x="422" y="848"/>
      <point x="433" y="866"/>
      <point x="436" y="893" type="curve"/>
      <point x="509" y="887" type="line"/>
      <point x="505" y="803"/>
      <point x="453" y="769"/>
      <point x="415" y="769" type="curve" smooth="yes"/>
      <point x="348" y="769"/>
      <point x="331" y="822"/>
      <point x="298" y="822" type="curve" smooth="yes"/>
      <point x="284" y="822"/>
      <point x="266" y="811"/>
      <point x="263" y="777" type="curve"/>
    </contour>
    <contour>
      <point x="208" y="159" type="line"/>
      <point x="155" y="0" type="line"/>
      <point x="14" y="0" type="line"/>
      <point x="275" y="727" type="line"/>
      <point x="415" y="727" type="line"/>
      <point x="676" y="0" type="line"/>
      <point x="528" y="0" type="line"/>
      <point x="348" y="541" type="line"/>
      <point x="340" y="578" type="line"/>
      <point x="331" y="539" type="line"/>
      <point x="246" y="280" type="line"/>
      <point x="234" y="260" type="line"/>
      <point x="249" y="262" type="line"/>
      <point x="325" y="262" type="line" smooth="yes"/>
      <point x="383" y="262"/>
      <point x="411" y="203"/>
      <point x="425" y="159" type="curve"/>
    </contour>
  </outline>
</glyph>
<glyph name="Adieresis" format="1">
  <advance width="687"/>
  <unicode hex="00C4"/>
  <outline>
    <contour>
      <point x="182" y="840" type="curve" smooth="yes" name="hr00"/>
      <point x="182" y="875"/>
      <point x="211" y="903"/>
      <point x="245" y="903" type="curve" smooth="yes"/>
      <point x="280" y="903"/>
      <point x="309" y="875"/>
      <point x="309" y="840" type="curve" smooth="yes"/>
      <point x="309" y="805"/>
      <point x="280" y="777"/>
      <point x="245" y="777" type="curve" smooth="yes"/>
      <point x="211" y="777"/>
      <point x="182" y="805"/>
    </contour>
    <contour>
      <point x="377" y="840" type="curve" smooth="yes"/>
      <point x="377" y="875"/>
      <point x="406" y="903"/>
      <point x="440" y="903" type="curve" smooth="yes"/>
      <point x="475" y="903"/>
      <point x="504" y="875"/>
      <point x="504" y="840" type="curve" smooth="yes"/>
      <point x="504" y="805"/>
      <point x="475" y="777"/>
      <point x="440" y="777" type="curve" smooth="yes"/>
      <point x="406" y="777"/>
      <point x="377" y="805"/>
    </contour>
    <contour>
      <point x="208" y="159" type="line"/>
      <point x="155" y="0" type="line"/>
      <point x="14" y="0" type="line"/>
      <point x="275" y="727" type="line"/>
      <point x="415" y="727" type="line"/>
      <point x="676" y="0" type="line"/>
      <point x="528" y="0" type="line"/>
      <point x="348" y="541" type="line"/>
      <point x="340" y="578" type="line"/>
      <point x="331" y="539" type="line"/>
      <point x="246" y="280" type="line"/>
      <point x="234" y="260" type="line"/>
      <point x="249" y="262" type="line"/>
      <point x="325" y="262" type="line" smooth="yes"/>
      <point x="383" y="262"/>
      <point x="411" y="203"/>
      <point x="425" y="159" type="curve"/>
    </contour>
  </outline>
</glyph>
<glyph name="Aring" format="1">
  <advance width="687"/>
  <unicode hex="00C5"/>
  <outline>
    <contour>
      <point x="209" y="159" type="line" name="hr00"/>
      <point x="156" y="0" type="line"/>
      <point x="15" y="0" type="line"/>
      <point x="275" y="725" type="line"/>
      <point x="251" y="742"/>
      <point x="237" y="767"/>
      <point x="237" y="797" type="curve" smooth="yes"/>
      <point x="237" y="853"/>
      <point x="285" y="895"/>
      <point x="348" y="895" type="curve" smooth="yes"/>
      <point x="412" y="895"/>
      <point x="456" y="856"/>
      <point x="456" y="798" type="curve" smooth="yes"/>
      <point x="456" y="767"/>
      <point x="441" y="741"/>
      <point x="417" y="724" type="curve"/>
      <point x="677" y="0" type="line"/>
      <point x="529" y="0" type="line"/>
      <point x="348" y="546" type="line"/>
      <point x="341" y="574" type="line"/>
      <point x="334" y="545" type="line"/>
      <point x="247" y="280" type="line"/>
      <point x="235" y="260" type="line"/>
      <point x="248" y="262" type="line"/>
      <point x="326" y="262" type="line" smooth="yes"/>
      <point x="384" y="262"/>
      <point x="412" y="203"/>
      <point x="426" y="159" type="curve"/>
    </contour>
    <contour>
      <point x="347" y="760" type="curve" smooth="yes"/>
      <point x="371" y="760"/>
      <point x="384" y="777"/>
      <point x="384" y="799" type="curve" smooth="yes"/>
      <point x="384" y="822"/>
      <point x="371" y="839"/>
      <point x="347" y="839" type="curve" smooth="yes"/>
      <point x="325" y="839"/>
      <point x="312" y="822"/>
      <point x="312" y="798" type="curve" smooth="yes"/>
      <point x="312" y="779"/>
      <point x="325" y="760"/>
    </contour>
  </outline>
</glyph>
<glyph name="AE" format="1">
  <advance width="975"/>
  <unicode hex="00C6"/>
  <outline>
    <contour>
      <point x="218" y="159" type="line" name="hr00"/>
      <point x="141" y="0" type="line"/>
      <point x="0" y="0" type="line"/>
      <point x="372" y="727" type="line"/>
      <point x="844" y="727" type="line"/>
      <point x="844" y="624" type="line"/>
      <point x="546" y="624" type="line"/>
      <point x="624" y="103" type="line"/>
      <point x="915" y="103" type="line"/>
      <point x="915" y="0" type="line"/>
      <point x="506" y="0" type="line"/>
      <point x="423" y="552" type="line"/>
      <point x="420" y="589" type="line"/>
      <point x="406" y="554" type="line"/>
      <point x="274" y="280" type="line"/>
      <point x="259" y="260" type="line"/>
      <point x="279" y="262" type="line"/>
      <point x="346" y="262" type="line" smooth="yes"/>
      <point x="404" y="262"/>
      <point x="432" y="203"/>
      <point x="446" y="159" type="curve"/>
    </contour>
    <contour>
      <point x="626" y="331" type="line"/>
      <point x="641" y="380"/>
      <point x="671" y="432"/>
      <point x="740" y="432" type="curve" smooth="yes"/>
      <point x="854" y="432" type="line"/>
      <point x="854" y="331" type="line"/>
    </contour>
  </outline>
</glyph>
<glyph name="Ccedilla" format="1">
  <advance width="652"/>
  <unicode hex="00C7"/>
  <outline>
    <contour>
      <point x="435" y="-12" type="curve" smooth="yes"/>
      <point x="425" y="-12"/>
      <point x="415" y="-11"/>
      <point x="405" y="-11" type="curve" name="hr01"/>
      <point x="398" y="-43" type="line"/>
      <point x="438" y="-52"/>
      <point x="479" y="-79"/>
      <point x="479" y="-123" type="curve" smooth="yes"/>
      <point x="479" y="-183"/>
      <point x="413" y="-213"/>
      <point x="352" y="-213" type="curve" smooth="yes"/>
      <point x="329" y="-213"/>
      <point x="303" y="-207"/>
      <point x="271" y="-193" type="curve"/>
      <point x="289" y="-138" type="line"/>
      <point x="314" y="-147"/>
      <point x="332" y="-150"/>
      <point x="352" y="-150" type="curve" smooth="yes"/>
      <point x="375" y="-150"/>
      <point x="392" y="-141"/>
      <point x="392" y="-126" type="curve" smooth="yes"/>
      <point x="392" y="-106"/>
      <point x="365" y="-96"/>
      <point x="318" y="-91" type="curve"/>
      <point x="341" y="-3" type="line"/>
      <point x="153" y="33"/>
      <point x="48" y="181"/>
      <point x="48" y="364" type="curve" smooth="yes"/>
      <point x="48" y="572"/>
      <point x="194" y="740"/>
      <point x="435" y="740" type="curve" smooth="yes"/>
      <point x="491" y="740"/>
      <point x="548" y="730"/>
      <point x="611" y="706" type="curve"/>
      <point x="575" y="614" type="line"/>
      <point x="516" y="631"/>
      <point x="481" y="637"/>
      <point x="435" y="637" type="curve" smooth="yes"/>
      <point x="276" y="637"/>
      <point x="200" y="502"/>
      <point x="200" y="364" type="curve" smooth="yes"/>
      <point x="200" y="226"/>
      <point x="276" y="91"/>
      <point x="435" y="91" type="curve" smooth="yes" name="hr02"/>
      <point x="481" y="91"/>
      <point x="525" y="102"/>
      <point x="574" y="125" type="curve"/>
      <point x="611" y="34" type="line"/>
      <point x="552" y="3"/>
      <point x="491" y="-12"/>
    </contour>
  </outline>
</glyph>
<glyph name="Eacute" format="1">
  <advance width="577"/>
  <unicode hex="00C9"/>
  <outline>
    <contour>
      <point x="67" y="727" type="line" name="hr00"/>
      <point x="503" y="727" type="line"/>
      <point x="503" y="624" type="line"/>
      <point x="210" y="624" type="line"/>
      <point x="210" y="103" type="line"/>
      <point x="519" y="103" type="line"/>
      <point x="519" y="0" type="line"/>
      <point x="67" y="0" type="line"/>
    </contour>
    <contour>
      <point x="248" y="331" type="line"/>
      <point x="261" y="375"/>
      <point x="290" y="432"/>
      <point x="348" y="432" type="curve"/>
      <point x="469" y="432" type="line"/>
      <point x="469" y="331" type="line"/>
    </contour>
    <contour>
      <point x="381" y="808" type="line"/>
      <point x="341" y="763"/>
      <point x="268" y="756"/>
      <point x="234" y="765" type="curve"/>
      <point x="320" y="890" type="line"/>
      <point x="453" y="890" type="line"/>
    </contour>
  </outline>
</glyph>
<glyph name="Ecircumflex" format="1">
  <advance width="577"/>
  <unicode hex="00CA"/>
  <outline>
    <contour>
      <point x="67" y="727" type="line" name="hr00"/>
      <point x="503" y="727" type="line"/>
      <point x="503" y="624" type="line"/>
      <point x="210" y="624" type="line"/>
      <point x="210" y="103" type="line"/>
      <point x="519" y="103" type="line"/>
      <point x="519" y="0" type="line"/>
      <point x="67" y="0" type="line"/>
    </contour>
    <contour>
      <point x="248" y="331" type="line"/>
      <point x="261" y="375"/>
      <point x="290" y="432"/>
      <point x="348" y="432" type="curve"/>
      <point x="469" y="432" type="line"/>
      <point x="469" y="331" type="line"/>
    </contour>
    <contour>
      <point x="354" y="890" type="line"/>
      <point x="461" y="774" type="line"/>
      <point x="380" y="756" type="line"/>
      <point x="302" y="812" type="line"/>
      <point x="226" y="756" type="line"/>
      <point x="146" y="774" type="line"/>
      <point x="251" y="890" type="line"/>
    </contour>
  </outline>
</glyph>
<glyph name="Edieresis" format="1">
  <advance width="577"/>
  <unicode hex="00CB"/>
  <outline>
    <contour>
      <point x="67" y="727" type="line"/>
      <point x="503" y="727" type="line"/>
      <point x="503" y="624" type="line"/>
      <point x="210" y="624" type="line"/>
      <point x="210" y="103" type="line"/>
      <point x="519" y="103" type="line"/>
      <point x="519" y="0" type="line"/>
      <point x="67" y="0" type="line"/>
    </contour>
    <contour>
      <point x="248" y="331" type="line"/>
      <point x="261" y="375"/>
      <point x="290" y="432"/>
      <point x="348" y="432" type="curve"/>
      <point x="469" y="432" type="line"/>
      <point x="469" y="331" type="line"/>
    </contour>
    <contour>
      <point x="139" y="840" type="curve" smooth="yes" name="hr01"/>
      <point x="139" y="875"/>
      <point x="168" y="903"/>
      <point x="202" y="903" type="curve" smooth="yes"/>
      <point x="237" y="903"/>
      <point x="266" y="875"/>
      <point x="266" y="840" type="curve" smooth="yes"/>
      <point x="266" y="805"/>
      <point x="237" y="777"/>
      <point x="202" y="777" type="curve" smooth="yes"/>
      <point x="168" y="777"/>
      <point x="139" y="805"/>
    </contour>
    <contour>
      <point x="334" y="840" type="curve" smooth="yes"/>
      <point x="334" y="875"/>
      <point x="363" y="903"/>
      <point x="397" y="903" type="curve" smooth="yes"/>
      <point x="432" y="903"/>
      <point x="461" y="875"/>
      <point x="461" y="840" type="curve" smooth="yes"/>
      <point x="461" y="805"/>
      <point x="432" y="777"/>
      <point x="397" y="777" type="curve" smooth="yes"/>
      <point x="363" y="777"/>
      <point x="334" y="805"/>
    </contour>
  </outline>
</glyph>
<glyph name="Iacute" format="1">
  <advance width="321"/>
  <unicode hex="00CD"/>
  <outline>
    <contour>
      <point x="204" y="0" type="line" name="hr00"/>
      <point x="65" y="0" type="line"/>
      <point x="65" y="727" type="line"/>
      <point x="204" y="727" type="line"/>
    </contour>
    <contour>
      <point x="215" y="808" type="line"/>
      <point x="175" y="763"/>
      <point x="102" y="756"/>
      <point x="68" y="765" type="curve"/>
      <point x="154" y="890" type="line"/>
      <point x="287" y="890" type="line"/>
    </contour>
  </outline>
</glyph>
<glyph name="Icircumflex" format="1">
  <advance width="321"/>
  <unicode hex="00CE"/>
  <outline>
    <contour>
      <point x="229" y="0" type="line" name="hr00"/>
      <point x="90" y="0" type="line"/>
      <point x="90" y="727" type="line"/>
      <point x="229" y="727" type="line"/>
    </contour>
    <contour>
      <point x="211" y="890" type="line"/>
      <point x="318" y="774" type="line"/>
      <point x="237" y="756" type="line"/>
      <point x="159" y="812" type="line"/>
      <point x="83" y="756" type="line"/>
      <point x="3" y="774" type="line"/>
      <point x="108" y="890" type="line"/>
    </contour>
  </outline>
</glyph>
<glyph name="Idieresis" format="1">
  <advance width="350"/>
  <unicode hex="00CF"/>
  <outline>
    <contour>
      <point x="243" y="0" type="line"/>
      <point x="104" y="0" type="line"/>
      <point x="104" y="727" type="line"/>
      <point x="243" y="727" type="line"/>
    </contour>
    <contour>
      <point x="12" y="840" type="curve" smooth="yes" name="hr01"/>
      <point x="12" y="875"/>
      <point x="41" y="903"/>
      <point x="75" y="903" type="curve" smooth="yes"/>
      <point x="110" y="903"/>
      <point x="139" y="875"/>
      <point x="139" y="840" type="curve" smooth="yes"/>
      <point x="139" y="805"/>
      <point x="110" y="777"/>
      <point x="75" y="777" type="curve" smooth="yes"/>
      <point x="41" y="777"/>
      <point x="12" y="805"/>
    </contour>
    <contour>
      <point x="207" y="840" type="curve" smooth="yes"/>
      <point x="207" y="875"/>
      <point x="236" y="903"/>
      <point x="270" y="903" type="curve" smooth="yes"/>
      <point x="305" y="903"/>
      <point x="334" y="875"/>
      <point x="334" y="840" type="curve" smooth="yes"/>
      <point x="334" y="805"/>
      <point x="305" y="777"/>
      <point x="270" y="777" type="curve" smooth="yes"/>
      <point x="236" y="777"/>
      <point x="207" y="805"/>
    </contour>
  </outline>
</glyph>
<glyph name="Eth" format="1">
  <advance width="713"/>
  <unicode hex="00D0"/>
  <outline>
    <contour>
      <point x="347" y="91" type="curve" smooth="yes"/>
      <point x="500" y="91"/>
      <point x="566" y="231"/>
      <point x="566" y="365" type="curve" smooth="yes"/>
      <point x="566" y="522"/>
      <point x="487" y="637"/>
      <point x="294" y="637" type="curve" smooth="yes"/>
      <point x="268" y="637"/>
      <point x="239" y="634"/>
      <point x="208" y="629" type="curve"/>
      <point x="208" y="401" type="line"/>
      <point x="411" y="401" type="line"/>
      <point x="411" y="310" type="line"/>
      <point x="208" y="310" type="line"/>
      <point x="208" y="0" type="line" name="hr01"/>
      <point x="67" y="0" type="line"/>
      <point x="67" y="310" type="line"/>
      <point x="-12" y="310" type="line"/>
      <point x="-12" y="401" type="line"/>
      <point x="67" y="401" type="line"/>
      <point x="67" y="714" type="line"/>
      <point x="156" y="733"/>
      <point x="236" y="740"/>
      <point x="294" y="740" type="curve" smooth="yes"/>
      <point x="560" y="740"/>
      <point x="717" y="602"/>
      <point x="717" y="365" type="curve" smooth="yes"/>
      <point x="717" y="154"/>
      <point x="566" y="-12"/>
      <point x="362" y="-12" type="curve" smooth="yes" name="hr02"/>
      <point x="325" y="-12"/>
      <point x="304" y="-10"/>
      <point x="246" y="5" type="curve"/>
      <point x="262" y="40"/>
      <point x="292" y="91"/>
    </contour>
  </outline>
</glyph>
<glyph name="Ntilde" format="1">
  <advance width="749"/>
  <unicode hex="00D1"/>
  <outline>
    <contour>
      <point x="218" y="511" type="line"/>
      <point x="204" y="545" type="line"/>
      <point x="206" y="511" type="line"/>
      <point x="206" y="0" type="line"/>
      <point x="84" y="0" type="line"/>
      <point x="84" y="727" type="line"/>
      <point x="222" y="727" type="line"/>
      <point x="531" y="236" type="line"/>
      <point x="543" y="203" type="line"/>
      <point x="541" y="238" type="line"/>
      <point x="541" y="727" type="line"/>
      <point x="667" y="727" type="line"/>
      <point x="667" y="0" type="line"/>
      <point x="541" y="0" type="line"/>
    </contour>
    <contour>
      <point x="217" y="783" type="line"/>
      <point x="219" y="858"/>
      <point x="268" y="900"/>
      <point x="316" y="901" type="curve"/>
      <point x="375" y="901"/>
      <point x="404" y="848"/>
      <point x="434" y="848" type="curve" smooth="yes" name="hr01"/>
      <point x="451" y="848"/>
      <point x="462" y="866"/>
      <point x="465" y="893" type="curve"/>
      <point x="538" y="887" type="line"/>
      <point x="534" y="803"/>
      <point x="482" y="769"/>
      <point x="444" y="769" type="curve" smooth="yes"/>
      <point x="377" y="769"/>
      <point x="360" y="822"/>
      <point x="327" y="822" type="curve" smooth="yes" name="hr02"/>
      <point x="313" y="822"/>
      <point x="295" y="811"/>
      <point x="292" y="777" type="curve"/>
    </contour>
  </outline>
</glyph>
<glyph name="Ograve" format="1">
  <advance width="791"/>
  <unicode hex="00D2"/>
  <outline>
    <contour>
      <point x="383" y="89" type="curve" name="hr00"/>
      <point x="521" y="89"/>
      <point x="593" y="226"/>
      <point x="593" y="364" type="curve" smooth="yes"/>
      <point x="593" y="512"/>
      <point x="521" y="639"/>
      <point x="383" y="639" type="curve"/>
      <point x="245" y="639"/>
      <point x="173" y="512"/>
      <point x="173" y="364" type="curve"/>
      <point x="173" y="226"/>
      <point x="245" y="89"/>
    </contour>
    <contour>
      <point x="383" y="-14" type="curve"/>
      <point x="157" y="-14"/>
      <point x="21" y="143"/>
      <point x="21" y="364" type="curve"/>
      <point x="21" y="582"/>
      <point x="162" y="742"/>
      <point x="383" y="742" type="curve"/>
      <point x="608" y="742"/>
      <point x="744" y="584"/>
      <point x="744" y="364" type="curve" smooth="yes"/>
      <point x="744" y="145"/>
      <point x="593" y="-14"/>
    </contour>
    <contour>
      <point x="217" y="890" type="line"/>
      <point x="350" y="890" type="line"/>
      <point x="424" y="765" type="line"/>
      <point x="390" y="756"/>
      <point x="312" y="762"/>
      <point x="278" y="808" type="curve"/>
    </contour>
  </outline>
</glyph>
<glyph name="Oacute" format="1">
  <advance width="791"/>
  <unicode hex="00D3"/>
  <outline>
    <contour>
      <point x="381" y="89" type="curve" name="hr00"/>
      <point x="519" y="89"/>
      <point x="591" y="226"/>
      <point x="591" y="364" type="curve" smooth="yes"/>
      <point x="591" y="512"/>
      <point x="519" y="639"/>
      <point x="381" y="639" type="curve"/>
      <point x="243" y="639"/>
      <point x="171" y="512"/>
      <point x="171" y="364" type="curve"/>
      <point x="171" y="226"/>
      <point x="243" y="89"/>
    </contour>
    <contour>
      <point x="381" y="-14" type="curve"/>
      <point x="155" y="-14"/>
      <point x="19" y="143"/>
      <point x="19" y="364" type="curve"/>
      <point x="19" y="582"/>
      <point x="160" y="742"/>
      <point x="381" y="742" type="curve"/>
      <point x="606" y="742"/>
      <point x="742" y="584"/>
      <point x="742" y="364" type="curve" smooth="yes"/>
      <point x="742" y="145"/>
      <point x="591" y="-14"/>
    </contour>
    <contour>
      <point x="477" y="808" type="line"/>
      <point x="437" y="763"/>
      <point x="364" y="756"/>
      <point x="330" y="765" type="curve"/>
      <point x="416" y="890" type="line"/>
      <point x="549" y="890" type="line"/>
    </contour>
  </outline>
</glyph>
<glyph name="Ocircumflex" format="1">
  <advance width="791"/>
  <unicode hex="00D4"/>
  <outline>
    <contour>
      <point x="381" y="89" type="curve" name="hr00"/>
      <point x="519" y="89"/>
      <point x="591" y="226"/>
      <point x="591" y="364" type="curve" smooth="yes"/>
      <point x="591" y="512"/>
      <point x="519" y="639"/>
      <point x="381" y="639" type="curve"/>
      <point x="243" y="639"/>
      <point x="171" y="512"/>
      <point x="171" y="364" type="curve"/>
      <point x="171" y="226"/>
      <point x="243" y="89"/>
    </contour>
    <contour>
      <point x="381" y="-14" type="curve"/>
      <point x="155" y="-14"/>
      <point x="19" y="143"/>
      <point x="19" y="364" type="curve"/>
      <point x="19" y="582"/>
      <point x="160" y="742"/>
      <point x="381" y="742" type="curve"/>
      <point x="606" y="742"/>
      <point x="742" y="584"/>
      <point x="742" y="364" type="curve" smooth="yes"/>
      <point x="742" y="145"/>
      <point x="591" y="-14"/>
    </contour>
    <contour>
      <point x="435" y="890" type="line"/>
      <point x="542" y="774" type="line"/>
      <point x="461" y="756" type="line"/>
      <point x="383" y="812" type="line"/>
      <point x="307" y="756" type="line"/>
      <point x="227" y="774" type="line"/>
      <point x="332" y="890" type="line"/>
    </contour>
  </outline>
</glyph>
<glyph name="Otilde" format="1">
  <advance width="791"/>
  <unicode hex="00D5"/>
  <outline>
    <contour>
      <point x="382" y="89" type="curve"/>
      <point x="520" y="89"/>
      <point x="592" y="226"/>
      <point x="592" y="364" type="curve" smooth="yes"/>
      <point x="592" y="512"/>
      <point x="520" y="639"/>
      <point x="382" y="639" type="curve"/>
      <point x="244" y="639"/>
      <point x="172" y="512"/>
      <point x="172" y="364" type="curve"/>
      <point x="172" y="226"/>
      <point x="244" y="89"/>
    </contour>
    <contour>
      <point x="382" y="-14" type="curve"/>
      <point x="156" y="-14"/>
      <point x="20" y="143"/>
      <point x="20" y="364" type="curve"/>
      <point x="20" y="582"/>
      <point x="161" y="742"/>
      <point x="382" y="742" type="curve"/>
      <point x="607" y="742"/>
      <point x="743" y="584"/>
      <point x="743" y="364" type="curve" smooth="yes"/>
      <point x="743" y="145"/>
      <point x="592" y="-14"/>
    </contour>
    <contour>
      <point x="226" y="783" type="line"/>
      <point x="228" y="858"/>
      <point x="277" y="900"/>
      <point x="325" y="901" type="curve"/>
      <point x="384" y="901"/>
      <point x="413" y="848"/>
      <point x="443" y="848" type="curve" smooth="yes" name="hr01"/>
      <point x="460" y="848"/>
      <point x="471" y="866"/>
      <point x="474" y="893" type="curve"/>
      <point x="547" y="887" type="line"/>
      <point x="543" y="803"/>
      <point x="491" y="769"/>
      <point x="453" y="769" type="curve" smooth="yes"/>
      <point x="386" y="769"/>
      <point x="369" y="822"/>
      <point x="336" y="822" type="curve" smooth="yes" name="hr02"/>
      <point x="322" y="822"/>
      <point x="304" y="811"/>
      <point x="301" y="777" type="curve"/>
    </contour>
  </outline>
</glyph>
<glyph name="Odieresis" format="1">
  <advance width="791"/>
  <unicode hex="00D6"/>
  <outline>
    <contour>
      <point x="382" y="89" type="curve" name="hr00"/>
      <point x="520" y="89"/>
      <point x="592" y="226"/>
      <point x="592" y="364" type="curve" smooth="yes"/>
      <point x="592" y="512"/>
      <point x="520" y="639"/>
      <point x="382" y="639" type="curve"/>
      <point x="244" y="639"/>
      <point x="172" y="512"/>
      <point x="172" y="364" type="curve"/>
      <point x="172" y="226"/>
      <point x="244" y="89"/>
    </contour>
    <contour>
      <point x="382" y="-14" type="curve"/>
      <point x="156" y="-14"/>
      <point x="20" y="143"/>
      <point x="20" y="364" type="curve"/>
      <point x="20" y="582"/>
      <point x="161" y="742"/>
      <point x="382" y="742" type="curve"/>
      <point x="607" y="742"/>
      <point x="743" y="584"/>
      <point x="743" y="364" type="curve" smooth="yes"/>
      <point x="743" y="145"/>
      <point x="592" y="-14"/>
    </contour>
    <contour>
      <point x="223" y="840" type="curve" smooth="yes"/>
      <point x="223" y="875"/>
      <point x="252" y="903"/>
      <point x="286" y="903" type="curve" smooth="yes"/>
      <point x="321" y="903"/>
      <point x="350" y="875"/>
      <point x="350" y="840" type="curve" smooth="yes"/>
      <point x="350" y="805"/>
      <point x="321" y="777"/>
      <point x="286" y="777" type="curve" smooth="yes"/>
      <point x="252" y="777"/>
      <point x="223" y="805"/>
    </contour>
    <contour>
      <point x="418" y="840" type="curve" smooth="yes"/>
      <point x="418" y="875"/>
      <point x="447" y="903"/>
      <point x="481" y="903" type="curve" smooth="yes"/>
      <point x="516" y="903"/>
      <point x="545" y="875"/>
      <point x="545" y="840" type="curve" smooth="yes"/>
      <point x="545" y="805"/>
      <point x="516" y="777"/>
      <point x="481" y="777" type="curve" smooth="yes"/>
      <point x="447" y="777"/>
      <point x="418" y="805"/>
    </contour>
  </outline>
</glyph>
<glyph name="multiply" format="1">
  <advance width="568"/>
  <unicode hex="00D7"/>
  <outline>
    <contour>
      <point x="39" y="139" type="line" name="hr00"/>
      <point x="205" y="306" type="line"/>
      <point x="39" y="471" type="line"/>
      <point x="115" y="546" type="line"/>
      <point x="281" y="381" type="line"/>
      <point x="445" y="546" type="line"/>
      <point x="520" y="471" type="line"/>
      <point x="356" y="306" type="line"/>
      <point x="522" y="139" type="line"/>
      <point x="447" y="64" type="line"/>
      <point x="281" y="230" type="line"/>
      <point x="114" y="64" type="line"/>
    </contour>
  </outline>
</glyph>
<glyph name="Oslash" format="1">
  <advance width="791"/>
  <unicode hex="00D8"/>
  <outline>
    <contour>
      <point x="616" y="665" type="line" name="hr00"/>
      <point x="697" y="598"/>
      <point x="743" y="491"/>
      <point x="743" y="364" type="curve" smooth="yes"/>
      <point x="743" y="145"/>
      <point x="592" y="-14"/>
      <point x="382" y="-14" type="curve" smooth="yes"/>
      <point x="328" y="-14"/>
      <point x="280" y="-5"/>
      <point x="237" y="11" type="curve"/>
      <point x="196" y="-60" type="line"/>
      <point x="77" y="-60" type="line"/>
      <point x="149" y="62" type="line"/>
      <point x="66" y="129"/>
      <point x="20" y="235"/>
      <point x="20" y="364" type="curve" smooth="yes"/>
      <point x="20" y="582"/>
      <point x="161" y="742"/>
      <point x="382" y="742" type="curve" smooth="yes"/>
      <point x="435" y="742"/>
      <point x="484" y="733"/>
      <point x="526" y="716" type="curve"/>
      <point x="570" y="789" type="line"/>
      <point x="689" y="789" type="line"/>
    </contour>
    <contour>
      <point x="382" y="89" type="curve" smooth="yes"/>
      <point x="520" y="89"/>
      <point x="592" y="226"/>
      <point x="592" y="364" type="curve" smooth="yes"/>
      <point x="592" y="433"/>
      <point x="576" y="497"/>
      <point x="546" y="546" type="curve"/>
      <point x="308" y="144" type="line"/>
      <point x="278" y="184"/>
      <point x="246" y="235"/>
      <point x="275" y="294" type="curve"/>
      <point x="469" y="619" type="line"/>
      <point x="444" y="632"/>
      <point x="415" y="639"/>
      <point x="382" y="639" type="curve" smooth="yes"/>
      <point x="244" y="639"/>
      <point x="172" y="512"/>
      <point x="172" y="364" type="curve" smooth="yes"/>
      <point x="172" y="226"/>
      <point x="244" y="89"/>
    </contour>
  </outline>
</glyph>
<glyph name="Ugrave" format="1">
  <advance width="694"/>
  <unicode hex="00D9"/>
  <outline>
    <contour>
      <point x="348" y="-14" type="curve" smooth="yes" name="hr00"/>
      <point x="169" y="-14"/>
      <point x="57" y="89"/>
      <point x="57" y="278" type="curve" smooth="yes"/>
      <point x="57" y="727" type="line"/>
      <point x="198" y="727" type="line"/>
      <point x="198" y="263" type="line" smooth="yes"/>
      <point x="198" y="154"/>
      <point x="262" y="89"/>
      <point x="348" y="89" type="curve" smooth="yes"/>
      <point x="433" y="89"/>
      <point x="498" y="154"/>
      <point x="498" y="263" type="curve" smooth="yes"/>
      <point x="498" y="727" type="line"/>
      <point x="638" y="727" type="line"/>
      <point x="638" y="278" type="line" smooth="yes"/>
      <point x="638" y="101"/>
      <point x="527" y="-14"/>
    </contour>
    <contour>
      <point x="200" y="890" type="line"/>
      <point x="333" y="890" type="line"/>
      <point x="407" y="765" type="line"/>
      <point x="373" y="756"/>
      <point x="295" y="762"/>
      <point x="261" y="808" type="curve"/>
    </contour>
  </outline>
</glyph>
<glyph name="Uacute" format="1">
  <advance width="694"/>
  <unicode hex="00DA"/>
  <outline>
    <contour>
      <point x="347" y="-14" type="curve" smooth="yes" name="hr00"/>
      <point x="168" y="-14"/>
      <point x="56" y="89"/>
      <point x="56" y="278" type="curve" smooth="yes"/>
      <point x="56" y="727" type="line"/>
      <point x="197" y="727" type="line"/>
      <point x="197" y="263" type="line" smooth="yes"/>
      <point x="197" y="154"/>
      <point x="261" y="89"/>
      <point x="347" y="89" type="curve" smooth="yes"/>
      <point x="432" y="89"/>
      <point x="497" y="154"/>
      <point x="497" y="263" type="curve" smooth="yes"/>
      <point x="497" y="727" type="line"/>
      <point x="637" y="727" type="line"/>
      <point x="637" y="278" type="line" smooth="yes"/>
      <point x="637" y="101"/>
      <point x="526" y="-14"/>
    </contour>
    <contour>
      <point x="437" y="808" type="line"/>
      <point x="397" y="763"/>
      <point x="324" y="756"/>
      <point x="290" y="765" type="curve"/>
      <point x="376" y="890" type="line"/>
      <point x="509" y="890" type="line"/>
    </contour>
  </outline>
</glyph>
<glyph name="Udieresis" format="1">
  <advance width="694"/>
  <unicode hex="00DC"/>
  <outline>
    <contour>
      <point x="346" y="-14" type="curve" smooth="yes"/>
      <point x="167" y="-14"/>
      <point x="55" y="89"/>
      <point x="55" y="278" type="curve" smooth="yes"/>
      <point x="55" y="727" type="line"/>
      <point x="196" y="727" type="line"/>
      <point x="196" y="263" type="line" smooth="yes"/>
      <point x="196" y="154"/>
      <point x="260" y="89"/>
      <point x="346" y="89" type="curve" smooth="yes"/>
      <point x="431" y="89"/>
      <point x="496" y="154"/>
      <point x="496" y="263" type="curve" smooth="yes"/>
      <point x="496" y="727" type="line"/>
      <point x="636" y="727" type="line"/>
      <point x="636" y="278" type="line" smooth="yes"/>
      <point x="636" y="101"/>
      <point x="525" y="-14"/>
    </contour>
    <contour>
      <point x="187" y="840" type="curve" smooth="yes" name="hr01"/>
      <point x="187" y="875"/>
      <point x="216" y="903"/>
      <point x="250" y="903" type="curve" smooth="yes"/>
      <point x="285" y="903"/>
      <point x="314" y="875"/>
      <point x="314" y="840" type="curve" smooth="yes"/>
      <point x="314" y="805"/>
      <point x="285" y="777"/>
      <point x="250" y="777" type="curve" smooth="yes"/>
      <point x="216" y="777"/>
      <point x="187" y="805"/>
    </contour>
    <contour>
      <point x="382" y="840" type="curve" smooth="yes"/>
      <point x="382" y="875"/>
      <point x="411" y="903"/>
      <point x="445" y="903" type="curve" smooth="yes"/>
      <point x="480" y="903"/>
      <point x="509" y="875"/>
      <point x="509" y="840" type="curve" smooth="yes"/>
      <point x="509" y="805"/>
      <point x="480" y="777"/>
      <point x="445" y="777" type="curve" smooth="yes"/>
      <point x="411" y="777"/>
      <point x="382" y="805"/>
    </contour>
  </outline>
</glyph>
<glyph name="Yacute" format="1">
  <advance width="660"/>
  <unicode hex="00DD"/>
  <outline>
    <contour>
      <point x="394" y="339" type="line" name="hr00"/>
      <point x="394" y="0" type="line"/>
      <point x="256" y="0" type="line"/>
      <point x="256" y="322" type="line"/>
      <point x="5" y="727" type="line"/>
      <point x="161" y="727" type="line"/>
    </contour>
    <contour>
      <point x="482" y="727" type="line"/>
      <point x="636" y="727" type="line"/>
      <point x="424" y="377" type="line"/>
      <point x="398" y="411"/>
      <point x="354" y="493"/>
      <point x="388" y="557" type="curve"/>
    </contour>
    <contour>
      <point x="433" y="808" type="line"/>
      <point x="393" y="763"/>
      <point x="320" y="756"/>
      <point x="286" y="765" type="curve"/>
      <point x="372" y="890" type="line"/>
      <point x="505" y="890" type="line"/>
    </contour>
  </outline>
</glyph>
<glyph name="Thorn" format="1">
  <advance width="609"/>
  <unicode hex="00DE"/>
  <outline>
    <contour>
      <point x="577" y="364" type="curve" smooth="yes" name="hr00"/>
      <point x="577" y="226"/>
      <point x="464" y="146"/>
      <point x="345" y="135" type="curve" smooth="yes"/>
      <point x="315" y="132"/>
      <point x="281" y="133"/>
      <point x="244" y="144" type="curve"/>
      <point x="259" y="182"/>
      <point x="285" y="231"/>
      <point x="330" y="235" type="curve" smooth="yes"/>
      <point x="385" y="240"/>
      <point x="430" y="294"/>
      <point x="430" y="364" type="curve" smooth="yes"/>
      <point x="430" y="438"/>
      <point x="374" y="494"/>
      <point x="291" y="494" type="curve" smooth="yes"/>
      <point x="255" y="494"/>
      <point x="243" y="492"/>
      <point x="207" y="488" type="curve"/>
      <point x="207" y="0" type="line"/>
      <point x="71" y="0" type="line"/>
      <point x="71" y="727" type="line"/>
      <point x="207" y="727" type="line"/>
      <point x="207" y="594" type="line"/>
      <point x="235" y="596"/>
      <point x="261" y="597"/>
      <point x="291" y="597" type="curve" smooth="yes"/>
      <point x="453" y="597"/>
      <point x="577" y="511"/>
    </contour>
  </outline>
</glyph>
<glyph name="germandbls" format="1">
  <advance width="567"/>
  <unicode hex="00DF"/>
  <outline>
    <contour>
      <point x="284" y="115" type="line"/>
      <point x="326" y="97"/>
      <point x="358" y="92"/>
      <point x="378" y="92" type="curve" smooth="yes"/>
      <point x="414" y="92"/>
      <point x="441" y="113"/>
      <point x="441" y="144" type="curve" smooth="yes"/>
      <point x="441" y="229"/>
      <point x="267" y="243"/>
      <point x="267" y="401" type="curve" smooth="yes"/>
      <point x="267" y="459"/>
      <point x="313" y="519"/>
      <point x="382" y="546" type="curve"/>
      <point x="386" y="561"/>
      <point x="386" y="573"/>
      <point x="386" y="588" type="curve" smooth="yes" name="hr01"/>
      <point x="386" y="631"/>
      <point x="352" y="663"/>
      <point x="301" y="663" type="curve" smooth="yes"/>
      <point x="243" y="663"/>
      <point x="201" y="623"/>
      <point x="201" y="555" type="curve" smooth="yes"/>
      <point x="201" y="0" type="line"/>
      <point x="68" y="-1" type="line"/>
      <point x="68" y="544" type="line" smooth="yes"/>
      <point x="68" y="693"/>
      <point x="172" y="763"/>
      <point x="294" y="763" type="curve" smooth="yes"/>
      <point x="418" y="763"/>
      <point x="495" y="693"/>
      <point x="495" y="588" type="curve" smooth="yes"/>
      <point x="495" y="553"/>
      <point x="482" y="516"/>
      <point x="457" y="476" type="curve"/>
      <point x="412" y="458"/>
      <point x="389" y="435"/>
      <point x="389" y="401" type="curve" smooth="yes" name="hr02"/>
      <point x="389" y="314"/>
      <point x="563" y="306"/>
      <point x="563" y="141" type="curve" smooth="yes"/>
      <point x="563" y="43"/>
      <point x="479" y="-12"/>
      <point x="394" y="-12" type="curve" smooth="yes"/>
      <point x="354" y="-12"/>
      <point x="312" y="-7"/>
      <point x="249" y="25" type="curve"/>
    </contour>
  </outline>
</glyph>
<glyph name="acircumflex" format="1">
  <advance width="527"/>
  <unicode hex="00E2"/>
  <outline>
    <contour>
      <point x="318" y="743" type="line"/>
      <point x="425" y="603" type="line"/>
      <point x="344" y="585" type="line"/>
      <point x="266" y="658" type="line"/>
      <point x="190" y="585" type="line"/>
      <point x="110" y="603" type="line"/>
      <point x="215" y="743" type="line"/>
    </contour>
    <contour>
      <point x="384" y="0" type="line"/>
      <point x="362" y="12"/>
      <point x="350" y="39"/>
      <point x="342" y="63" type="curve"/>
      <point x="276" y="0"/>
      <point x="235" y="-13"/>
      <point x="181" y="-13" type="curve" smooth="yes" name="hr01"/>
      <point x="85" y="-13"/>
      <point x="26" y="59"/>
      <point x="26" y="138" type="curve" smooth="yes"/>
      <point x="26" y="221"/>
      <point x="89" y="297"/>
      <point x="300" y="313" type="curve"/>
      <point x="293" y="266"/>
      <point x="274" y="228"/>
      <point x="232" y="220" type="curve" smooth="yes"/>
      <point x="182" y="212"/>
      <point x="160" y="184"/>
      <point x="160" y="151" type="curve" smooth="yes"/>
      <point x="160" y="116"/>
      <point x="188" y="90"/>
      <point x="223" y="90" type="curve" smooth="yes"/>
      <point x="261" y="90"/>
      <point x="301" y="119"/>
      <point x="336" y="160" type="curve"/>
      <point x="336" y="311" type="line" smooth="yes"/>
      <point x="336" y="380"/>
      <point x="296" y="425"/>
      <point x="226" y="425" type="curve" smooth="yes"/>
      <point x="193" y="425"/>
      <point x="156" y="419"/>
      <point x="109" y="402" type="curve"/>
      <point x="75" y="490" type="line"/>
      <point x="134" y="517"/>
      <point x="187" y="528"/>
      <point x="234" y="528" type="curve" smooth="yes"/>
      <point x="391" y="528"/>
      <point x="474" y="451"/>
      <point x="474" y="311" type="curve" smooth="yes"/>
      <point x="474" y="126" type="line" smooth="yes"/>
      <point x="474" y="89"/>
      <point x="478" y="47"/>
      <point x="490" y="0" type="curve" name="hr02"/>
    </contour>
  </outline>
</glyph>
<glyph name="atilde" format="1">
  <advance width="527"/>
  <unicode hex="00E3"/>
  <outline>
    <contour>
      <point x="105" y="624" type="line"/>
      <point x="107" y="699"/>
      <point x="156" y="741"/>
      <point x="204" y="742" type="curve" smooth="yes"/>
      <point x="263" y="742"/>
      <point x="292" y="689"/>
      <point x="322" y="689" type="curve" smooth="yes" name="hr01"/>
      <point x="339" y="689"/>
      <point x="350" y="707"/>
      <point x="353" y="734" type="curve"/>
      <point x="426" y="728" type="line"/>
      <point x="422" y="644"/>
      <point x="370" y="610"/>
      <point x="332" y="610" type="curve" smooth="yes"/>
      <point x="265" y="610"/>
      <point x="248" y="663"/>
      <point x="215" y="663" type="curve" smooth="yes" name="hr02"/>
      <point x="201" y="663"/>
      <point x="183" y="652"/>
      <point x="180" y="618" type="curve"/>
    </contour>
    <contour>
      <point x="385" y="0" type="line"/>
      <point x="363" y="12"/>
      <point x="351" y="39"/>
      <point x="343" y="63" type="curve"/>
      <point x="277" y="0"/>
      <point x="236" y="-13"/>
      <point x="182" y="-13" type="curve" smooth="yes" name="hr03"/>
      <point x="86" y="-13"/>
      <point x="27" y="59"/>
      <point x="27" y="138" type="curve" smooth="yes"/>
      <point x="27" y="221"/>
      <point x="90" y="297"/>
      <point x="301" y="313" type="curve"/>
      <point x="294" y="266"/>
      <point x="275" y="228"/>
      <point x="233" y="220" type="curve" smooth="yes"/>
      <point x="183" y="212"/>
      <point x="161" y="184"/>
      <point x="161" y="151" type="curve" smooth="yes"/>
      <point x="161" y="116"/>
      <point x="189" y="90"/>
      <point x="224" y="90" type="curve" smooth="yes"/>
      <point x="262" y="90"/>
      <point x="302" y="119"/>
      <point x="337" y="160" type="curve"/>
      <point x="337" y="311" type="line" smooth="yes"/>
      <point x="337" y="380"/>
      <point x="297" y="425"/>
      <point x="227" y="425" type="curve" smooth="yes"/>
      <point x="194" y="425"/>
      <point x="157" y="419"/>
      <point x="110" y="402" type="curve"/>
      <point x="76" y="490" type="line"/>
      <point x="135" y="517"/>
      <point x="188" y="528"/>
      <point x="235" y="528" type="curve" smooth="yes"/>
      <point x="392" y="528"/>
      <point x="475" y="451"/>
      <point x="475" y="311" type="curve" smooth="yes"/>
      <point x="475" y="126" type="line" smooth="yes"/>
      <point x="475" y="89"/>
      <point x="479" y="47"/>
      <point x="491" y="0" type="curve" name="hr04"/>
    </contour>
  </outline>
</glyph>
<glyph name="adieresis" format="1">
  <advance width="527"/>
  <unicode hex="00E4"/>
  <outline>
    <contour>
      <point x="107" y="670" type="curve" smooth="yes"/>
      <point x="107" y="705"/>
      <point x="136" y="733"/>
      <point x="170" y="733" type="curve" smooth="yes"/>
      <point x="205" y="733"/>
      <point x="234" y="705"/>
      <point x="234" y="670" type="curve" smooth="yes"/>
      <point x="234" y="635"/>
      <point x="205" y="607"/>
      <point x="170" y="607" type="curve" smooth="yes"/>
      <point x="136" y="607"/>
      <point x="107" y="635"/>
    </contour>
    <contour>
      <point x="385" y="0" type="line"/>
      <point x="363" y="12"/>
      <point x="351" y="39"/>
      <point x="343" y="63" type="curve"/>
      <point x="277" y="0"/>
      <point x="236" y="-13"/>
      <point x="182" y="-13" type="curve" smooth="yes" name="hr01"/>
      <point x="86" y="-13"/>
      <point x="27" y="59"/>
      <point x="27" y="138" type="curve" smooth="yes"/>
      <point x="27" y="221"/>
      <point x="90" y="297"/>
      <point x="301" y="313" type="curve"/>
      <point x="294" y="266"/>
      <point x="275" y="228"/>
      <point x="233" y="220" type="curve" smooth="yes"/>
      <point x="183" y="212"/>
      <point x="161" y="184"/>
      <point x="161" y="151" type="curve" smooth="yes"/>
      <point x="161" y="116"/>
      <point x="189" y="90"/>
      <point x="224" y="90" type="curve" smooth="yes"/>
      <point x="262" y="90"/>
      <point x="302" y="119"/>
      <point x="337" y="160" type="curve"/>
      <point x="337" y="311" type="line" smooth="yes"/>
      <point x="337" y="380"/>
      <point x="297" y="425"/>
      <point x="227" y="425" type="curve" smooth="yes"/>
      <point x="194" y="425"/>
      <point x="157" y="419"/>
      <point x="110" y="402" type="curve"/>
      <point x="76" y="490" type="line"/>
      <point x="135" y="517"/>
      <point x="188" y="528"/>
      <point x="235" y="528" type="curve" smooth="yes"/>
      <point x="392" y="528"/>
      <point x="475" y="451"/>
      <point x="475" y="311" type="curve" smooth="yes"/>
      <point x="475" y="126" type="line" smooth="yes"/>
      <point x="475" y="89"/>
      <point x="479" y="47"/>
      <point x="491" y="0" type="curve" name="hr02"/>
    </contour>
    <contour>
      <point x="302" y="670" type="curve" smooth="yes"/>
      <point x="302" y="705"/>
      <point x="331" y="733"/>
      <point x="365" y="733" type="curve" smooth="yes"/>
      <point x="400" y="733"/>
      <point x="429" y="705"/>
      <point x="429" y="670" type="curve" smooth="yes"/>
      <point x="429" y="635"/>
      <point x="400" y="607"/>
      <point x="365" y="607" type="curve" smooth="yes"/>
      <point x="331" y="607"/>
      <point x="302" y="635"/>
    </contour>
  </outline>
</glyph>
<glyph name="aring" format="1">
  <advance width="527"/>
  <unicode hex="00E5"/>
  <outline>
    <contour>
      <point x="385" y="0" type="line"/>
      <point x="363" y="12"/>
      <point x="351" y="39"/>
      <point x="343" y="63" type="curve"/>
      <point x="277" y="0"/>
      <point x="236" y="-13"/>
      <point x="182" y="-13" type="curve" smooth="yes" name="hr01"/>
      <point x="86" y="-13"/>
      <point x="27" y="59"/>
      <point x="27" y="138" type="curve" smooth="yes"/>
      <point x="27" y="221"/>
      <point x="90" y="297"/>
      <point x="301" y="313" type="curve"/>
      <point x="294" y="266"/>
      <point x="275" y="228"/>
      <point x="233" y="220" type="curve" smooth="yes"/>
      <point x="183" y="212"/>
      <point x="161" y="184"/>
      <point x="161" y="151" type="curve" smooth="yes"/>
      <point x="161" y="116"/>
      <point x="189" y="90"/>
      <point x="224" y="90" type="curve" smooth="yes"/>
      <point x="262" y="90"/>
      <point x="302" y="119"/>
      <point x="337" y="160" type="curve"/>
      <point x="337" y="311" type="line" smooth="yes"/>
      <point x="337" y="380"/>
      <point x="297" y="425"/>
      <point x="227" y="425" type="curve" smooth="yes"/>
      <point x="194" y="425"/>
      <point x="157" y="419"/>
      <point x="110" y="402" type="curve"/>
      <point x="76" y="490" type="line"/>
      <point x="135" y="517"/>
      <point x="203" y="528"/>
      <point x="250" y="528" type="curve" smooth="yes"/>
      <point x="392" y="528"/>
      <point x="475" y="451"/>
      <point x="475" y="311" type="curve" smooth="yes"/>
      <point x="475" y="126" type="line" smooth="yes"/>
      <point x="475" y="89"/>
      <point x="479" y="47"/>
      <point x="491" y="0" type="curve" name="hr02"/>
    </contour>
    <contour>
      <point x="267" y="560" type="curve" smooth="yes"/>
      <point x="204" y="560"/>
      <point x="157" y="600"/>
      <point x="157" y="653" type="curve" smooth="yes"/>
      <point x="157" y="709"/>
      <point x="205" y="751"/>
      <point x="268" y="751" type="curve" smooth="yes"/>
      <point x="332" y="751"/>
      <point x="376" y="712"/>
      <point x="376" y="654" type="curve" smooth="yes"/>
      <point x="376" y="599"/>
      <point x="327" y="560"/>
    </contour>
    <contour>
      <point x="267" y="616" type="curve" smooth="yes"/>
      <point x="291" y="616"/>
      <point x="304" y="633"/>
      <point x="304" y="655" type="curve" smooth="yes"/>
      <point x="304" y="678"/>
      <point x="291" y="695"/>
      <point x="267" y="695" type="curve" smooth="yes"/>
      <point x="245" y="695"/>
      <point x="232" y="678"/>
      <point x="232" y="654" type="curve" smooth="yes"/>
      <point x="232" y="635"/>
      <point x="245" y="616"/>
    </contour>
  </outline>
</glyph>
<glyph name="ae" format="1">
  <advance width="850"/>
  <unicode hex="00E6"/>
  <outline>
    <contour>
      <point x="680" y="317" type="line"/>
      <point x="688" y="378"/>
      <point x="653" y="433"/>
      <point x="592" y="433" type="curve" smooth="yes"/>
      <point x="537" y="433"/>
      <point x="475" y="386"/>
      <point x="475" y="272" type="curve" smooth="yes"/>
      <point x="475" y="157"/>
      <point x="532" y="90"/>
      <point x="616" y="90" type="curve" smooth="yes"/>
      <point x="662" y="90"/>
      <point x="704" y="101"/>
      <point x="762" y="127" type="curve"/>
      <point x="797" y="34" type="line"/>
      <point x="725" y="0"/>
      <point x="663" y="-13"/>
      <point x="601" y="-13" type="curve" smooth="yes"/>
      <point x="507" y="-13"/>
      <point x="429" y="57"/>
      <point x="407" y="121" type="curve"/>
      <point x="365" y="26"/>
      <point x="274" y="-13"/>
      <point x="207" y="-13" type="curve" smooth="yes"/>
      <point x="100" y="-13"/>
      <point x="27" y="44"/>
      <point x="27" y="138" type="curve" smooth="yes"/>
      <point x="27" y="221"/>
      <point x="90" y="297"/>
      <point x="301" y="313" type="curve"/>
      <point x="294" y="266"/>
      <point x="275" y="228"/>
      <point x="233" y="220" type="curve"/>
      <point x="183" y="212"/>
      <point x="161" y="184"/>
      <point x="161" y="151" type="curve" smooth="yes"/>
      <point x="161" y="116"/>
      <point x="189" y="90"/>
      <point x="224" y="90" type="curve" smooth="yes"/>
      <point x="294" y="90"/>
      <point x="337" y="162"/>
      <point x="337" y="265" type="curve"/>
      <point x="337" y="311" type="line" smooth="yes"/>
      <point x="337" y="380"/>
      <point x="297" y="425"/>
      <point x="227" y="425" type="curve" smooth="yes"/>
      <point x="194" y="425"/>
      <point x="157" y="419"/>
      <point x="110" y="402" type="curve"/>
      <point x="76" y="490" type="line"/>
      <point x="135" y="517"/>
      <point x="203" y="528"/>
      <point x="250" y="528" type="curve" smooth="yes" name="hr01"/>
      <point x="313" y="528"/>
      <point x="379" y="491"/>
      <point x="417" y="420" type="curve"/>
      <point x="455" y="487"/>
      <point x="530" y="530"/>
      <point x="599" y="530" type="curve" smooth="yes" name="hr02"/>
      <point x="747" y="530"/>
      <point x="852" y="407"/>
      <point x="793" y="235" type="curve"/>
      <point x="513" y="235" type="line"/>
      <point x="527" y="281"/>
      <point x="557" y="317"/>
      <point x="591" y="317" type="curve"/>
    </contour>
  </outline>
</glyph>
<glyph name="ccedilla" format="1">
  <advance width="427"/>
  <unicode hex="00E7"/>
  <outline>
    <contour>
      <point x="285" y="530" type="curve" smooth="yes" name="hr00"/>
      <point x="321" y="530"/>
      <point x="366" y="523"/>
      <point x="406" y="508" type="curve"/>
      <point x="372" y="415" type="line"/>
      <point x="340" y="423"/>
      <point x="307" y="427"/>
      <point x="285" y="427" type="curve" smooth="yes"/>
      <point x="213" y="427"/>
      <point x="165" y="363"/>
      <point x="165" y="259" type="curve" smooth="yes"/>
      <point x="165" y="154"/>
      <point x="213" y="90"/>
      <point x="285" y="90" type="curve" smooth="yes"/>
      <point x="313" y="90"/>
      <point x="343" y="97"/>
      <point x="386" y="114" type="curve"/>
      <point x="420" y="22" type="line"/>
      <point x="369" y="-1"/>
      <point x="323" y="-12"/>
      <point x="287" y="-13" type="curve"/>
      <point x="280" y="-43" type="line"/>
      <point x="320" y="-52"/>
      <point x="361" y="-79"/>
      <point x="361" y="-123" type="curve" smooth="yes"/>
      <point x="361" y="-183"/>
      <point x="295" y="-213"/>
      <point x="234" y="-213" type="curve" smooth="yes"/>
      <point x="211" y="-213"/>
      <point x="185" y="-207"/>
      <point x="153" y="-193" type="curve"/>
      <point x="171" y="-138" type="line"/>
      <point x="196" y="-147"/>
      <point x="214" y="-150"/>
      <point x="234" y="-150" type="curve" smooth="yes"/>
      <point x="257" y="-150"/>
      <point x="274" y="-141"/>
      <point x="274" y="-126" type="curve" smooth="yes"/>
      <point x="274" y="-106"/>
      <point x="247" y="-96"/>
      <point x="200" y="-91" type="curve"/>
      <point x="222" y="-7" type="line"/>
      <point x="109" y="14"/>
      <point x="17" y="96"/>
      <point x="17" y="259" type="curve" smooth="yes"/>
      <point x="17" y="440"/>
      <point x="146" y="530"/>
    </contour>
  </outline>
</glyph>
<glyph name="egrave" format="1">
  <advance width="544"/>
  <unicode hex="00E8"/>
  <outline>
    <contour>
      <point x="377" y="317" type="line" name="hr00"/>
      <point x="385" y="378"/>
      <point x="350" y="433"/>
      <point x="289" y="433" type="curve" smooth="yes"/>
      <point x="234" y="433"/>
      <point x="172" y="386"/>
      <point x="172" y="272" type="curve" smooth="yes"/>
      <point x="172" y="157"/>
      <point x="229" y="90"/>
      <point x="313" y="90" type="curve" smooth="yes"/>
      <point x="359" y="90"/>
      <point x="401" y="101"/>
      <point x="459" y="127" type="curve"/>
      <point x="494" y="34" type="line"/>
      <point x="422" y="0"/>
      <point x="360" y="-13"/>
      <point x="298" y="-13" type="curve" smooth="yes"/>
      <point x="115" y="-13"/>
      <point x="34" y="132"/>
      <point x="34" y="267" type="curve" smooth="yes"/>
      <point x="34" y="432"/>
      <point x="151" y="530"/>
      <point x="296" y="530" type="curve" smooth="yes"/>
      <point x="444" y="530"/>
      <point x="549" y="407"/>
      <point x="490" y="235" type="curve"/>
      <point x="210" y="235" type="line"/>
      <point x="224" y="281"/>
      <point x="254" y="317"/>
      <point x="288" y="317" type="curve"/>
    </contour>
    <contour>
      <point x="133" y="740" type="line"/>
      <point x="267" y="740" type="line"/>
      <point x="340" y="602" type="line"/>
      <point x="306" y="594"/>
      <point x="237" y="601"/>
      <point x="197" y="649" type="curve"/>
    </contour>
  </outline>
</glyph>
<glyph name="eacute" format="1">
  <advance width="544"/>
  <unicode hex="00E9"/>
  <outline>
    <contour>
      <point x="376" y="317" type="line" name="hr00"/>
      <point x="384" y="378"/>
      <point x="349" y="433"/>
      <point x="288" y="433" type="curve" smooth="yes"/>
      <point x="233" y="433"/>
      <point x="171" y="386"/>
      <point x="171" y="272" type="curve" smooth="yes"/>
      <point x="171" y="157"/>
      <point x="228" y="90"/>
      <point x="312" y="90" type="curve" smooth="yes"/>
      <point x="358" y="90"/>
      <point x="400" y="101"/>
      <point x="458" y="127" type="curve"/>
      <point x="493" y="34" type="line"/>
      <point x="421" y="0"/>
      <point x="359" y="-13"/>
      <point x="297" y="-13" type="curve" smooth="yes"/>
      <point x="114" y="-13"/>
      <point x="33" y="132"/>
      <point x="33" y="267" type="curve" smooth="yes"/>
      <point x="33" y="432"/>
      <point x="150" y="530"/>
      <point x="295" y="530" type="curve" smooth="yes"/>
      <point x="443" y="530"/>
      <point x="548" y="407"/>
      <point x="489" y="235" type="curve"/>
      <point x="209" y="235" type="line"/>
      <point x="223" y="281"/>
      <point x="253" y="317"/>
      <point x="287" y="317" type="curve"/>
    </contour>
    <contour>
      <point x="372" y="645" type="line"/>
      <point x="333" y="597"/>
      <point x="260" y="593"/>
      <point x="226" y="602" type="curve"/>
      <point x="312" y="740" type="line"/>
      <point x="451" y="740" type="line"/>
    </contour>
  </outline>
</glyph>
<glyph name="ecircumflex" format="1">
  <advance width="544"/>
  <unicode hex="00EA"/>
  <outline>
    <contour>
      <point x="375" y="317" type="line" name="hr00"/>
      <point x="383" y="378"/>
      <point x="348" y="433"/>
      <point x="287" y="433" type="curve" smooth="yes"/>
      <point x="232" y="433"/>
      <point x="170" y="386"/>
      <point x="170" y="272" type="curve" smooth="yes"/>
      <point x="170" y="157"/>
      <point x="227" y="90"/>
      <point x="311" y="90" type="curve" smooth="yes"/>
      <point x="357" y="90"/>
      <point x="399" y="101"/>
      <point x="457" y="127" type="curve"/>
      <point x="492" y="34" type="line"/>
      <point x="420" y="0"/>
      <point x="358" y="-13"/>
      <point x="296" y="-13" type="curve" smooth="yes"/>
      <point x="113" y="-13"/>
      <point x="32" y="132"/>
      <point x="32" y="267" type="curve" smooth="yes"/>
      <point x="32" y="432"/>
      <point x="149" y="530"/>
      <point x="294" y="530" type="curve" smooth="yes"/>
      <point x="442" y="530"/>
      <point x="547" y="407"/>
      <point x="488" y="235" type="curve"/>
      <point x="208" y="235" type="line"/>
      <point x="222" y="281"/>
      <point x="252" y="317"/>
      <point x="286" y="317" type="curve"/>
    </contour>
    <contour>
      <point x="343" y="743" type="line"/>
      <point x="450" y="603" type="line"/>
      <point x="369" y="585" type="line"/>
      <point x="291" y="658" type="line"/>
      <point x="215" y="585" type="line"/>
      <point x="135" y="603" type="line"/>
      <point x="240" y="743" type="line"/>
    </contour>
  </outline>
</glyph>
<glyph name="edieresis" format="1">
  <advance width="544"/>
  <unicode hex="00EB"/>
  <outline>
    <contour>
      <point x="377" y="317" type="line"/>
      <point x="385" y="378"/>
      <point x="350" y="433"/>
      <point x="289" y="433" type="curve" smooth="yes"/>
      <point x="234" y="433"/>
      <point x="172" y="386"/>
      <point x="172" y="272" type="curve" smooth="yes"/>
      <point x="172" y="157"/>
      <point x="229" y="90"/>
      <point x="313" y="90" type="curve" smooth="yes"/>
      <point x="359" y="90"/>
      <point x="401" y="101"/>
      <point x="459" y="127" type="curve"/>
      <point x="494" y="34" type="line"/>
      <point x="422" y="0"/>
      <point x="360" y="-13"/>
      <point x="298" y="-13" type="curve" smooth="yes"/>
      <point x="115" y="-13"/>
      <point x="34" y="132"/>
      <point x="34" y="267" type="curve" smooth="yes"/>
      <point x="34" y="432"/>
      <point x="151" y="530"/>
      <point x="296" y="530" type="curve" smooth="yes"/>
      <point x="444" y="530"/>
      <point x="549" y="407"/>
      <point x="490" y="235" type="curve"/>
      <point x="210" y="235" type="line"/>
      <point x="224" y="281"/>
      <point x="254" y="317"/>
      <point x="288" y="317" type="curve"/>
    </contour>
    <contour>
      <point x="124" y="670" type="curve" smooth="yes" name="hr01"/>
      <point x="124" y="705"/>
      <point x="153" y="733"/>
      <point x="187" y="733" type="curve" smooth="yes"/>
      <point x="222" y="733"/>
      <point x="251" y="705"/>
      <point x="251" y="670" type="curve" smooth="yes"/>
      <point x="251" y="635"/>
      <point x="222" y="607"/>
      <point x="187" y="607" type="curve" smooth="yes"/>
      <point x="153" y="607"/>
      <point x="124" y="635"/>
    </contour>
    <contour>
      <point x="319" y="670" type="curve" smooth="yes"/>
      <point x="319" y="705"/>
      <point x="348" y="733"/>
      <point x="382" y="733" type="curve" smooth="yes"/>
      <point x="417" y="733"/>
      <point x="446" y="705"/>
      <point x="446" y="670" type="curve" smooth="yes"/>
      <point x="446" y="635"/>
      <point x="417" y="607"/>
      <point x="382" y="607" type="curve" smooth="yes"/>
      <point x="348" y="607"/>
      <point x="319" y="635"/>
    </contour>
  </outline>
</glyph>
<glyph name="igrave" format="1">
  <advance width="276"/>
  <unicode hex="00EC"/>
  <outline>
    <contour>
      <point x="89" y="0" type="line" name="hr00"/>
      <point x="89" y="517" type="line"/>
      <point x="229" y="517" type="line"/>
      <point x="229" y="0" type="line"/>
    </contour>
    <contour>
      <point x="-3" y="740" type="line"/>
      <point x="131" y="740" type="line"/>
      <point x="204" y="602" type="line"/>
      <point x="170" y="594"/>
      <point x="101" y="601"/>
      <point x="61" y="649" type="curve"/>
    </contour>
  </outline>
</glyph>
<glyph name="idieresis" format="1">
  <advance width="352"/>
  <unicode hex="00EF"/>
  <outline>
    <contour>
      <point x="106" y="0" type="line"/>
      <point x="106" y="517" type="line"/>
      <point x="246" y="517" type="line"/>
      <point x="246" y="0" type="line"/>
    </contour>
    <contour>
      <point x="14" y="670" type="curve" smooth="yes" name="hr01"/>
      <point x="14" y="705"/>
      <point x="43" y="733"/>
      <point x="77" y="733" type="curve" smooth="yes"/>
      <point x="112" y="733"/>
      <point x="141" y="705"/>
      <point x="141" y="670" type="curve" smooth="yes"/>
      <point x="141" y="635"/>
      <point x="112" y="607"/>
      <point x="77" y="607" type="curve" smooth="yes"/>
      <point x="43" y="607"/>
      <point x="14" y="635"/>
    </contour>
    <contour>
      <point x="209" y="670" type="curve" smooth="yes"/>
      <point x="209" y="705"/>
      <point x="238" y="733"/>
      <point x="272" y="733" type="curve" smooth="yes"/>
      <point x="307" y="733"/>
      <point x="336" y="705"/>
      <point x="336" y="670" type="curve" smooth="yes"/>
      <point x="336" y="635"/>
      <point x="307" y="607"/>
      <point x="272" y="607" type="curve" smooth="yes"/>
      <point x="238" y="607"/>
      <point x="209" y="635"/>
    </contour>
  </outline>
</glyph>
<glyph name="eth" format="1">
  <advance width="557"/>
  <unicode hex="00F0"/>
  <outline>
    <contour>
      <point x="550" y="259" type="curve" smooth="yes" name="hr00"/>
      <point x="550" y="105"/>
      <point x="431" y="-13"/>
      <point x="282" y="-13" type="curve" smooth="yes"/>
      <point x="132" y="-13"/>
      <point x="14" y="92"/>
      <point x="14" y="259" type="curve" smooth="yes"/>
      <point x="14" y="412"/>
      <point x="132" y="530"/>
      <point x="282" y="530" type="curve" smooth="yes"/>
      <point x="305" y="530"/>
      <point x="333" y="525"/>
      <point x="356" y="515" type="curve"/>
      <point x="331" y="546"/>
      <point x="301" y="575"/>
      <point x="267" y="600" type="curve"/>
      <point x="152" y="546" type="line"/>
      <point x="125" y="604" type="line"/>
      <point x="204" y="642" type="line"/>
      <point x="176" y="658"/>
      <point x="148" y="673"/>
      <point x="120" y="686" type="curve"/>
      <point x="163" y="762" type="line"/>
      <point x="211" y="742"/>
      <point x="258" y="718"/>
      <point x="301" y="688" type="curve"/>
      <point x="411" y="741" type="line"/>
      <point x="440" y="682" type="line"/>
      <point x="360" y="644" type="line"/>
      <point x="472" y="549"/>
      <point x="550" y="418"/>
    </contour>
    <contour>
      <point x="162" y="259" type="curve" smooth="yes"/>
      <point x="162" y="165"/>
      <point x="204" y="89"/>
      <point x="282" y="89" type="curve" smooth="yes"/>
      <point x="360" y="89"/>
      <point x="401" y="165"/>
      <point x="401" y="259" type="curve" smooth="yes"/>
      <point x="401" y="352"/>
      <point x="360" y="428"/>
      <point x="282" y="428" type="curve" smooth="yes"/>
      <point x="204" y="428"/>
      <point x="162" y="352"/>
    </contour>
  </outline>
</glyph>
<glyph name="ntilde" format="1">
  <advance width="596"/>
  <unicode hex="00F1"/>
  <outline>
    <contour>
      <point x="163" y="517" type="line"/>
      <point x="195" y="481"/>
      <point x="203" y="447"/>
      <point x="203" y="407" type="curve" smooth="yes"/>
      <point x="203" y="0" type="line"/>
      <point x="63" y="0" type="line"/>
      <point x="63" y="391" type="line" smooth="yes"/>
      <point x="63" y="428"/>
      <point x="58" y="470"/>
      <point x="47" y="517" type="curve"/>
    </contour>
    <contour>
      <point x="386" y="367" type="line"/>
      <point x="386" y="400"/>
      <point x="374" y="424"/>
      <point x="340" y="424" type="curve" smooth="yes"/>
      <point x="327" y="424"/>
      <point x="317" y="419"/>
      <point x="298" y="418" type="curve" name="hr01"/>
      <point x="266" y="416"/>
      <point x="246" y="452"/>
      <point x="227" y="484" type="curve"/>
      <point x="293" y="519"/>
      <point x="340" y="530"/>
      <point x="386" y="530" type="curve" smooth="yes"/>
      <point x="455" y="530"/>
      <point x="525" y="478"/>
      <point x="525" y="369" type="curve" smooth="yes"/>
      <point x="525" y="0" type="line"/>
      <point x="386" y="0" type="line"/>
    </contour>
    <contour>
      <point x="132" y="624" type="line"/>
      <point x="134" y="699"/>
      <point x="183" y="741"/>
      <point x="231" y="742" type="curve"/>
      <point x="290" y="742"/>
      <point x="319" y="689"/>
      <point x="349" y="689" type="curve" smooth="yes" name="hr02"/>
      <point x="366" y="689"/>
      <point x="377" y="707"/>
      <point x="380" y="734" type="curve"/>
      <point x="453" y="728" type="line"/>
      <point x="449" y="644"/>
      <point x="397" y="610"/>
      <point x="359" y="610" type="curve" smooth="yes"/>
      <point x="292" y="610"/>
      <point x="275" y="663"/>
      <point x="242" y="663" type="curve" smooth="yes" name="hr03"/>
      <point x="228" y="663"/>
      <point x="210" y="652"/>
      <point x="207" y="618" type="curve"/>
    </contour>
  </outline>
</glyph>
